<?xml version="1.0" encoding="UTF-8" standalone="no"?>
<svg
   xmlns:dc="http://purl.org/dc/elements/1.1/"
   xmlns:cc="http://creativecommons.org/ns#"
   xmlns:rdf="http://www.w3.org/1999/02/22-rdf-syntax-ns#"
   xmlns:svg="http://www.w3.org/2000/svg"
   xmlns="http://www.w3.org/2000/svg"
   xmlns:sodipodi="http://sodipodi.sourceforge.net/DTD/sodipodi-0.dtd"
   xmlns:inkscape="http://www.inkscape.org/namespaces/inkscape"
   id="svg21438"
   viewBox="0 0 158.08 170.43"
   version="1.0"
   sodipodi:docname="ap-down.svg"
   inkscape:version="1.0.1 (3bc2e813f5, 2020-09-07)">
  <defs
     id="defs18" />
  <sodipodi:namedview
     pagecolor="#ffffff"
     bordercolor="#666666"
     borderopacity="1"
     objecttolerance="10"
     gridtolerance="10"
     guidetolerance="10"
     inkscape:pageopacity="0"
     inkscape:pageshadow="2"
     inkscape:window-width="3440"
     inkscape:window-height="1377"
     id="namedview16"
     showgrid="false"
     inkscape:zoom="5.9144519"
     inkscape:cx="79.040001"
     inkscape:cy="85.214996"
     inkscape:window-x="-8"
     inkscape:window-y="288"
     inkscape:window-maximized="1"
     inkscape:current-layer="svg21438" />
  <g
     id="g21509"
     transform="matrix(1.3315,0,0,1.3315,-134.165,351.838)"
     fill="#3d7ca6"
     style="fill:#ff0000">
    <path
       id="path14319"
       d="m 168.85,-195.74 c -1.13,-3.81 -3,-11.51 -9,-11.51 -6,0 -8,7.68 -9,11.51 l -16,53.73 c 5,7.68 45,7.68 49.91,0 z"
       style="fill:#ff0000" />
    <path
       id="path14333"
       d="m 167.77,-225.26 c 0,4.14 -3.35,7.5 -7.5,7.5 -4.14,0 -7.5,-3.36 -7.5,-7.5 0,-4.14 3.36,-7.5 7.5,-7.5 4.15,0 7.5,3.36 7.5,7.5 z"
       style="fill:#ff0000" />
    <path
       id="path14345"
       d="m 175.06,-236.91 c 0,0 4.07,4.17 4.07,12.1 m -4.07,12.05 c 0,0 4.07,-4.17 4.07,-12.1"
       fill-rule="evenodd"
       stroke="#3d7ca6"
       stroke-linecap="round"
       stroke-width="6.3702"
       style="fill:#ff0000" />
    <path
       id="path14347"
       d="m 188.95,-248.99 c 0,0 8.14,8.35 8.14,24.21 m -8.14,24.1 c 0,0 8.14,-8.34 8.14,-24.2"
       fill-rule="evenodd"
       stroke="#3d7ca6"
       stroke-linecap="round"
       stroke-width="6.3702"
       style="fill:#ff0000" />
    <path
       id="path14349"
       d="m 204.09,-261.06 c 0,0 12.22,12.51 12.22,36.3 m -12.22,36.16 c 0,0 12.22,-12.52 12.22,-36.31"
       fill-rule="evenodd"
       stroke="#3d7ca6"
       stroke-linecap="round"
       stroke-width="6.3702"
       style="fill:#ff0000" />
    <path
       id="path14351"
       d="m 144.77,-236.91 c 0,0 -4.07,4.17 -4.07,12.1 m 4.07,12.05 c 0,0 -4.07,-4.17 -4.07,-12.1"
       fill-rule="evenodd"
       stroke="#3d7ca6"
       stroke-linecap="round"
       stroke-width="6.3702"
       style="fill:#ff0000" />
    <path
       id="path14353"
       d="m 131.31,-248.99 c 0,0 -8.15,8.35 -8.15,24.21 m 8.15,24.1 c 0,0 -8.15,-8.34 -8.15,-24.2"
       fill-rule="evenodd"
       stroke="#3d7ca6"
       stroke-linecap="round"
       stroke-width="6.3702"
       style="fill:#ff0000" />
    <path
       id="path14355"
       d="m 116.16,-261.06 c 0,0 -12.21,12.51 -12.21,36.3 m 12.21,36.16 c 0,0 -12.21,-12.52 -12.21,-36.31"
       fill-rule="evenodd"
       stroke="#3d7ca6"
       stroke-linecap="round"
       stroke-width="6.3702"
       style="fill:#ff0000" />
  </g>
  <metadata
     id="metadata13">
    <rdf:RDF>
      <cc:Work>
        <dc:format>image/svg+xml</dc:format>
        <dc:type
           rdf:resource="http://purl.org/dc/dcmitype/StillImage" />
        <cc:license
           rdf:resource="http://creativecommons.org/licenses/publicdomain/" />
        <dc:publisher>
          <cc:Agent
             rdf:about="http://openclipart.org/">
            <dc:title>Openclipart</dc:title>
          </cc:Agent>
        </dc:publisher>
        <dc:title>Wireless access point</dc:title>
        <dc:date>2008-03-19T18:32:07</dc:date>
        <dc:description>A symbol for an 802.11 access point or base station. Designed to look OK when printed on 600 dpi laser printers -- hence no gradients.</dc:description>
        <dc:source>http://openclipart.org/detail/15868/wireless-access-point-by-no_hope</dc:source>
        <dc:creator>
          <cc:Agent>
            <dc:title>no_hope</dc:title>
          </cc:Agent>
        </dc:creator>
        <dc:subject>
          <rdf:Bag>
            <rdf:li>bw printer friendly</rdf:li>
            <rdf:li>clip art</rdf:li>
            <rdf:li>clipart</rdf:li>
            <rdf:li>computer</rdf:li>
            <rdf:li>hardware</rdf:li>
            <rdf:li>image</rdf:li>
            <rdf:li>media</rdf:li>
            <rdf:li>public domain</rdf:li>
            <rdf:li>radio</rdf:li>
            <rdf:li>router</rdf:li>
            <rdf:li>svg</rdf:li>
            <rdf:li>wireless</rdf:li>
            <rdf:li>wlan</rdf:li>
          </rdf:Bag>
        </dc:subject>
      </cc:Work>
      <cc:License
         rdf:about="http://creativecommons.org/licenses/publicdomain/">
        <cc:permits
           rdf:resource="http://creativecommons.org/ns#Reproduction" />
        <cc:permits
           rdf:resource="http://creativecommons.org/ns#Distribution" />
        <cc:permits
           rdf:resource="http://creativecommons.org/ns#DerivativeWorks" />
      </cc:License>
    </rdf:RDF>
  </metadata>
  <path
     style="fill:#ff0000;fill-rule:evenodd;stroke-width:0.169077"
     d="M 18.760488,104.4294 C 17.479152,103.83272 15.173216,101.08501 12.537649,97.014392 3.6716261,83.320858 -0.80388648,65.31064 0.23606476,47.510742 0.9423736,35.421497 3.7201691,24.642143 8.688751,14.709732 12.034055,8.0223235 16.887275,1.228453 18.894261,0.42336073 c 2.74465,-1.10100291 5.711345,0.89813907 5.699113,3.84041237 -0.0049,1.1722643 -0.427031,2.0633198 -1.651656,3.4861888 -3.269079,3.7982791 -6.980801,10.2162061 -9.256513,16.0054091 -8.2380373,20.956814 -6.6978346,46.938099 3.888969,65.602021 1.414665,2.493971 3.42334,5.472242 4.903428,7.270327 1.866961,2.26808 2.013148,2.530076 2.090621,3.746761 0.08541,1.34127 -0.249061,2.30566 -1.105466,3.18747 -1.256201,1.29347 -3.069199,1.62792 -4.702269,0.86745 z"
     id="path39" />
  <path
     style="fill:#ff0000;fill-rule:evenodd;stroke-width:0.169077"
     d="M 39.281829,88.530448 C 38.194517,88.142018 37.143402,87.084005 35.312977,84.53555 25.038546,70.230714 22.725451,48.507174 29.615317,31.025698 c 2.466353,-6.257814 6.935929,-13.232257 9.222425,-14.390912 0.742124,-0.376062 1.033642,-0.428885 2.076345,-0.376231 0.977444,0.04936 1.349847,0.151809 1.917638,0.527555 0.944633,0.625129 1.65502,1.646082 1.896659,2.725838 0.312411,1.396004 -0.05264,2.370175 -1.621826,4.327962 -4.69797,5.861405 -7.758389,13.802746 -8.796427,22.825445 -0.390163,3.391324 -0.265088,10.40399 0.244263,13.695267 0.590842,3.817845 1.590891,7.543442 2.927323,10.905491 1.404046,3.532141 3.876213,7.818674 5.791595,10.042143 1.147527,1.332104 1.500905,2.111571 1.50442,3.31838 0.0051,1.739114 -1.097812,3.317759 -2.723063,3.897754 -0.804679,0.287161 -1.978782,0.289726 -2.77284,0.0061 z"
     id="path41" />
  <path
     style="fill:#ff0000;fill-rule:evenodd;stroke-width:0.169077"
     d="M 57.252145,72.486984 C 54.876054,71.727473 51.399334,65.883959 49.982248,60.268068 48.546901,54.57981 48.784231,47.994734 50.625647,42.415973 c 1.265178,-3.832988 4.088297,-8.446833 5.825701,-9.520987 2.114239,-1.307134 4.995109,-0.381197 5.981971,1.922656 0.347018,0.810123 0.339798,2.489431 -0.01361,3.165296 -0.153085,0.292764 -0.689487,1.078832 -1.192002,1.746818 -1.581944,2.102851 -2.776844,4.866541 -3.437264,7.950063 -0.441016,2.059121 -0.435228,7.594839 0.01008,9.637411 0.681963,3.128093 1.911269,5.885798 3.644321,8.175307 1.488598,1.966566 1.676012,3.274756 0.724291,5.055729 -0.922565,1.726414 -3.008337,2.548811 -4.916987,1.938718 z"
     id="path43" />
  <path
     style="fill:#ff0000;fill-rule:evenodd;stroke-width:0.169077"
     d="m 97.595899,72.47234 c -0.94598,-0.352948 -1.753058,-1.036791 -2.278431,-1.930536 -0.393584,-0.669548 -0.468017,-0.987134 -0.464271,-1.980929 0.005,-1.314957 0.227993,-1.866707 1.264411,-3.127931 3.786408,-4.607707 5.088552,-12.85602 3.111554,-19.709788 -0.724929,-2.513144 -1.913094,-4.812862 -3.390956,-6.563265 -1.851673,-2.193152 -1.060342,-5.534106 1.571232,-6.633647 0.790623,-0.330344 2.376186,-0.287396 3.187932,0.08635 2.54118,1.170025 6.02149,7.502694 7.1829,13.069798 0.57661,2.763917 0.7332,4.764712 0.6261,7.999673 -0.11156,3.369342 -0.53916,5.891777 -1.48074,8.734936 -1.41405,4.26983 -4.28555,8.866306 -6.12527,9.804861 -0.872522,0.445129 -2.369197,0.562117 -3.204461,0.250477 z"
     id="path45" />
  <path
     style="fill:#ff0000;fill-rule:evenodd;stroke-width:0.169077"
     d="m 116.02533,88.534761 c -2.09336,-0.781271 -3.21413,-3.126034 -2.50489,-5.240455 0.1204,-0.358934 0.7006,-1.244401 1.28933,-1.967702 4.88238,-5.998317 8.12906,-14.495742 9.02685,-23.625655 0.27172,-2.763181 0.23097,-8.442079 -0.0801,-11.167931 -0.75339,-6.601149 -2.70542,-12.85592 -5.62209,-18.01454 -1.00518,-1.77782 -1.80342,-2.93298 -3.95802,-5.727786 -1.67805,-2.176666 -0.86028,-5.250923 1.67901,-6.311907 0.75169,-0.314076 2.36737,-0.318806 3.10849,-0.0091 0.84331,0.352406 1.38535,0.829842 2.47672,2.181532 9.77954,12.11222 13.42649,31.133683 9.24731,48.231391 -1.11063,4.54375 -2.99696,9.433738 -5.07675,13.160601 -2.08673,3.739315 -4.83182,7.40978 -6.09553,8.150366 -0.92454,0.541819 -2.53176,0.698927 -3.4903,0.341186 z"
     id="path47" />
  <path
     style="fill:#ff0000;fill-rule:evenodd;stroke-width:0.169077"
     d="m 135.93078,104.51161 c -1.49015,-0.67692 -2.4378,-2.13597 -2.44415,-3.76312 -0.005,-1.224851 0.28847,-1.901221 1.39582,-3.219426 6.5667,-7.817047 11.53324,-19.087321 13.55778,-30.765828 2.001,-11.542713 1.55864,-23.487899 -1.2761,-34.459469 -2.18299,-8.449063 -5.88592,-16.448757 -10.43978,-22.5537997 -0.77451,-1.0383282 -1.66434,-2.1541663 -1.97741,-2.4796402 -2.01696,-2.0968929 -1.572,-5.2983136 0.92533,-6.65752701 1.08937,-0.5929137 2.45559,-0.64859404 3.591,-0.14635144 2.00494,0.88688355 6.83745,7.64630645 10.10601,14.13569735 12.24366,24.308494 11.3748,56.563097 -2.14808,79.743029 -1.78832,3.065404 -4.56747,6.961935 -6.37952,8.944445 -1.30226,1.42477 -3.34537,1.93316 -4.9109,1.22199 z"
     id="path49" />
</svg>
