<?xml version="1.0" encoding="UTF-8" standalone="no"?>
<svg
   xmlns:dc="http://purl.org/dc/elements/1.1/"
   xmlns:cc="http://creativecommons.org/ns#"
   xmlns:rdf="http://www.w3.org/1999/02/22-rdf-syntax-ns#"
   xmlns:svg="http://www.w3.org/2000/svg"
   xmlns="http://www.w3.org/2000/svg"
   xmlns:sodipodi="http://sodipodi.sourceforge.net/DTD/sodipodi-0.dtd"
   xmlns:inkscape="http://www.inkscape.org/namespaces/inkscape"
   id="svg21438"
   viewBox="0 0 158.08 170.43"
   version="1.0"
   sodipodi:docname="ap-up.svg"
   inkscape:version="1.0.1 (3bc2e813f5, 2020-09-07)">
  <defs
     id="defs18" />
  <sodipodi:namedview
     pagecolor="#ffffff"
     bordercolor="#666666"
     borderopacity="1"
     objecttolerance="10"
     gridtolerance="10"
     guidetolerance="10"
     inkscape:pageopacity="0"
     inkscape:pageshadow="2"
     inkscape:window-width="3440"
     inkscape:window-height="1377"
     id="namedview16"
     showgrid="false"
     inkscape:zoom="4.1821491"
     inkscape:cx="148.31881"
     inkscape:cy="101.28065"
     inkscape:window-x="-8"
     inkscape:window-y="288"
     inkscape:window-maximized="1"
     inkscape:current-layer="svg21438" />
  <path
     id="path14319"
     d="m 90.658775,91.21019 c -1.504595,-5.073015 -3.9945,-15.325565 -11.9835,-15.325565 -7.989,0 -10.652,10.22592 -11.9835,15.325565 l -21.304,71.54149 c 6.6575,10.22592 59.917495,10.22592 66.455165,0 z"
     style="fill:#00ff00;stroke-width:1.3315" />
  <path
     id="path14333"
     d="m 89.220755,51.90431 c 0,5.51241 -4.460525,9.98625 -9.98625,9.98625 -5.51241,0 -9.98625,-4.47384 -9.98625,-9.98625 0,-5.51241 4.47384,-9.98625 9.98625,-9.98625 5.525725,0 9.98625,4.47384 9.98625,9.98625 z"
     style="fill:#00ff00;stroke-width:1.3315" />
  <path
     id="path14345"
     d="m 98.92739,36.392335 c 0,0 5.4192,5.552355 5.4192,16.11115 m -5.4192,16.044575 c 0,0 5.4192,-5.552355 5.4192,-16.11115"
     fill-rule="evenodd"
     stroke="#3d7ca6"
     stroke-linecap="round"
     stroke-width="8.48192"
     style="fill:#00ff00" />
  <path
     id="path14347"
     d="m 117.42192,20.307815 c 0,0 10.83841,11.118025 10.83841,32.235615 m -10.83841,32.08915 c 0,0 10.83841,-11.10471 10.83841,-32.2223"
     fill-rule="evenodd"
     stroke="#3d7ca6"
     stroke-linecap="round"
     stroke-width="8.48192"
     style="fill:#00ff00" />
  <path
     id="path14349"
     d="m 137.58083,4.23661 c 0,0 16.27093,16.657065 16.27093,48.33345 m -16.27093,48.14704 c 0,0 16.27093,-16.67038 16.27093,-48.346765"
     fill-rule="evenodd"
     stroke="#3d7ca6"
     stroke-linecap="round"
     stroke-width="8.48192"
     style="fill:#00ff00" />
  <path
     id="path14351"
     d="m 58.596255,36.392335 c 0,0 -5.419205,5.552355 -5.419205,16.11115 m 5.419205,16.044575 c 0,0 -5.419205,-5.552355 -5.419205,-16.11115"
     fill-rule="evenodd"
     stroke="#3d7ca6"
     stroke-linecap="round"
     stroke-width="8.48192"
     style="fill:#00ff00" />
  <path
     id="path14353"
     d="m 40.674265,20.307815 c 0,0 -10.851725,11.118025 -10.851725,32.235615 m 10.851725,32.08915 c 0,0 -10.851725,-11.10471 -10.851725,-32.2223"
     fill-rule="evenodd"
     stroke="#3d7ca6"
     stroke-linecap="round"
     stroke-width="8.48192"
     style="fill:#00ff00" />
  <path
     id="path14355"
     d="m 20.50204,4.23661 c 0,0 -16.257615,16.657065 -16.257615,48.33345 M 20.50204,100.7171 c 0,0 -16.257615,-16.67038 -16.257615,-48.346765"
     fill-rule="evenodd"
     stroke="#3d7ca6"
     stroke-linecap="round"
     stroke-width="8.48192"
     style="fill:#00ff00" />
  <metadata
     id="metadata13">
    <rdf:RDF>
      <cc:Work>
        <dc:format>image/svg+xml</dc:format>
        <dc:type
           rdf:resource="http://purl.org/dc/dcmitype/StillImage" />
        <cc:license
           rdf:resource="http://creativecommons.org/licenses/publicdomain/" />
        <dc:publisher>
          <cc:Agent
             rdf:about="http://openclipart.org/">
            <dc:title>Openclipart</dc:title>
          </cc:Agent>
        </dc:publisher>
        <dc:title>Wireless access point</dc:title>
        <dc:date>2008-03-19T18:32:07</dc:date>
        <dc:description>A symbol for an 802.11 access point or base station. Designed to look OK when printed on 600 dpi laser printers -- hence no gradients.</dc:description>
        <dc:source>http://openclipart.org/detail/15868/wireless-access-point-by-no_hope</dc:source>
        <dc:creator>
          <cc:Agent>
            <dc:title>no_hope</dc:title>
          </cc:Agent>
        </dc:creator>
        <dc:subject>
          <rdf:Bag>
            <rdf:li>bw printer friendly</rdf:li>
            <rdf:li>clip art</rdf:li>
            <rdf:li>clipart</rdf:li>
            <rdf:li>computer</rdf:li>
            <rdf:li>hardware</rdf:li>
            <rdf:li>image</rdf:li>
            <rdf:li>media</rdf:li>
            <rdf:li>public domain</rdf:li>
            <rdf:li>radio</rdf:li>
            <rdf:li>router</rdf:li>
            <rdf:li>svg</rdf:li>
            <rdf:li>wireless</rdf:li>
            <rdf:li>wlan</rdf:li>
          </rdf:Bag>
        </dc:subject>
      </cc:Work>
      <cc:License
         rdf:about="http://creativecommons.org/licenses/publicdomain/">
        <cc:permits
           rdf:resource="http://creativecommons.org/ns#Reproduction" />
        <cc:permits
           rdf:resource="http://creativecommons.org/ns#Distribution" />
        <cc:permits
           rdf:resource="http://creativecommons.org/ns#DerivativeWorks" />
      </cc:License>
    </rdf:RDF>
  </metadata>
  <path
     style="fill:#00ff00;fill-rule:evenodd;stroke-width:0.0845387"
     d="m 116.44139,88.712156 c -1.64993,-0.420553 -2.90446,-1.815145 -3.16791,-3.521563 -0.1891,-1.224901 0.19987,-2.383265 1.18085,-3.516621 4.50493,-5.204643 7.86486,-13.210423 9.05525,-21.576109 0.4102,-2.882723 0.46861,-3.832852 0.46861,-7.622683 0,-3.789831 -0.0584,-4.73996 -0.46861,-7.622683 -1.16782,-8.207082 -4.40162,-16.037666 -8.76642,-21.227742 -1.27791,-1.519524 -1.68408,-2.616829 -1.46012,-3.944606 0.34656,-2.054654 2.09632,-3.556604 4.1434,-3.556604 1.58197,0 2.62744,0.667068 4.23983,2.705238 4.54507,5.745281 7.89194,13.239252 9.57108,21.430557 2.12228,10.35305 1.43279,21.798869 -1.89442,31.448144 -2.0412,5.919688 -5.07449,11.431272 -8.40052,15.263987 -1.11204,1.281449 -1.99959,1.764445 -3.34689,1.821353 -0.42037,0.01776 -0.89933,-0.01572 -1.15413,-0.08067 z"
     id="path87" />
  <path
     style="fill:#00ff00;fill-rule:evenodd;stroke-width:0.0845387"
     d="m 98.109352,72.665531 c -1.404967,-0.265986 -2.697706,-1.431128 -3.173118,-2.85992 -0.15234,-0.45784 -0.177738,-0.69757 -0.152255,-1.437158 0.02795,-0.811142 0.05666,-0.942309 0.333144,-1.521696 0.166407,-0.348722 0.483113,-0.843274 0.703792,-1.099003 1.057956,-1.225995 2.258075,-3.362885 2.967413,-5.283668 1.487762,-4.028639 1.753352,-9.188632 0.700559,-13.610729 -0.689437,-2.89588 -1.980154,-5.609284 -3.615898,-7.601502 -0.827344,-1.007644 -1.100199,-1.722544 -1.101912,-2.887086 -0.0017,-1.168114 0.400072,-2.13046 1.230855,-2.948075 1.423129,-1.400572 3.56949,-1.602229 5.254018,-0.49363 1.53613,1.010934 4.04348,4.994424 5.33607,8.477548 2.4826,6.689787 2.59414,14.487173 0.3043,21.271928 -1.15164,3.41231 -3.19484,7.018869 -4.97604,8.783474 -1.04593,1.036182 -2.421102,1.472637 -3.810928,1.209517 z"
     id="path89" />
  <path
     style="fill:#00ff00;fill-rule:evenodd;stroke-width:0.0845387"
     d="m 136.58161,104.79972 c -1.44023,-0.36026 -2.75603,-1.69201 -3.08561,-3.12302 -0.14221,-0.61749 -0.10937,-1.53212 0.0763,-2.125704 0.23098,-0.738302 0.52106,-1.204736 1.31134,-2.108589 2.42458,-2.773013 4.91321,-6.603934 7.01561,-10.799589 5.11675,-10.211262 7.73639,-21.780851 7.73639,-34.167638 0,-13.690572 -3.24165,-26.533741 -9.42064,-37.32383 -1.55232,-2.710738 -3.77877,-5.8943528 -5.40965,-7.73529 -1.01693,-1.1479066 -1.40014,-2.0168484 -1.39807,-3.1702008 0.002,-1.1672493 0.40426,-2.1404941 1.22268,-2.9589141 0.81842,-0.81841999 1.79167,-1.22058367 2.95892,-1.22268089 1.35266,-0.0024304 2.36423,0.5164053 3.48936,1.78970899 4.25429,4.8145335 8.46773,12.0640618 11.36437,19.5532398 2.81557,7.27957 4.65696,15.480699 5.30528,23.628563 0.36797,4.624456 0.36809,10.305022 3.4e-4,14.836539 -0.51259,6.315793 -1.65978,12.396528 -3.45298,18.302626 -2.63215,8.669299 -7.0332,17.288153 -11.95753,23.417219 -1.66366,2.07067 -2.28781,2.65168 -3.27696,3.05051 -0.52182,0.2104 -1.91345,0.29855 -2.47916,0.15705 z"
     id="path91" />
  <path
     style="fill:#00ff00;fill-rule:evenodd;stroke-width:0.0845387"
     d="m 57.679795,72.636464 c -0.701425,-0.15239 -1.448834,-0.561858 -1.980073,-1.084784 -1.860018,-1.830911 -4.063478,-5.727452 -5.170401,-9.143204 -1.051357,-3.244286 -1.523529,-6.342163 -1.520458,-9.975565 0.0052,-6.181408 1.58512,-11.768179 4.647414,-16.434027 1.66345,-2.534506 2.718452,-3.459728 4.258936,-3.735028 3.052249,-0.545467 5.655723,2.52341 4.641518,5.471248 -0.199536,0.579964 -0.372338,0.853831 -1.151714,1.825308 -1.871638,2.332962 -3.236428,5.753859 -3.811819,9.554461 -0.209448,1.383455 -0.206054,5.383438 0.0057,6.741855 0.612841,3.93104 1.949177,7.224763 3.910108,9.63741 0.759679,0.934676 1.101423,1.619914 1.233693,2.473702 0.326381,2.106743 -1.161729,4.222058 -3.287007,4.672414 -0.694596,0.147188 -1.084826,0.146355 -1.775917,-0.0038 z"
     id="path93" />
  <path
     style="fill:#00ff00;fill-rule:evenodd;stroke-width:0.0845387"
     d="M 39.660959,88.693355 C 38.623472,88.414322 38.013495,87.985492 37.049049,86.857117 32.839842,81.932461 29.296679,74.715125 27.434902,67.273336 23.477863,51.456486 26.095474,34.236843 34.3686,21.660829 c 1.278638,-1.943664 2.972091,-4.046004 3.752441,-4.658474 0.654742,-0.513884 1.413997,-0.80312 2.248388,-0.856515 1.301898,-0.08331 2.332661,0.309198 3.256276,1.239975 0.606459,0.611162 0.940889,1.213475 1.137989,2.049537 0.156641,0.664441 0.157751,0.974867 0.006,1.690657 -0.170206,0.803072 -0.490813,1.400345 -1.186205,2.209832 -3.433825,3.997217 -6.28994,9.771936 -7.912063,15.997224 -2.191063,8.408741 -2.187214,17.885586 0.01069,26.32613 1.55852,5.985128 4.359364,11.715499 7.637402,15.625704 0.915194,1.091687 1.10276,1.375927 1.314964,1.992707 0.521745,1.516478 0.125661,3.161615 -1.041934,4.327675 -1.032728,1.031372 -2.565379,1.455531 -3.931637,1.088074 z"
     id="path95" />
  <path
     style="fill:#00ff00;fill-rule:evenodd;stroke-width:0.0845387"
     d="m 19.505152,104.80172 c -1.005162,-0.2527 -1.734559,-0.79589 -2.89165,-2.15344 C 11.70263,96.886666 7.2001208,88.529772 4.3387651,79.865715 2.1815494,73.333764 0.90358091,66.823138 0.28981289,59.238275 0.11018982,57.018517 0.03557378,50.301995 0.16340861,47.860062 0.78798761,35.929196 3.5529638,24.96153 8.4200128,15.10908 10.829801,10.230907 13.621552,5.8348038 16.388094,2.561939 c 1.723995,-2.03951525 2.697968,-2.59086026 4.380297,-2.47959275 0.884145,0.05847646 1.461454,0.26509857 2.175872,0.7787563 C 24.608949,2.057992 25.15544,4.306989 24.226865,6.1394448 24.110713,6.3686594 23.629994,7.0064536 23.158601,7.5567654 18.247149,13.29047 13.99927,21.604718 11.460633,30.452852 9.7967346,36.252182 8.8582224,42.116477 8.53151,48.755478 8.4238635,50.94293 8.4731,55.934732 8.622818,58.012464 c 0.5103068,7.081895 1.722467,13.313234 3.812948,19.601182 2.538526,7.635619 6.658706,15.169665 10.996741,20.108322 0.635509,0.723499 0.93978,1.258358 1.128892,1.98441 0.518822,1.991892 -0.613267,4.158132 -2.579135,4.935142 -0.527573,0.20852 -1.925327,0.29892 -2.477112,0.1602 z"
     id="path97" />
</svg>
