<?xml version="1.0" encoding="UTF-8" standalone="no"?>
<svg
   xmlns:dc="http://purl.org/dc/elements/1.1/"
   xmlns:cc="http://creativecommons.org/ns#"
   xmlns:rdf="http://www.w3.org/1999/02/22-rdf-syntax-ns#"
   xmlns:svg="http://www.w3.org/2000/svg"
   xmlns="http://www.w3.org/2000/svg"
   xmlns:sodipodi="http://sodipodi.sourceforge.net/DTD/sodipodi-0.dtd"
   xmlns:inkscape="http://www.inkscape.org/namespaces/inkscape"
   height="823.573"
   version="1.1"
   width="656.54498"
   id="svg2"
   inkscape:version="1.0.1 (3bc2e813f5, 2020-09-07)"
   sodipodi:docname="bulding-up.svg">
  <metadata
     id="metadata241">
    <rdf:RDF>
      <cc:Work
         rdf:about="">
        <dc:format>image/svg+xml</dc:format>
        <dc:type
           rdf:resource="http://purl.org/dc/dcmitype/StillImage" />
        <dc:title />
      </cc:Work>
    </rdf:RDF>
  </metadata>
  <defs
     id="defs239" />
  <sodipodi:namedview
     pagecolor="#ffffff"
     bordercolor="#666666"
     borderopacity="1"
     objecttolerance="10"
     gridtolerance="10"
     guidetolerance="10"
     inkscape:pageopacity="0"
     inkscape:pageshadow="2"
     inkscape:window-width="737"
     inkscape:window-height="480"
     id="namedview237"
     showgrid="false"
     fit-margin-top="0"
     fit-margin-left="0"
     fit-margin-right="0"
     fit-margin-bottom="0"
     inkscape:zoom="0.55154329"
     inkscape:cx="422.82083"
     inkscape:cy="491.93432"
     inkscape:current-layer="fills"
     inkscape:document-rotation="0"
     inkscape:window-x="0"
     inkscape:window-y="296"
     inkscape:window-maximized="0" />
  <g
     id="RenderLayer_LineSet"
     inkscape:label="RenderLayer_LineSet"
     transform="translate(-694.605,-104.562)">
    <g
       id="fills"
       inkscape:groupmode="layer"
       inkscape:label="fills">
      <path
         d="m 1261.45,777.376 -9.586,-7.175 49.022,-28.936 47.525,-453.916 2.739,-26.156 -303.543,-156.631 -353.002,123.197 2.312,25.741 40.277,448.376 247.108,226.259 123.418,-72.85 61.482,51.252 9.623,-5.948 4.734,-71.767 12.915,-7.699 48.764,38.411 9.163,-5.665 7.049,-76.493 z"
         fill_rule="evenodd"
         id="path6"
         inkscape:connector-curvature="0"
         style="fill:#00ff00;fill-opacity:1;stroke:none" />
    </g>
    <g
       id="strokes"
       inkscape:groupmode="layer"
       inkscape:label="strokes">
      <path
         d="m 1085.048,266.508 0.135,-5.274 0.077,-3.036 0.357,-13.95 0.326,-12.761 0.223,-8.74 -3.109,-1.74 -14.364,-8.041 -4.299,-2.407 -18.101,-10.133 -11.805,-6.608 -0.912,-0.511 -8.728,-4.886 -5.575,-3.12 -26.64,9.871 -9.573,3.548 -7.531,2.79 -9.5,3.521 -14.01,5.191 0.48,34.527 0.124,8.964 0.336,0.205 42.687,26.034 8.18,4.989 9.359,5.707 4.781,2.916 6.121,-2.468 9.444,-3.81 11.635,-4.692 39.882,-16.086"
         id="path9"
         inkscape:connector-curvature="0"
         style="fill:none;stroke:#000000;stroke-width:3;stroke-linecap:butt;stroke-linejoin:bevel;stroke-opacity:1" />
      <path
         d="m 1086.166,222.747 -3.182,1.241 -6.115,2.384 -31.087,12.12 -27.569,10.748"
         id="path11"
         inkscape:connector-curvature="0"
         style="fill:none;stroke:#000000;stroke-width:3;stroke-linecap:butt;stroke-linejoin:bevel;stroke-opacity:1" />
      <path
         d="m 1017.966,293.564 0.247,-44.324 -20.922,-12.332 -9.502,-5.601 -12.101,-7.134 -9.527,-5.615 -14.142,-8.336"
         id="path13"
         inkscape:connector-curvature="0"
         style="fill:none;stroke:#000000;stroke-width:3;stroke-linecap:butt;stroke-linejoin:bevel;stroke-opacity:1" />
      <path
         d="m 1196.474,821.123 39.278,30.939 9.486,7.472 9.163,-5.665 4.588,-49.789 2.461,-26.704 -9.586,-7.175 -40.03,-29.96 -14.372,-10.757 -43.498,24.656 -43.333,24.563 -1.955,49.961 -1.039,26.552 0.083,0.069 38.406,32.016 23.076,19.236 9.623,-5.948 3.291,-49.892 1.443,-21.875 12.915,-7.699 9.12,-5.437 42.948,-25.603 3.041,-1.813"
         id="path15"
         inkscape:connector-curvature="0"
         style="fill:none;stroke:#000000;stroke-width:3;stroke-linecap:butt;stroke-linejoin:bevel;stroke-opacity:1" />
      <path
         d="m 1169.202,906.537 3.122,-49.902 1.707,-27.289"
         id="path17"
         inkscape:connector-curvature="0"
         style="fill:none;stroke:#000000;stroke-width:3;stroke-linecap:butt;stroke-linejoin:bevel;stroke-opacity:1" />
      <path
         d="m 1261.45,777.376 -13.591,8.08 -42.978,25.55 -12.111,7.2 -18.739,11.14 -9.504,-7.592 -39.067,-31.206 -14.829,-11.845"
         id="path19"
         inkscape:connector-curvature="0"
         style="fill:none;stroke:#000000;stroke-width:3;stroke-linecap:butt;stroke-linejoin:bevel;stroke-opacity:1" />
      <path
         d="m 762.751,318.83 7.418,5.222 18.818,13.249 8.695,6.122 1.804,29.307 2.344,38.083"
         id="path21"
         inkscape:connector-curvature="0"
         style="fill:none;stroke:#000000;stroke-width:3;stroke-linecap:butt;stroke-linejoin:bevel;stroke-opacity:1" />
      <path
         d="m 1251.864,770.201 43.058,-25.416 5.964,-3.52 5.207,-49.728 5.206,-49.728 5.207,-49.729 5.206,-49.728 5.207,-49.728 5.206,-49.728 5.207,-49.728 5.207,-49.729 5.206,-49.728 0.666,-6.362 2.739,-26.156 -44.433,-22.928 -44.434,-22.928 -44.433,-22.928 -44.433,-22.928 -44.433,-22.928 -44.433,-22.928 -36.944,-19.063 -47.208,16.475 -47.207,16.476 -47.208,16.475 -47.208,16.476 -47.207,16.475 -47.208,16.475 -47.208,16.476 -22.548,7.869 2.312,25.741 4.474,49.8 4.473,49.799 4.473,49.8 4.474,49.799 4.473,49.8 4.474,49.799 4.473,49.8 4.474,49.799 4.489,49.98 36.877,33.765 36.877,33.766 36.876,33.765 36.877,33.765 36.877,33.766 36.877,33.765 25.847,23.667 43.059,-25.416 43.058,-25.416 37.301,-22.018"
         id="path23"
         inkscape:connector-curvature="0"
         style="fill:none;stroke:#000000;stroke-width:3;stroke-linecap:butt;stroke-linejoin:bevel;stroke-opacity:1" />
      <path
         d="m 833.112,721.404 22.73,20.032 10.174,8.967 0.402,8.657 2.095,45.075 -32.338,-29.322"
         id="path25"
         inkscape:connector-curvature="0"
         style="fill:none;stroke:#000000;stroke-width:3;stroke-linecap:butt;stroke-linejoin:bevel;stroke-opacity:1" />
      <path
         d="m 780.496,724.325 -3.008,-39.795 -0.163,-2.158 -0.56,-7.417 -0.26,-3.441 -5.602,-4.937 -5.57,-4.909 -8.235,-7.258 -10.673,-9.407 4.235,49.821 0.225,2.652"
         id="path27"
         inkscape:connector-curvature="0"
         style="fill:none;stroke:#000000;stroke-width:3;stroke-linecap:butt;stroke-linejoin:bevel;stroke-opacity:1" />
      <path
         d="m 925.147,689.838 21.415,17.716 14.53,12.02 1.653,1.367 0.137,10.814 0.611,48.373 -36.857,-31.508"
         id="path29"
         inkscape:connector-curvature="0"
         style="fill:none;stroke:#000000;stroke-width:3;stroke-linecap:butt;stroke-linejoin:bevel;stroke-opacity:1" />
      <path
         d="m 772.365,616.741 -0.349,-4.619 -2.577,-34.096 -0.703,-9.304 -0.667,-8.827 -1.351,-1.117 -10.19,-8.43 -8.504,-7.035 -11.019,-9.116 4.235,49.821 0.561,6.595"
         id="path31"
         inkscape:connector-curvature="0"
         style="fill:none;stroke:#000000;stroke-width:3;stroke-linecap:butt;stroke-linejoin:bevel;stroke-opacity:1" />
      <path
         d="m 826.628,608.338 23.549,19.481 0.5,0.414 8.361,6.916 1.687,1.396 0.241,5.177 0.412,8.865 2.044,43.994"
         id="path33"
         inkscape:connector-curvature="0"
         style="fill:none;stroke:#000000;stroke-width:3;stroke-linecap:butt;stroke-linejoin:bevel;stroke-opacity:1" />
      <path
         d="m 763.607,500.856 -2.823,-37.35 -0.677,-8.967 -0.764,-10.109 -0.373,-4.935 -11.936,-9.171 -8.791,-6.755 -11.386,-8.748 4.235,49.82 0.935,11"
         id="path35"
         inkscape:connector-curvature="0"
         style="fill:none;stroke:#000000;stroke-width:3;stroke-linecap:butt;stroke-linejoin:bevel;stroke-opacity:1" />
      <path
         d="m 754.146,375.672 -2.694,-35.644 -0.646,-8.547 -0.727,-9.63 -0.954,-12.615 -12.357,-8.7 -9.098,-6.405 -11.778,-8.293 4.235,49.82 1.355,15.943"
         id="path37"
         inkscape:connector-curvature="0"
         style="fill:none;stroke:#000000;stroke-width:3;stroke-linecap:butt;stroke-linejoin:bevel;stroke-opacity:1" />
      <path
         d="m 762.751,318.83 0.563,7.852 3.16,44.102 1.058,14.753"
         id="path39"
         inkscape:connector-curvature="0"
         style="fill:none;stroke:#000000;stroke-width:3;stroke-linecap:butt;stroke-linejoin:bevel;stroke-opacity:1" />
      <path
         d="m 851.952,447.75 -1.446,-31.124 -0.409,-8.793 -0.041,-0.886 -1.28,-27.551 -1.065,-0.75 -10.319,-7.265 -9.123,-6.423 -9.04,-6.365 -7.216,-5.08 2.863,49.918 0.113,1.962 0.888,15.493 0.017,0.291"
         id="path41"
         inkscape:connector-curvature="0"
         style="fill:none;stroke:#000000;stroke-width:3;stroke-linecap:butt;stroke-linejoin:bevel;stroke-opacity:1" />
      <path
         d="m 904.705,486.627 -1.047,-34.667 -0.278,-9.19 -0.027,-0.909 -0.742,-24.562 -14.347,-10.101 -5.704,-4.016 -7.426,-5.228 -1.558,-1.097 -7.435,-5.235 -2.273,-1.6 2.096,49.956 0.073,1.736 0.71,16.94"
         id="path43"
         inkscape:connector-curvature="0"
         style="fill:none;stroke:#000000;stroke-width:3;stroke-linecap:butt;stroke-linejoin:bevel;stroke-opacity:1" />
      <path
         d="m 960.302,527.598 -0.039,-3.086 -0.533,-42.144 -10e-4,-0.108 -0.13,-10.208 -0.186,-14.761 -1.801,-1.268 -15.814,-11.134 -5.384,-3.791 -8.913,-6.275 -8.974,-6.318 0.4,15.81 0.901,35.557 0.462,18.24"
         id="path45"
         inkscape:connector-curvature="0"
         style="fill:none;stroke:#000000;stroke-width:3;stroke-linecap:butt;stroke-linejoin:bevel;stroke-opacity:1" />
      <path
         d="m 1319.375,259.575 -17.411,7.533 -17.652,7.637 -4.499,1.946 -18.001,7.788 -9.884,4.277 -4.451,1.926 -17.805,7.703 -11.055,4.783 -31.653,13.695 -40.165,17.377 -30.784,13.319 -6.15,2.661 -14.231,6.157 -0.737,0.319 -15.342,6.638 -14.043,6.075 -0.727,0.315 -20.938,9.059 -45.889,19.854 -12.543,5.426 -40.38,-27.082 -9.091,-6.097 -0.934,-0.626 -9.104,-6.106 -8.287,-5.559 -9.126,-6.12 -18.417,-12.353 -9.156,-6.141 -41.526,-27.85 -8.192,-5.495 -9.209,-6.176 -17.173,-11.518 -9.226,-6.187 -11.114,-7.454 -9.236,-6.195 -7.265,-4.873 -9.244,-6.199 -18.169,-12.186 -15.726,-10.547"
         id="path47"
         inkscape:connector-curvature="0"
         style="fill:none;stroke:#000000;stroke-width:3;stroke-linecap:butt;stroke-linejoin:bevel;stroke-opacity:1" />
      <path
         d="m 981.471,423.058 0.031,5.564 0.126,22.419 0.28,49.999 0.092,16.439 0.266,47.391 0.28,49.999 0.19,33.859 0.231,41.235 0.28,49.999 0.165,29.363 0.201,35.893 0.281,49.999 0.141,25.3 0.267,47.618"
         id="path49"
         inkscape:connector-curvature="0"
         style="fill:none;stroke:#000000;stroke-width:3;stroke-linecap:butt;stroke-linejoin:bevel;stroke-opacity:1" />
      <path
         d="m 1080.006,497.289 0.124,-4.803 0.111,-4.309 0.097,-3.732 0.299,-11.59 0.337,-13.068 0.567,-21.96 0.109,-4.228 0.152,-5.896 11.888,-5.384 25.831,-11.699 9.013,-4.083 2.77,-1.254"
         id="path51"
         inkscape:connector-curvature="0"
         style="fill:none;stroke:#000000;stroke-width:3;stroke-linecap:butt;stroke-linejoin:bevel;stroke-opacity:1" />
      <path
         d="m 928.067,805.091 20.593,18.149 13.963,12.306 1.589,1.4 0.065,5.208 0.625,49.382"
         id="path53"
         inkscape:connector-curvature="0"
         style="fill:none;stroke:#000000;stroke-width:3;stroke-linecap:butt;stroke-linejoin:bevel;stroke-opacity:1" />
      <path
         d="m 962.692,840.753 -33.25,18.63"
         id="path55"
         inkscape:connector-curvature="0"
         style="fill:none;stroke:#000000;stroke-width:3;stroke-linecap:butt;stroke-linejoin:bevel;stroke-opacity:1" />
      <path
         d="m 881.743,816.132 33.845,30.689 -1.456,-48.175 -0.181,-5.996 -12.745,-11.233 -21.722,-19.144"
         id="path57"
         inkscape:connector-curvature="0"
         style="fill:none;stroke:#000000;stroke-width:3;stroke-linecap:butt;stroke-linejoin:bevel;stroke-opacity:1" />
      <path
         d="m 792.599,735.299 30.929,28.045 -2.604,-42.297 -0.676,-10.98 -7.815,-6.888 -23.629,-20.825"
         id="path59"
         inkscape:connector-curvature="0"
         style="fill:none;stroke:#000000;stroke-width:3;stroke-linecap:butt;stroke-linejoin:bevel;stroke-opacity:1" />
      <path
         d="m 777.488,684.53 -26.603,12.946 29.611,26.849"
         id="path61"
         inkscape:connector-curvature="0"
         style="fill:none;stroke:#000000;stroke-width:3;stroke-linecap:butt;stroke-linejoin:bevel;stroke-opacity:1" />
      <path
         d="m 788.804,682.354 2.618,36.526 1.177,16.419 28.325,-14.252"
         id="path63"
         inkscape:connector-curvature="0"
         style="fill:none;stroke:#000000;stroke-width:3;stroke-linecap:butt;stroke-linejoin:bevel;stroke-opacity:1" />
      <path
         d="m 833.112,721.404 2.061,35.935 1.002,17.474 30.243,-15.753"
         id="path65"
         inkscape:connector-curvature="0"
         style="fill:none;stroke:#000000;stroke-width:3;stroke-linecap:butt;stroke-linejoin:bevel;stroke-opacity:1" />
      <path
         d="m 879.484,762.273 1.477,35.211 0.782,18.648 32.389,-17.486"
         id="path67"
         inkscape:connector-curvature="0"
         style="fill:none;stroke:#000000;stroke-width:3;stroke-linecap:butt;stroke-linejoin:bevel;stroke-opacity:1" />
      <path
         d="m 928.067,805.091 0.869,34.33 0.506,19.962 35.46,32.153"
         id="path69"
         inkscape:connector-curvature="0"
         style="fill:none;stroke:#000000;stroke-width:3;stroke-linecap:butt;stroke-linejoin:bevel;stroke-opacity:1" />
      <path
         d="m 961.234,730.384 -34.598,18.236 -0.495,-19.539 -0.994,-39.243"
         id="path71"
         inkscape:connector-curvature="0"
         style="fill:none;stroke:#000000;stroke-width:3;stroke-linecap:butt;stroke-linejoin:bevel;stroke-opacity:1" />
      <path
         d="m 877.136,706.305 35.113,30.017 -1.423,-47.102 -0.348,-11.516 -13.238,-10.952 -22.545,-18.651"
         id="path73"
         inkscape:connector-curvature="0"
         style="fill:none;stroke:#000000;stroke-width:3;stroke-linecap:butt;stroke-linejoin:bevel;stroke-opacity:1" />
      <path
         d="m 829.932,665.952 33.49,28.629"
         id="path75"
         inkscape:connector-curvature="0"
         style="fill:none;stroke:#000000;stroke-width:3;stroke-linecap:butt;stroke-linejoin:bevel;stroke-opacity:1" />
      <path
         d="m 784.868,627.429 15.587,13.325 8.3,7.095 8.09,6.916 -2.537,-41.216 -0.999,-16.229 -8.088,-6.691 -24.44,-20.217"
         id="path77"
         inkscape:connector-curvature="0"
         style="fill:none;stroke:#000000;stroke-width:3;stroke-linecap:butt;stroke-linejoin:bevel;stroke-opacity:1" />
      <path
         d="m 769.439,578.026 -27.638,12.587 30.564,26.128"
         id="path79"
         inkscape:connector-curvature="0"
         style="fill:none;stroke:#000000;stroke-width:3;stroke-linecap:butt;stroke-linejoin:bevel;stroke-opacity:1" />
      <path
         d="m 874.695,648.101 1.677,39.983 0.764,18.221 33.69,-17.085"
         id="path81"
         inkscape:connector-curvature="0"
         style="fill:none;stroke:#000000;stroke-width:3;stroke-linecap:butt;stroke-linejoin:bevel;stroke-opacity:1" />
      <path
         d="m 872.153,587.526 23.755,18.967 8.436,6.736 4.29,3.425 -0.164,-5.421 -0.321,-10.624 -0.896,-29.644 -0.332,-11.014 -0.21,-6.934 -2.904,-2.231 -10.866,-8.349 -23.434,-18.007"
         id="path83"
         inkscape:connector-curvature="0"
         style="fill:none;stroke:#000000;stroke-width:3;stroke-linecap:butt;stroke-linejoin:bevel;stroke-opacity:1" />
      <path
         d="m 823.192,548.432 33.723,26.926 1.004,0.802 -0.125,-2.69 -1.854,-39.904 -0.197,-4.232 -0.425,-9.145 -0.321,-6.908 -1.023,-0.786 -9.927,-7.628 -22.327,-17.155 -2.103,-1.616"
         id="path85"
         inkscape:connector-curvature="0"
         style="fill:none;stroke:#000000;stroke-width:3;stroke-linecap:butt;stroke-linejoin:bevel;stroke-opacity:1" />
      <path
         d="m 776.536,511.18 16.129,12.878 8.592,6.86 8.377,6.689 -2.452,-39.832 -1.371,-22.288 -8.381,-6.44 -25.307,-19.445"
         id="path87"
         inkscape:connector-curvature="0"
         style="fill:none;stroke:#000000;stroke-width:3;stroke-linecap:butt;stroke-linejoin:bevel;stroke-opacity:1" />
      <path
         d="m 760.784,463.506 -28.757,12.135 31.58,25.215"
         id="path89"
         inkscape:connector-curvature="0"
         style="fill:none;stroke:#000000;stroke-width:3;stroke-linecap:butt;stroke-linejoin:bevel;stroke-opacity:1" />
      <path
         d="m 780.781,570.412 2.941,41.028 1.146,15.989 14.249,-6.718 7.666,-3.614 7.525,-3.548"
         id="path91"
         inkscape:connector-curvature="0"
         style="fill:none;stroke:#000000;stroke-width:3;stroke-linecap:butt;stroke-linejoin:bevel;stroke-opacity:1" />
      <path
         d="m 826.628,608.338 1.755,30.611 0.572,9.959 0.044,0.775 0.933,16.269 31.446,-15.365"
         id="path93"
         inkscape:connector-curvature="0"
         style="fill:none;stroke:#000000;stroke-width:3;stroke-linecap:butt;stroke-linejoin:bevel;stroke-opacity:1" />
      <path
         d="m 957.943,481.089 -22.201,10.037 -14.635,6.616 -0.817,0.37 0.842,0.62 39.17,28.866"
         id="path95"
         inkscape:connector-curvature="0"
         style="fill:none;stroke:#000000;stroke-width:3;stroke-linecap:butt;stroke-linejoin:bevel;stroke-opacity:1" />
      <path
         d="m 903.38,442.77 -36.633,15.884 37.958,27.973"
         id="path97"
         inkscape:connector-curvature="0"
         style="fill:none;stroke:#000000;stroke-width:3;stroke-linecap:butt;stroke-linejoin:bevel;stroke-opacity:1" />
      <path
         d="m 850.056,406.947 -34.162,14.23 8.617,6.351 27.441,20.222"
         id="path99"
         inkscape:connector-curvature="0"
         style="fill:none;stroke:#000000;stroke-width:3;stroke-linecap:butt;stroke-linejoin:bevel;stroke-opacity:1" />
      <path
         d="m 799.486,372.73 -11.304,4.531 -5.179,2.075 -15.471,6.201 16.707,12.313 8.906,6.562 8.685,6.401"
         id="path101"
         inkscape:connector-curvature="0"
         style="fill:none;stroke:#000000;stroke-width:3;stroke-linecap:butt;stroke-linejoin:bevel;stroke-opacity:1" />
      <path
         d="m 751.452,340.028 -29.97,11.573 32.664,24.071"
         id="path103"
         inkscape:connector-curvature="0"
         style="fill:none;stroke:#000000;stroke-width:3;stroke-linecap:butt;stroke-linejoin:bevel;stroke-opacity:1" />
      <path
         d="m 772.123,449.602 3.307,46.137 1.106,15.441 14.836,-6.489 7.979,-3.49 7.831,-3.426"
         id="path105"
         inkscape:connector-curvature="0"
         style="fill:none;stroke:#000000;stroke-width:3;stroke-linecap:butt;stroke-linejoin:bevel;stroke-opacity:1" />
      <path
         d="m 819.617,486.096 2.629,45.847 0.105,1.821 0.597,10.416 0.244,4.252 32.748,-14.866"
         id="path107"
         inkscape:connector-curvature="0"
         style="fill:none;stroke:#000000;stroke-width:3;stroke-linecap:butt;stroke-linejoin:bevel;stroke-opacity:1" />
      <path
         d="m 869.507,524.43 1.906,45.435 0.74,17.661 35.1,-16.561"
         id="path109"
         inkscape:connector-curvature="0"
         style="fill:none;stroke:#000000;stroke-width:3;stroke-linecap:butt;stroke-linejoin:bevel;stroke-opacity:1" />
      <path
         d="m 961.965,659.236 -0.594,-47.015 -0.219,-17.373 -1.449,-1.113 -0.276,-0.212 -5.546,-4.261 -8.514,-6.542 -1.084,-0.833 -5.159,-3.964 -8.542,-6.564 -7.779,-5.977 -0.825,-0.634 1,39.465 0.137,5.411 0.481,18.976"
         id="path111"
         inkscape:connector-curvature="0"
         style="fill:none;stroke:#000000;stroke-width:3;stroke-linecap:butt;stroke-linejoin:bevel;stroke-opacity:1" />
      <path
         d="m 1008.779,783.405 0.046,-13.86 0.15,-45.367 36.987,-19.708 10.488,-5.588"
         id="path113"
         inkscape:connector-curvature="0"
         style="fill:none;stroke:#000000;stroke-width:3;stroke-linecap:butt;stroke-linejoin:bevel;stroke-opacity:1" />
      <path
         d="m 1195.727,680.441 0.905,-13.545 0.056,-0.838 1.211,-18.145 1.182,-17.692 0.508,-7.608 22.661,-12.075 8.003,-4.264 9.412,-5.015 2.104,-1.121"
         id="path115"
         inkscape:connector-curvature="0"
         style="fill:none;stroke:#000000;stroke-width:3;stroke-linecap:butt;stroke-linejoin:bevel;stroke-opacity:1" />
      <path
         d="m 1009.179,662.426 0.044,-13.484 0.166,-50 0,-0.958 38.575,-19.08 3.3,-1.633 7.631,-3.774"
         id="path117"
         inkscape:connector-curvature="0"
         style="fill:none;stroke:#000000;stroke-width:3;stroke-linecap:butt;stroke-linejoin:bevel;stroke-opacity:1" />
      <path
         d="m 1009.614,530.671 0.043,-12.985 0.02,-5.878 0.034,-10.309 0.136,-41.206 21.163,-9.585 11.925,-5.401 7.217,-3.269 9.916,-4.491 1.498,-0.678"
         id="path119"
         inkscape:connector-curvature="0"
         style="fill:none;stroke:#000000;stroke-width:3;stroke-linecap:butt;stroke-linejoin:bevel;stroke-opacity:1" />
      <path
         d="m 1049.241,499.07 2.762,1.917 6.766,4.698 1.434,0.996"
         id="path121"
         inkscape:connector-curvature="0"
         style="fill:none;stroke:#000000;stroke-width:3;stroke-linecap:butt;stroke-linejoin:bevel;stroke-opacity:1" />
      <path
         d="m 1009.614,530.671 12.741,-6.042 7.955,-3.772 0.833,-0.396 27.594,-13.085 1.466,-0.695 0.535,-27.416 0.636,-32.55 0.192,-9.846"
         id="path123"
         inkscape:connector-curvature="0"
         style="fill:none;stroke:#000000;stroke-width:3;stroke-linecap:butt;stroke-linejoin:bevel;stroke-opacity:1" />
      <path
         d="m 1117.411,467.009 8.469,5.585 2.593,1.71"
         id="path125"
         inkscape:connector-curvature="0"
         style="fill:none;stroke:#000000;stroke-width:3;stroke-linecap:butt;stroke-linejoin:bevel;stroke-opacity:1" />
      <path
         d="m 1080.006,497.289 4.228,-2.005 29.2,-13.848 12.326,-5.845 2.713,-1.287 0.348,-8.485 2.049,-49.958 0.177,-4.306 0.257,-6.272"
         id="path127"
         inkscape:connector-curvature="0"
         style="fill:none;stroke:#000000;stroke-width:3;stroke-linecap:butt;stroke-linejoin:bevel;stroke-opacity:1" />
      <path
         d="m 1147.455,465.303 0.396,-8.459 0.2,-4.245 1.381,-29.438 1.094,-23.322 0.156,-3.333 8.24,-3.732 8.265,-3.743 18.809,-8.519 12.068,-5.466 0.044,-0.02"
         id="path129"
         inkscape:connector-curvature="0"
         style="fill:none;stroke:#000000;stroke-width:3;stroke-linecap:butt;stroke-linejoin:bevel;stroke-opacity:1" />
      <path
         d="m 1182.785,436.264 11.146,6.998"
         id="path131"
         inkscape:connector-curvature="0"
         style="fill:none;stroke:#000000;stroke-width:3;stroke-linecap:butt;stroke-linejoin:bevel;stroke-opacity:1" />
      <path
         d="m 1147.455,465.303 8.072,-3.828 31.176,-14.785 7.228,-3.428 3.055,-49.906 1.09,-17.795 0.032,-0.535"
         id="path133"
         inkscape:connector-curvature="0"
         style="fill:none;stroke:#000000;stroke-width:3;stroke-linecap:butt;stroke-linejoin:bevel;stroke-opacity:1" />
      <path
         d="m 1212.141,434.626 0.358,-5.361 0.48,-7.202 1.4,-20.961 2.111,-31.619 0.192,-2.869 28.617,-12.961 4.455,-2.018 12.405,-5.618"
         id="path135"
         inkscape:connector-curvature="0"
         style="fill:none;stroke:#000000;stroke-width:3;stroke-linecap:butt;stroke-linejoin:bevel;stroke-opacity:1" />
      <path
         d="m 1245.533,406.753 4.919,2.948 6.294,3.772"
         id="path137"
         inkscape:connector-curvature="0"
         style="fill:none;stroke:#000000;stroke-width:3;stroke-linecap:butt;stroke-linejoin:bevel;stroke-opacity:1" />
      <path
         d="m 1212.141,434.626 5.115,-2.425 20.399,-9.674 19.091,-9.054 0.562,-7.009 3.519,-43.848 1.332,-16.599"
         id="path139"
         inkscape:connector-curvature="0"
         style="fill:none;stroke:#000000;stroke-width:3;stroke-linecap:butt;stroke-linejoin:bevel;stroke-opacity:1" />
      <path
         d="m 1274.23,405.181 0.129,-1.505 0.933,-10.918 1.775,-20.768 2.671,-31.251 0.239,-2.793 8.363,-3.787 22.618,-10.245 9.651,-4.371 3.013,-1.364"
         id="path141"
         inkscape:connector-curvature="0"
         style="fill:none;stroke:#000000;stroke-width:3;stroke-linecap:butt;stroke-linejoin:bevel;stroke-opacity:1" />
      <path
         d="m 959.657,610.889 -36.061,17.711 38.369,30.636"
         id="path143"
         inkscape:connector-curvature="0"
         style="fill:none;stroke:#000000;stroke-width:3;stroke-linecap:butt;stroke-linejoin:bevel;stroke-opacity:1" />
      <path
         d="m 1283.007,619.687 10.329,6.995"
         id="path145"
         inkscape:connector-curvature="0"
         style="fill:none;stroke:#000000;stroke-width:3;stroke-linecap:butt;stroke-linejoin:bevel;stroke-opacity:1" />
      <path
         d="m 1253.42,648.666 39.916,-21.984 4.885,-49.761 0.711,-7.241 -2.807,1.495 -8.986,4.788 -17.775,9.471 -3.268,1.742 -7.774,4.142 -1.831,21.413 -1.731,20.262 -0.192,2.237 -1.148,13.436"
         id="path147"
         inkscape:connector-curvature="0"
         style="fill:none;stroke:#000000;stroke-width:3;stroke-linecap:butt;stroke-linejoin:bevel;stroke-opacity:1" />
      <path
         d="m 1195.727,680.441 23.686,-13.046 3.265,-1.798 14.478,-7.974"
         id="path149"
         inkscape:connector-curvature="0"
         style="fill:none;stroke:#000000;stroke-width:3;stroke-linecap:butt;stroke-linejoin:bevel;stroke-opacity:1" />
      <path
         d="m 1182.39,631.777 -0.042,0.022 -4.023,2.144 -7.143,3.806 -2.511,1.338 -5.38,2.866 -9.498,5.061 -3.968,2.114 -11.278,6.01 -2.095,44.65 -0.64,13.652 43.029,-23.699"
         id="path151"
         inkscape:connector-curvature="0"
         style="fill:none;stroke:#000000;stroke-width:3;stroke-linecap:butt;stroke-linejoin:bevel;stroke-opacity:1" />
      <path
         d="m 1120.664,664.666 -10.866,5.79 -34.739,18.51 -1.161,45.012 -0.355,13.757 43.797,-24.121 0.927,-0.511"
         id="path153"
         inkscape:connector-curvature="0"
         style="fill:none;stroke:#000000;stroke-width:3;stroke-linecap:butt;stroke-linejoin:bevel;stroke-opacity:1" />
      <path
         d="m 1008.779,783.405 43.797,-24.122 2.724,-1.5"
         id="path155"
         inkscape:connector-curvature="0"
         style="fill:none;stroke:#000000;stroke-width:3;stroke-linecap:butt;stroke-linejoin:bevel;stroke-opacity:1" />
      <path
         d="m 1045.241,749.642 10.059,8.141 0.976,-49.991 0.174,-8.91"
         id="path157"
         inkscape:connector-curvature="0"
         style="fill:none;stroke:#000000;stroke-width:3;stroke-linecap:butt;stroke-linejoin:bevel;stroke-opacity:1" />
      <path
         d="m 1108.121,715.273 10.146,7.83 2.049,-49.958 0.348,-8.479"
         id="path159"
         inkscape:connector-curvature="0"
         style="fill:none;stroke:#000000;stroke-width:3;stroke-linecap:butt;stroke-linejoin:bevel;stroke-opacity:1" />
      <path
         d="m 1168.622,682.206 10.219,7.535 1.14,-18.626 2.409,-39.338"
         id="path161"
         inkscape:connector-curvature="0"
         style="fill:none;stroke:#000000;stroke-width:3;stroke-linecap:butt;stroke-linejoin:bevel;stroke-opacity:1" />
      <path
         d="m 1310.789,448.907 -2.907,1.437 -9.307,4.604 -21.802,10.784 -2.875,1.421 -5.184,2.564 -2.331,27.275 -1.857,21.733 -0.329,3.847 -0.781,9.142 41.329,-21.249"
         id="path163"
         inkscape:connector-curvature="0"
         style="fill:none;stroke:#000000;stroke-width:3;stroke-linecap:butt;stroke-linejoin:bevel;stroke-opacity:1" />
      <path
         d="m 1251.552,478.206 -8.369,4.14 -3.575,1.768 -19.93,9.858 -11.893,5.882 -1.337,20.034 -1.508,22.579 -0.46,6.884 -0.875,13.114 17.686,-9.093 6.88,-3.538 18.392,-9.456"
         id="path165"
         inkscape:connector-curvature="0"
         style="fill:none;stroke:#000000;stroke-width:3;stroke-linecap:butt;stroke-linejoin:bevel;stroke-opacity:1" />
      <path
         d="m 1189.925,508.688 -0.043,0.021 -0.257,0.127 -11.342,5.611 -2.609,1.29 -6.207,3.07 -9.255,4.578 -15.851,7.84 -0.229,4.898 -1.356,28.885 -0.76,16.203 -0.396,8.452 -0.225,4.786 7.757,-3.988 36.929,-18.987"
         id="path167"
         inkscape:connector-curvature="0"
         style="fill:none;stroke:#000000;stroke-width:3;stroke-linecap:butt;stroke-linejoin:bevel;stroke-opacity:1" />
      <path
         d="m 1125.761,540.425 -2.926,1.447 -8.381,4.146 -11.393,5.635 -8.992,4.448 -4.387,2.169 -10.269,5.08 -1.126,0.557 -0.314,12.173 -0.109,4.214 -0.3,11.616 -0.115,4.45 -0.465,18.021 -0.344,13.361 25.717,-13.222 18.197,-9.356 2.606,-1.34"
         id="path169"
         inkscape:connector-curvature="0"
         style="fill:none;stroke:#000000;stroke-width:3;stroke-linecap:butt;stroke-linejoin:bevel;stroke-opacity:1" />
      <path
         d="m 1009.179,662.426 44.467,-22.862 4.002,-2.058"
         id="path171"
         inkscape:connector-curvature="0"
         style="fill:none;stroke:#000000;stroke-width:3;stroke-linecap:butt;stroke-linejoin:bevel;stroke-opacity:1" />
      <path
         d="m 1305.809,378.406 11.267,6.456"
         id="path173"
         inkscape:connector-curvature="0"
         style="fill:none;stroke:#000000;stroke-width:3;stroke-linecap:butt;stroke-linejoin:bevel;stroke-opacity:1" />
      <path
         d="m 1274.23,405.181 42.846,-20.319 4.885,-49.76 1.661,-16.923"
         id="path175"
         inkscape:connector-curvature="0"
         style="fill:none;stroke:#000000;stroke-width:3;stroke-linecap:butt;stroke-linejoin:bevel;stroke-opacity:1" />
      <path
         d="m 1047.157,629.594 10.491,7.912 0.977,-49.99 0.093,-4.812 0.18,-9.207"
         id="path177"
         inkscape:connector-curvature="0"
         style="fill:none;stroke:#000000;stroke-width:3;stroke-linecap:butt;stroke-linejoin:bevel;stroke-opacity:1" />
      <path
         d="m 1112.576,596.227 8.103,5.817 2.481,1.78 0.369,-8.989 0.842,-20.531 1.39,-33.879"
         id="path179"
         inkscape:connector-curvature="0"
         style="fill:none;stroke:#000000;stroke-width:3;stroke-linecap:butt;stroke-linejoin:bevel;stroke-opacity:1" />
      <path
         d="m 1175.419,564.174 10.662,7.3 0.397,-6.478 3.055,-49.907 0.392,-6.401"
         id="path181"
         inkscape:connector-curvature="0"
         style="fill:none;stroke:#000000;stroke-width:3;stroke-linecap:butt;stroke-linejoin:bevel;stroke-opacity:1" />
      <path
         d="m 1235.837,533.358 10.726,7.02 1.196,-14.899 3.073,-38.304 0.72,-8.969"
         id="path183"
         inkscape:connector-curvature="0"
         style="fill:none;stroke:#000000;stroke-width:3;stroke-linecap:butt;stroke-linejoin:bevel;stroke-opacity:1" />
      <path
         d="m 1293.968,503.708 10.777,6.757 4.885,-49.761 1.159,-11.797"
         id="path185"
         inkscape:connector-curvature="0"
         style="fill:none;stroke:#000000;stroke-width:3;stroke-linecap:butt;stroke-linejoin:bevel;stroke-opacity:1" />
      <path
         d="m 1226.877,650.366 10.279,7.257 1.735,-21.627 2.683,-33.435 0.195,-2.423"
         id="path187"
         inkscape:connector-curvature="0"
         style="fill:none;stroke:#000000;stroke-width:3;stroke-linecap:butt;stroke-linejoin:bevel;stroke-opacity:1" />
      <path
         d="m 1044.949,131.216 0.193,-14.783"
         id="path189"
         inkscape:connector-curvature="0"
         style="fill:none;stroke:#000000;stroke-width:3;stroke-linecap:butt;stroke-linejoin:bevel;stroke-opacity:1" />
      <path
         d="m 1319.375,259.575 -44.326,-23.136 -44.325,-23.137 -44.324,-23.136 -44.325,-23.137 -44.325,-23.136 -44.325,-23.137 -8.283,-4.323 -47.158,16.617 -47.158,16.617 -47.158,16.617 -47.158,16.618 -47.158,16.617 -47.157,16.617 -37.355,13.163"
         id="path191"
         inkscape:connector-curvature="0"
         style="fill:none;stroke:#000000;stroke-width:3;stroke-linecap:butt;stroke-linejoin:bevel;stroke-opacity:1" />
      <path
         d="m 1301.964,267.108 -44.202,-23.371 -44.202,-23.371 -44.201,-23.371 -44.202,-23.371 -44.202,-23.371 -36.006,-19.037 -47.091,16.806 -47.091,16.806 -47.091,16.806 -47.091,16.806 -47.091,16.807 -47.091,16.806 -21.837,7.793"
         id="path193"
         inkscape:connector-curvature="0"
         style="fill:none;stroke:#000000;stroke-width:3;stroke-linecap:butt;stroke-linejoin:bevel;stroke-opacity:1" />
      <path
         d="m 1251.583,788.27 -4.435,49.804 -1.91,21.46"
         id="path195"
         inkscape:connector-curvature="0"
         style="fill:none;stroke:#000000;stroke-width:3;stroke-linecap:butt;stroke-linejoin:bevel;stroke-opacity:1" />
      <path
         d="m 1351.15,261.193 -45.802,20.055 -26.905,11.78 -32.191,14.095 -14.715,6.443 -31.667,13.865 -38.553,16.881 -30.825,13.497 -19.766,8.654 -30.176,13.213 -45.802,20.054 -2.379,1.042 -9.125,3.996 -41.773,18.29 -4.416,-3.006 -8.985,-6.118 -41.331,-28.138 -8.585,-5.844 -9.068,-6.174 -41.331,-28.138 -41.331,-28.138 -14.123,-9.615 -9.171,-6.244 -17.332,-11.799 -9.186,-6.255 -41.331,-28.138 -40.676,-27.692"
         id="path197"
         inkscape:connector-curvature="0"
         style="fill:none;stroke:#000000;stroke-width:3;stroke-linecap:butt;stroke-linejoin:bevel;stroke-opacity:1" />
      <path
         d="m 1287.139,575.963 -1.896,20.062 -0.957,10.131 -1.279,13.531 -28.439,15.543"
         id="path199"
         inkscape:connector-curvature="0"
         style="fill:none;stroke:#000000;stroke-width:3;stroke-linecap:butt;stroke-linejoin:bevel;stroke-opacity:1" />
      <path
         d="m 1230.253,606.274 -2.75,35.917 -0.626,8.175 -6.458,3.529 -8.006,4.376 -15.781,8.625"
         id="path201"
         inkscape:connector-curvature="0"
         style="fill:none;stroke:#000000;stroke-width:3;stroke-linecap:butt;stroke-linejoin:bevel;stroke-opacity:1" />
      <path
         d="m 1171.182,637.749 -0.277,4.813 -1.212,21.052 -1.071,18.592 -32.17,17.582"
         id="path203"
         inkscape:connector-curvature="0"
         style="fill:none;stroke:#000000;stroke-width:3;stroke-linecap:butt;stroke-linejoin:bevel;stroke-opacity:1" />
      <path
         d="m 1109.798,670.456 -1.677,44.817 -34.223,18.705"
         id="path205"
         inkscape:connector-curvature="0"
         style="fill:none;stroke:#000000;stroke-width:3;stroke-linecap:butt;stroke-linejoin:bevel;stroke-opacity:1" />
      <path
         d="m 1045.962,704.47 -0.721,45.172 -36.416,19.903"
         id="path207"
         inkscape:connector-curvature="0"
         style="fill:none;stroke:#000000;stroke-width:3;stroke-linecap:butt;stroke-linejoin:bevel;stroke-opacity:1" />
      <path
         d="m 1298.575,454.948 -2.449,25.921 -0.924,9.776 -1.234,13.063 -29.442,15.017"
         id="path209"
         inkscape:connector-curvature="0"
         style="fill:none;stroke:#000000;stroke-width:3;stroke-linecap:butt;stroke-linejoin:bevel;stroke-opacity:1" />
      <path
         d="m 1239.608,484.114 -3.627,47.366 -0.144,1.878 -6.693,3.413 -18.554,9.464 -6.11,3.116"
         id="path211"
         inkscape:connector-curvature="0"
         style="fill:none;stroke:#000000;stroke-width:3;stroke-linecap:butt;stroke-linejoin:bevel;stroke-opacity:1" />
      <path
         d="m 1178.283,514.447 -0.568,9.862 -0.747,12.964 -1.177,20.436 -0.372,6.465 -25.613,13.064 -7.79,3.973"
         id="path213"
         inkscape:connector-curvature="0"
         style="fill:none;stroke:#000000;stroke-width:3;stroke-linecap:butt;stroke-linejoin:bevel;stroke-opacity:1" />
      <path
         d="m 1114.454,546.018 -1.543,41.239 -0.335,8.97 -20.775,10.597 -14.817,7.557"
         id="path215"
         inkscape:connector-curvature="0"
         style="fill:none;stroke:#000000;stroke-width:3;stroke-linecap:butt;stroke-linejoin:bevel;stroke-opacity:1" />
      <path
         d="m 1047.967,578.904 -0.799,49.993 -0.011,0.697 -37.934,19.348"
         id="path217"
         inkscape:connector-curvature="0"
         style="fill:none;stroke:#000000;stroke-width:3;stroke-linecap:butt;stroke-linejoin:bevel;stroke-opacity:1" />
      <path
         d="m 1310.958,323.914 -3.088,32.685 -0.882,9.33 -1.179,12.477 -30.517,14.352"
         id="path219"
         inkscape:connector-curvature="0"
         style="fill:none;stroke:#000000;stroke-width:3;stroke-linecap:butt;stroke-linejoin:bevel;stroke-opacity:1" />
      <path
         d="m 1249.754,351.635 -0.337,4.395 -3.818,49.854 -0.066,0.869 -32.554,15.31"
         id="path221"
         inkscape:connector-curvature="0"
         style="fill:none;stroke:#000000;stroke-width:3;stroke-linecap:butt;stroke-linejoin:bevel;stroke-opacity:1" />
      <path
         d="m 1185.996,380.512 -0.031,0.536 -1.771,30.751 -0.718,12.469 -0.691,11.996 -2.671,1.256 -32.063,15.079"
         id="path223"
         inkscape:connector-curvature="0"
         style="fill:none;stroke:#000000;stroke-width:3;stroke-linecap:butt;stroke-linejoin:bevel;stroke-opacity:1" />
      <path
         d="m 1119.521,410.62 -1.87,49.965 -0.24,6.424 -11.677,5.492 -25.396,11.944"
         id="path225"
         inkscape:connector-curvature="0"
         style="fill:none;stroke:#000000;stroke-width:3;stroke-linecap:butt;stroke-linejoin:bevel;stroke-opacity:1" />
      <path
         d="m 1050.152,442.038 -0.474,29.686 -0.437,27.346 -17.965,8.449 -8.825,4.15 -12.794,6.017"
         id="path227"
         inkscape:connector-curvature="0"
         style="fill:none;stroke:#000000;stroke-width:3;stroke-linecap:butt;stroke-linejoin:bevel;stroke-opacity:1" />
      <path
         d="m 957.612,456.023 0.222,16.823 0.109,8.243 1.694,1.212 0.093,0.067"
         id="path229"
         inkscape:connector-curvature="0"
         style="fill:none;stroke:#000000;stroke-width:3;stroke-linecap:butt;stroke-linejoin:bevel;stroke-opacity:1" />
      <path
         d="m 959.427,593.523 0.23,17.366 1.714,1.332"
         id="path231"
         inkscape:connector-curvature="0"
         style="fill:none;stroke:#000000;stroke-width:3;stroke-linecap:butt;stroke-linejoin:bevel;stroke-opacity:1" />
      <path
         d="m 961.092,719.574 0.142,10.81 1.648,1.371"
         id="path233"
         inkscape:connector-curvature="0"
         style="fill:none;stroke:#000000;stroke-width:3;stroke-linecap:butt;stroke-linejoin:bevel;stroke-opacity:1" />
      <path
         d="m 962.623,835.546 0.069,5.207 1.585,1.401"
         id="path235"
         inkscape:connector-curvature="0"
         style="fill:none;stroke:#000000;stroke-width:3;stroke-linecap:butt;stroke-linejoin:bevel;stroke-opacity:1" />
    </g>
  </g>
</svg>
