<?xml version="1.0" encoding="UTF-8" standalone="no"?>
<svg
   xmlns:dc="http://purl.org/dc/elements/1.1/"
   xmlns:cc="http://creativecommons.org/ns#"
   xmlns:rdf="http://www.w3.org/1999/02/22-rdf-syntax-ns#"
   xmlns:svg="http://www.w3.org/2000/svg"
   xmlns="http://www.w3.org/2000/svg"
   xmlns:sodipodi="http://sodipodi.sourceforge.net/DTD/sodipodi-0.dtd"
   xmlns:inkscape="http://www.inkscape.org/namespaces/inkscape"
   version="1.1"
   id="Layer_1"
   x="0px"
   y="0px"
   viewBox="0 0 122.88 79.13"
   style="enable-background:new 0 0 122.88 79.13"
   xml:space="preserve"
   sodipodi:docname="cloud.svg"
   inkscape:version="1.0.1 (3bc2e813f5, 2020-09-07)"><metadata
     id="metadata11"><rdf:RDF><cc:Work
         rdf:about=""><dc:format>image/svg+xml</dc:format><dc:type
           rdf:resource="http://purl.org/dc/dcmitype/StillImage" /></cc:Work></rdf:RDF></metadata><defs
     id="defs9" /><sodipodi:namedview
     pagecolor="#ffffff"
     bordercolor="#666666"
     borderopacity="1"
     objecttolerance="10"
     gridtolerance="10"
     guidetolerance="10"
     inkscape:pageopacity="0"
     inkscape:pageshadow="2"
     inkscape:window-width="3440"
     inkscape:window-height="1377"
     id="namedview7"
     showgrid="false"
     inkscape:zoom="8.4798179"
     inkscape:cx="61.439999"
     inkscape:cy="39.564999"
     inkscape:window-x="-8"
     inkscape:window-y="288"
     inkscape:window-maximized="1"
     inkscape:current-layer="Layer_1" /><g
     id="g4"><path
       d="M86.35,29.93c-0.75,0.37-1.51,0.78-2.26,1.21c-2.25,1.32-4.47,2.93-6.74,4.78l-4.84-5.54c1.67-1.55,3.48-2.96,5.4-4.21 c1.53-1,3.13-1.89,4.78-2.65c0.66-0.33,1.32-0.64,2-0.93c-3.19-5.65-7.78-9.7-12.98-12.2c-5.2-2.49-11.02-3.45-16.69-2.9 c-5.63,0.54-11.1,2.59-15.62,6.1c-5.23,4.05-9.2,10.11-10.73,18.14l-0.48,2.51l-2.5,0.44c-2.45,0.43-4.64,1.02-6.56,1.77 c-1.86,0.72-3.52,1.61-4.97,2.66c-1.16,0.84-2.16,1.78-3.01,2.8c-2.63,3.15-3.85,7.1-3.82,11.1c0.03,4.06,1.35,8.16,3.79,11.53 c0.91,1.25,1.96,2.4,3.16,3.4c1.22,1.01,2.59,1.85,4.13,2.48c1.53,0.63,3.22,1.08,5.09,1.34l72.55,0c3.53-0.85,6.65-2,9.3-3.48 c2.63-1.47,4.78-3.26,6.39-5.41c2.5-3.33,3.73-8.04,3.78-12.87c0.06-5.07-1.18-10.16-3.59-13.86c-0.69-1.07-1.45-2.03-2.25-2.89 c-3.61-3.89-8.19-5.59-12.95-5.62C93.3,27.6,89.73,28.43,86.35,29.93L86.35,29.93L86.35,29.93z M91.99,20.65 c1.6-0.25,3.2-0.38,4.79-0.36c6.72,0.05,13.2,2.45,18.3,7.95c1.07,1.15,2.08,2.45,3.03,3.9c3.2,4.92,4.84,11.49,4.77,17.92 c-0.07,6.31-1.77,12.59-5.25,17.21c-2.27,3.01-5.18,5.47-8.67,7.42c-3.36,1.88-7.28,3.31-11.68,4.33l-0.82,0.1l-73.08,0l-0.46-0.04 c-2.67-0.34-5.09-0.97-7.29-1.88c-2.27-0.94-4.28-2.15-6.05-3.63c-1.68-1.4-3.15-2.99-4.4-4.72C1.84,64.25,0.04,58.63,0,53.03 c-0.04-5.66,1.72-11.29,5.52-15.85c1.23-1.48,2.68-2.84,4.34-4.04c1.93-1.4,4.14-2.58,6.64-3.55c1.72-0.67,3.56-1.23,5.5-1.68 c2.2-8.74,6.89-15.47,12.92-20.14c5.64-4.37,12.43-6.92,19.42-7.59c6.96-0.67,14.12,0.51,20.55,3.6 C81.9,7.15,88.02,12.76,91.99,20.65L91.99,20.65L91.99,20.65z"
       id="path2" /></g><path
     style="fill:#ffffff;fill-rule:evenodd;stroke-width:0.117927"
     d="M 22.155444,71.459207 C 17.667402,70.528069 14.482927,68.615141 11.757373,65.21304 9.494934,62.389009 7.9963515,58.831379 7.5426421,55.207284 7.3470749,53.645152 7.4583977,50.581761 7.7618152,49.176054 8.8850192,43.972347 12.03059,39.98612 16.970298,37.506597 c 2.678053,-1.344269 5.598571,-2.234538 9.530249,-2.905132 0.857436,-0.146246 1.604314,-0.296557 1.659729,-0.334025 0.05541,-0.03747 0.272632,-0.943731 0.482703,-2.013919 1.330437,-6.77778 3.760519,-11.681279 7.908578,-15.958194 4.617077,-4.7605 10.565964,-7.6867687 17.576964,-8.6461428 2.010107,-0.2750599 6.008933,-0.2750599 8.01904,0 9.262397,1.2674517 17.038879,6.2065058 21.804196,13.8484348 0.562215,0.901598 0.651601,1.20381 0.356057,1.20381 -0.260563,0 -4.421536,2.160089 -5.738898,2.979238 -2.072719,1.288838 -5.18574,3.658519 -5.942626,4.523624 -0.184146,0.210473 -0.07315,0.358688 2.256649,3.013439 l 2.450321,2.792079 1.281162,-0.996731 c 5.123243,-3.985831 8.894688,-5.90883 13.378708,-6.821583 5.568787,-1.133566 10.31645,-0.319447 14.61293,2.505792 1.46214,0.961458 3.85222,3.392891 4.93765,5.023078 2.45824,3.691988 3.69741,7.85002 3.86946,12.983981 0.14052,4.193248 -0.58487,8.147674 -2.07977,11.337708 -2.4756,5.282781 -7.82353,9.065438 -15.975231,11.299461 l -1.523672,0.417571 -36.154024,-0.0077 -36.154024,-0.0077 z"
     id="path13" /><path
     style="fill:#ffffff;fill-rule:evenodd;stroke-width:0.117927"
     d="M 22.155444,71.459588 C 18.332803,70.66544 15.634584,69.253944 13.148867,66.748058 9.4258111,62.99479 7.4307952,58.160024 7.4307952,52.890756 c 0,-6.829117 3.3838508,-12.29431 9.5189158,-15.373819 2.716554,-1.363581 5.583918,-2.238868 9.550836,-2.915472 0.857436,-0.146246 1.604574,-0.296557 1.660308,-0.334025 0.05573,-0.03747 0.277055,-0.970265 0.491828,-2.072883 1.303417,-6.691622 3.755353,-11.626995 7.898874,-15.89923 4.647592,-4.791962 10.519628,-7.6804283 17.576964,-8.6461428 2.010107,-0.2750599 6.008933,-0.2750599 8.01904,0 8.301149,1.1359159 15.488857,5.2474878 20.217044,11.5647168 1.033945,1.381433 2.239219,3.240861 2.155184,3.324897 -0.02753,0.02753 -1.003826,0.519895 -2.169549,1.094146 -2.268979,1.117733 -3.876627,2.048012 -5.542449,3.207187 -1.17038,0.814417 -3.605194,2.755196 -4.033749,3.215281 -0.262278,0.281576 -0.269154,0.321165 -0.09938,0.572226 0.359034,0.530935 4.570513,5.281622 4.682153,5.281622 0.06268,0 0.623152,-0.398037 1.245502,-0.884525 3.725794,-2.912442 6.884962,-4.794682 9.756518,-5.812956 5.988878,-2.123697 11.517023,-2.021685 16.183505,0.298638 1.83096,0.910412 2.96129,1.741224 4.60588,3.385379 3.33546,3.334606 5.18332,7.190365 6.022,12.565556 0.30187,1.934751 0.30475,6.498455 0.005,8.313857 -0.56385,3.417604 -1.4948,6.008798 -2.96579,8.254895 -2.66811,4.074011 -7.33997,7.098717 -14.086497,9.120021 l -1.835739,0.549998 -36.380498,0.02214 -36.380498,0.02214 z"
     id="path15" /></svg>
