<?xml version="1.0" encoding="UTF-8" standalone="no"?>
<svg
   xmlns:dc="http://purl.org/dc/elements/1.1/"
   xmlns:cc="http://creativecommons.org/ns#"
   xmlns:rdf="http://www.w3.org/1999/02/22-rdf-syntax-ns#"
   xmlns:svg="http://www.w3.org/2000/svg"
   xmlns="http://www.w3.org/2000/svg"
   xmlns:sodipodi="http://sodipodi.sourceforge.net/DTD/sodipodi-0.dtd"
   xmlns:inkscape="http://www.inkscape.org/namespaces/inkscape"
   version="1.1"
   id="Layer_1"
   x="0px"
   y="0px"
   viewBox="0 0 122.88 114.94"
   style="enable-background:new 0 0 122.88 114.94"
   xml:space="preserve"
   sodipodi:docname="brick-wall.svg"
   inkscape:version="1.0.1 (3bc2e813f5, 2020-09-07)"><metadata
     id="metadata13"><rdf:RDF><cc:Work
         rdf:about=""><dc:format>image/svg+xml</dc:format><dc:type
           rdf:resource="http://purl.org/dc/dcmitype/StillImage" /></cc:Work></rdf:RDF></metadata><defs
     id="defs11" /><sodipodi:namedview
     pagecolor="#ffffff"
     bordercolor="#666666"
     borderopacity="1"
     objecttolerance="10"
     gridtolerance="10"
     guidetolerance="10"
     inkscape:pageopacity="0"
     inkscape:pageshadow="2"
     inkscape:window-width="3440"
     inkscape:window-height="1377"
     id="namedview9"
     showgrid="false"
     inkscape:zoom="5.6568543"
     inkscape:cx="81.602749"
     inkscape:cy="30.640194"
     inkscape:window-x="-8"
     inkscape:window-y="288"
     inkscape:window-maximized="1"
     inkscape:current-layer="Layer_1" /><style
     type="text/css"
     id="style2">.st0{fill-rule:evenodd;clip-rule:evenodd;}</style><rect
     style="fill:#000000;fill-rule:evenodd;stroke-width:1.0034"
     id="rect17"
     width="122.87317"
     height="114.95367"
     x="0.0033229112"
     y="-0.0038347065" /><g
     id="g6"
     style="fill:#550000"><path
       class="st0"
       d="M1.71,0h20.82c0.94,0,1.71,0.77,1.71,1.71v21.37c0,0.94-0.77,1.71-1.71,1.71H1.71C0.77,24.78,0,24.02,0,23.08 V1.71C0,0.77,0.77,0,1.71,0L1.71,0z M1.92,90.16h40.76c0.94,0,1.71,0.77,1.71,1.71v21.37c0,0.94-0.77,1.71-1.71,1.71H1.92 c-0.94,0-1.71-0.77-1.71-1.71V91.86C0.22,90.92,0.98,90.16,1.92,90.16L1.92,90.16z M100.51,90.16h20.53c0.94,0,1.71,0.77,1.71,1.71 v21.37c0,0.94-0.77,1.71-1.71,1.71h-20.53c-0.94,0-1.71-0.77-1.71-1.71V91.86C98.8,90.92,99.57,90.16,100.51,90.16L100.51,90.16z M51.34,90.16H92.1c0.94,0,1.71,0.77,1.71,1.71v21.37c0,0.94-0.77,1.71-1.71,1.71H51.34c-0.94,0-1.71-0.77-1.71-1.71V91.86 C49.63,90.92,50.4,90.16,51.34,90.16L51.34,90.16z M80.41,60.1h40.76c0.94,0,1.71,0.77,1.71,1.71v21.37c0,0.94-0.77,1.71-1.71,1.71 H80.41c-0.94,0-1.71-0.77-1.71-1.71V61.81C78.7,60.87,79.47,60.1,80.41,60.1L80.41,60.1z M31.13,60.1h40.76 c0.94,0,1.71,0.77,1.71,1.71v21.37c0,0.94-0.77,1.71-1.71,1.71H31.13c-0.94,0-1.71-0.77-1.71-1.71V61.81 C29.43,60.87,30.19,60.1,31.13,60.1L31.13,60.1z M1.71,60.1h20.82c0.94,0,1.71,0.77,1.71,1.71v21.37c0,0.94-0.77,1.71-1.71,1.71 H1.71C0.77,84.89,0,84.12,0,83.18V61.81C0,60.87,0.77,60.1,1.71,60.1L1.71,60.1z M1.92,30.05h40.76c0.94,0,1.71,0.77,1.71,1.71 v21.37c0,0.94-0.77,1.71-1.71,1.71H1.92c-0.94,0-1.71-0.77-1.71-1.71V31.76C0.22,30.82,0.98,30.05,1.92,30.05L1.92,30.05z M100.51,30.05h20.53c0.94,0,1.71,0.77,1.71,1.71v21.37c0,0.94-0.77,1.71-1.71,1.71h-20.53c-0.94,0-1.71-0.77-1.71-1.71V31.76 C98.8,30.82,99.57,30.05,100.51,30.05L100.51,30.05z M51.34,30.05H92.1c0.94,0,1.71,0.77,1.71,1.71v21.37 c0,0.94-0.77,1.71-1.71,1.71H51.34c-0.94,0-1.71-0.77-1.71-1.71V31.76C49.63,30.82,50.4,30.05,51.34,30.05L51.34,30.05z M80.41,0 h40.76c0.94,0,1.71,0.77,1.71,1.71v21.37c0,0.94-0.77,1.71-1.71,1.71H80.41c-0.94,0-1.71-0.77-1.71-1.71V1.71 C78.7,0.77,79.47,0,80.41,0L80.41,0z M31.13,0h40.76c0.94,0,1.71,0.77,1.71,1.71v21.37c0,0.94-0.77,1.71-1.71,1.71H31.13 c-0.94,0-1.71-0.77-1.71-1.71V1.71C29.43,0.77,30.19,0,31.13,0L31.13,0z"
       id="path4"
       style="fill:#550000" /></g></svg>
