<?xml version="1.0" encoding="UTF-8" standalone="no"?>
<svg
   xmlns:dc="http://purl.org/dc/elements/1.1/"
   xmlns:cc="http://creativecommons.org/ns#"
   xmlns:rdf="http://www.w3.org/1999/02/22-rdf-syntax-ns#"
   xmlns:svg="http://www.w3.org/2000/svg"
   xmlns="http://www.w3.org/2000/svg"
   xmlns:sodipodi="http://sodipodi.sourceforge.net/DTD/sodipodi-0.dtd"
   xmlns:inkscape="http://www.inkscape.org/namespaces/inkscape"
   version="1.1"
   id="Layer_1"
   x="0px"
   y="0px"
   viewBox="0 0 122.88 114.94"
   style="enable-background:new 0 0 122.88 114.94"
   xml:space="preserve"
   sodipodi:docname="firewall-up.svg"
   inkscape:version="1.0.1 (3bc2e813f5, 2020-09-07)"><metadata
     id="metadata13"><rdf:RDF><cc:Work
         rdf:about=""><dc:format>image/svg+xml</dc:format><dc:type
           rdf:resource="http://purl.org/dc/dcmitype/StillImage" /></cc:Work></rdf:RDF></metadata><defs
     id="defs11" /><sodipodi:namedview
     pagecolor="#ffffff"
     bordercolor="#666666"
     borderopacity="1"
     objecttolerance="10"
     gridtolerance="10"
     guidetolerance="10"
     inkscape:pageopacity="0"
     inkscape:pageshadow="2"
     inkscape:window-width="3440"
     inkscape:window-height="1377"
     id="namedview9"
     showgrid="false"
     inkscape:zoom="5.6568543"
     inkscape:cx="81.602749"
     inkscape:cy="30.640194"
     inkscape:window-x="-8"
     inkscape:window-y="288"
     inkscape:window-maximized="1"
     inkscape:current-layer="Layer_1"
     inkscape:document-rotation="0" /><style
     type="text/css"
     id="style2">.st0{fill-rule:evenodd;clip-rule:evenodd;}</style><rect
     style="fill:#000000;fill-rule:evenodd;stroke-width:1.0034"
     id="rect17"
     width="122.87317"
     height="114.95367"
     x="0.0033229112"
     y="-0.0038347065" /><g
     id="g6"
     style="fill:#550000"><path
       class="st0"
       d="M1.71,0h20.82c0.94,0,1.71,0.77,1.71,1.71v21.37c0,0.94-0.77,1.71-1.71,1.71H1.71C0.77,24.78,0,24.02,0,23.08 V1.71C0,0.77,0.77,0,1.71,0L1.71,0z M1.92,90.16h40.76c0.94,0,1.71,0.77,1.71,1.71v21.37c0,0.94-0.77,1.71-1.71,1.71H1.92 c-0.94,0-1.71-0.77-1.71-1.71V91.86C0.22,90.92,0.98,90.16,1.92,90.16L1.92,90.16z M100.51,90.16h20.53c0.94,0,1.71,0.77,1.71,1.71 v21.37c0,0.94-0.77,1.71-1.71,1.71h-20.53c-0.94,0-1.71-0.77-1.71-1.71V91.86C98.8,90.92,99.57,90.16,100.51,90.16L100.51,90.16z M51.34,90.16H92.1c0.94,0,1.71,0.77,1.71,1.71v21.37c0,0.94-0.77,1.71-1.71,1.71H51.34c-0.94,0-1.71-0.77-1.71-1.71V91.86 C49.63,90.92,50.4,90.16,51.34,90.16L51.34,90.16z M80.41,60.1h40.76c0.94,0,1.71,0.77,1.71,1.71v21.37c0,0.94-0.77,1.71-1.71,1.71 H80.41c-0.94,0-1.71-0.77-1.71-1.71V61.81C78.7,60.87,79.47,60.1,80.41,60.1L80.41,60.1z M31.13,60.1h40.76 c0.94,0,1.71,0.77,1.71,1.71v21.37c0,0.94-0.77,1.71-1.71,1.71H31.13c-0.94,0-1.71-0.77-1.71-1.71V61.81 C29.43,60.87,30.19,60.1,31.13,60.1L31.13,60.1z M1.71,60.1h20.82c0.94,0,1.71,0.77,1.71,1.71v21.37c0,0.94-0.77,1.71-1.71,1.71 H1.71C0.77,84.89,0,84.12,0,83.18V61.81C0,60.87,0.77,60.1,1.71,60.1L1.71,60.1z M1.92,30.05h40.76c0.94,0,1.71,0.77,1.71,1.71 v21.37c0,0.94-0.77,1.71-1.71,1.71H1.92c-0.94,0-1.71-0.77-1.71-1.71V31.76C0.22,30.82,0.98,30.05,1.92,30.05L1.92,30.05z M100.51,30.05h20.53c0.94,0,1.71,0.77,1.71,1.71v21.37c0,0.94-0.77,1.71-1.71,1.71h-20.53c-0.94,0-1.71-0.77-1.71-1.71V31.76 C98.8,30.82,99.57,30.05,100.51,30.05L100.51,30.05z M51.34,30.05H92.1c0.94,0,1.71,0.77,1.71,1.71v21.37 c0,0.94-0.77,1.71-1.71,1.71H51.34c-0.94,0-1.71-0.77-1.71-1.71V31.76C49.63,30.82,50.4,30.05,51.34,30.05L51.34,30.05z M80.41,0 h40.76c0.94,0,1.71,0.77,1.71,1.71v21.37c0,0.94-0.77,1.71-1.71,1.71H80.41c-0.94,0-1.71-0.77-1.71-1.71V1.71 C78.7,0.77,79.47,0,80.41,0L80.41,0z M31.13,0h40.76c0.94,0,1.71,0.77,1.71,1.71v21.37c0,0.94-0.77,1.71-1.71,1.71H31.13 c-0.94,0-1.71-0.77-1.71-1.71V1.71C29.43,0.77,30.19,0,31.13,0L31.13,0z"
       id="path4"
       style="fill:#550000" /></g><path
     style="fill:#00ff00;fill-rule:evenodd;stroke-width:0.176777"
     d="M 29.970575,24.173687 29.542013,23.717585 29.493878,12.640938 C 29.458612,4.5257199 29.500716,1.431573 29.65136,1.0678868 30.091854,0.00444006 28.929456,0.05782599 51.643918,0.05782599 h 20.79364 l 0.516731,0.51673187 0.516732,0.51673184 V 12.426632 23.761974 l -0.433907,0.433905 -0.433906,0.433907 H 51.501173 30.399137 Z"
     id="path10" /><path
     style="fill:#00ff00;fill-rule:evenodd;stroke-width:0.176777"
     d="m 79.228185,24.081386 -0.461449,-0.548402 0.04799,-11.290801 0.04799,-11.29080209 0.402658,-0.40258329 0.402658,-0.40258329 h 21.135218 21.13521 l 0.42663,0.49599363 0.42664,0.49599364 V 12.276897 c 0,11.442592 -0.009,11.602147 -0.69179,12.126297 -0.21677,0.166432 -5.06529,0.216626 -21.34539,0.220971 l -21.06491,0.0056 z"
     id="path12" /><path
     style="fill:#00ff00;fill-rule:evenodd;stroke-width:0.176777"
     d="M 99.360771,54.247917 98.926865,53.814012 V 42.478669 31.143328 l 0.516732,-0.516732 0.516732,-0.516732 h 10.810571 10.81058 l 0.51673,0.516732 0.51673,0.516732 v 11.335341 11.335343 l -0.43391,0.433905 -0.4339,0.433907 H 110.7709 99.794678 Z"
     id="path14" /><path
     style="fill:#00ff00;fill-rule:evenodd;stroke-width:0.176777"
     d="M 50.216851,54.247917 49.782944,53.814012 V 42.419594 31.025176 l 0.543893,-0.457656 0.543894,-0.457656 h 20.74938 c 15.13982,0 20.868805,0.05441 21.191122,0.20127 0.993244,0.452554 0.989108,0.402055 0.989108,12.07291 0,11.431134 -0.01596,11.656505 -0.857296,12.106775 -0.249903,0.133744 -6.64286,0.191005 -21.324592,0.191005 H 50.650757 Z"
     id="path16" /><path
     style="fill:#00ff00;fill-rule:evenodd;stroke-width:0.176777"
     d="M 0.73933307,54.133424 0.27788414,53.585022 0.32587118,42.294221 0.37385824,31.003419 0.77651626,30.600836 1.1791743,30.198252 H 22.314384 43.449596 l 0.426634,0.495994 0.426637,0.495994 v 11.138695 c 0,11.442592 -0.0091,11.602147 -0.691788,12.126297 -0.216774,0.166432 -5.065295,0.216626 -21.345391,0.220971 l -21.064906,0.0056 z"
     id="path18" /><path
     style="fill:#00ff00;fill-rule:evenodd;stroke-width:0.176777"
     d="M 0.54219404,24.162032 0.1086932,23.694275 V 12.416239 1.1382016 L 0.53532895,0.64220796 0.96196472,0.14621433 H 12.129508 23.297052 l 0.426635,0.49599363 0.426637,0.49599364 V 12.276897 c 0,11.442592 -0.0091,11.602147 -0.691788,12.126297 -0.213442,0.163876 -2.933906,0.216691 -11.381663,0.220971 l -11.10117812,0.0056 z"
     id="path20" /><path
     style="fill:#00ff00;fill-rule:evenodd;stroke-width:0.176777"
     d="M 0.54219404,84.266108 0.1086932,83.798351 V 72.496859 61.195366 l 0.52063761,-0.520638 0.52063759,-0.520638 11.0736096,0.0481 11.073609,0.0481 0.426569,0.495994 0.426568,0.495993 v 11.138696 c 0,11.442592 -0.0091,11.602147 -0.691788,12.126297 -0.213442,0.163875 -2.933906,0.216691 -11.381663,0.220971 l -11.10117812,0.0056 z"
     id="path22" /><path
     style="fill:#00ff00;fill-rule:evenodd;stroke-width:0.176777"
     d="m 30.038006,84.307295 -0.495993,-0.426569 -0.04814,-11.10618 c -0.03527,-8.137659 0.0068,-11.238861 0.157482,-11.602583 0.440494,-1.063447 -0.721904,-1.010061 21.992558,-1.010061 h 20.79364 l 0.516731,0.516732 0.516732,0.516732 V 72.530707 83.86605 l -0.433907,0.433905 -0.433906,0.433907 H 51.568604 30.534 Z"
     id="path24" /><path
     style="fill:#00ff00;fill-rule:evenodd;stroke-width:0.176777"
     d="m 79.228185,84.185462 -0.461449,-0.548402 0.04799,-11.290801 0.04799,-11.290802 0.402658,-0.402584 0.402658,-0.402583 h 21.135218 21.13521 l 0.42663,0.495994 0.42664,0.495993 v 11.138696 c 0,11.442592 -0.009,11.602147 -0.69179,12.126297 -0.21677,0.166432 -5.06529,0.216626 -21.34539,0.220971 l -21.06491,0.0056 z"
     id="path26" /><path
     style="fill:#00ff00;fill-rule:evenodd;stroke-width:0.176777"
     d="m 99.360771,114.35199 -0.433906,-0.4339 V 102.58275 91.247404 l 0.516732,-0.516732 0.516732,-0.516732 h 10.810571 10.81058 l 0.51673,0.516732 0.51673,0.516732 v 11.335346 11.33534 l -0.43391,0.4339 -0.4339,0.43391 H 110.7709 99.794678 Z"
     id="path28" /><path
     style="fill:#00ff00;fill-rule:evenodd;stroke-width:0.176777"
     d="m 50.216851,114.35199 -0.433907,-0.4339 V 102.52367 91.129252 l 0.543893,-0.457656 0.543894,-0.457656 h 20.843298 20.843298 l 0.577312,0.515853 0.577314,0.515854 v 11.343513 11.34351 l -0.495993,0.42662 -0.495995,0.42661 H 71.685361 50.650757 Z"
     id="path30" /><path
     style="fill:#00ff00;fill-rule:evenodd;stroke-width:0.176777"
     d="m 0.73933307,114.2375 -0.46144893,-0.5484 0.047987,-11.2908 0.0479871,-11.290805 0.40265802,-0.402584 0.40265804,-0.402583 H 22.314384 43.449596 l 0.426634,0.495994 0.426637,0.495993 v 11.138695 c 0,11.44259 -0.0091,11.60215 -0.691788,12.1263 -0.216774,0.16643 -5.065295,0.21662 -21.345391,0.22097 l -21.064906,0.006 z"
     id="path32" /></svg>
