<?xml version="1.0" encoding="UTF-8" standalone="no"?>
<svg
   xmlns:dc="http://purl.org/dc/elements/1.1/"
   xmlns:cc="http://creativecommons.org/ns#"
   xmlns:rdf="http://www.w3.org/1999/02/22-rdf-syntax-ns#"
   xmlns:svg="http://www.w3.org/2000/svg"
   xmlns="http://www.w3.org/2000/svg"
   xmlns:sodipodi="http://sodipodi.sourceforge.net/DTD/sodipodi-0.dtd"
   xmlns:inkscape="http://www.inkscape.org/namespaces/inkscape"
   id="svg2"
   sodipodi:docname="loadbalancer-up.svg"
   version="1.0"
   inkscape:version="1.0.1 (3bc2e813f5, 2020-09-07)"
   viewBox="0 0 500.000000 500.000000">
  <defs
     id="defs10" />
  <sodipodi:namedview
     id="namedview12"
     bordercolor="#666666"
     inkscape:pageshadow="2"
     guidetolerance="10"
     pagecolor="#ffffff"
     gridtolerance="10"
     inkscape:window-maximized="1"
     inkscape:zoom="1.0680141"
     objecttolerance="10"
     borderopacity="1"
     inkscape:current-layer="svg2"
     inkscape:cx="499.50269"
     inkscape:cy="331.09508"
     inkscape:window-y="288"
     inkscape:window-x="-8"
     inkscape:window-width="3440"
     showgrid="false"
     inkscape:pageopacity="0"
     inkscape:window-height="1377"
     inkscape:document-rotation="0" />
  <g
     id="g3774"
     transform="translate(5e-7 2.3067)"
     style="fill:#00ff00">
    <path
       id="path8"
       style="fill:#00ff00"
       inkscape:connector-curvature="0"
       d="m105.8 34.853c-9.2 1.3-16.7 3.8-25.8 8.5-16.6 8.5-27.7 19.9-36 36.9-9.1 18.7-8.5 6.8-8.5 167.5s-0.6 148.8 8.5 167.5c8.3 17 19.3 28.3 36 37 4.7 2.4 12.4 5.4 17 6.7l8.5 2.3h144.5 144.5l8.5-2.3c4.6-1.3 12.3-4.3 17-6.7 16.7-8.7 27.7-20 36-37 9.1-18.7 8.5-6.8 8.5-167.5s0.6-148.8-8.5-167.5c-8.3-17-19.3-28.3-36-36.9-4.7-2.5-12.1-5.5-16.5-6.8l-8-2.3-142-0.1c-78.1-0.1-144.6 0.2-147.7 0.7zm150.7 33.8c2.6 1.2 12.7 10.7 28.6 26.7 21.1 21.3 24.7 25.4 25.3 28.6 2.2 12.2-10 22.9-21 18.3-2.3-0.9-8-5.7-13.6-11.3l-9.8-9.7v33.7 33.6l3.3 0.7c5.6 1.2 19 8.2 25.2 13.2 5.2 4.2 13.4 13.7 16.3 18.9 0.9 1.6 4.1 0.6 30.8-9.1 16.5-5.9 30.6-11.1 31.4-11.5 1-0.6 0.5-1.2-2-2.3-11.6-5-19.8-9.1-21.8-11-8-7.4-6.7-19 2.8-25.5 6.3-4.3 9.8-3.2 44.4 12.9 34.2 15.9 35.5 16.8 36.4 25.8 0.4 4.4-0.5 6.7-13.8 35.2-7.9 16.7-15 31.4-15.8 32.7s-3.3 3.2-5.5 4.4c-8.5 4.3-18.8 0.3-22.2-8.7-2.3-5.8-1.7-8.2 4.7-21.7 2.8-5.9 4.9-11 4.7-11.2s-14.9 4.8-32.5 11.2l-32.1 11.7-0.5 8c-1.7 26.6-21.9 52.2-47.8 60.5l-7 2.3v16.7 16.8l4.3 2.5c5.5 3.3 10.8 9.1 14.4 15.9 2.5 4.8 2.8 6.2 2.8 15.8 0 10-0.1 10.8-3.4 16.8-4.1 7.5-10.3 13.5-17.9 17-4.9 2.3-7 2.7-15.2 2.7-8.5 0-10.1-0.3-15.5-2.9-7.6-3.8-14.3-10.5-18.1-18.1-2.6-5.4-2.9-7-2.9-15.5 0.1-8.4 0.4-10.2 3-15.5 3.1-6.5 10-13.8 15.8-17l3.7-2v-16.5-16.6l-5.7-1.8c-11.1-3.5-21.2-9.5-29.2-17.6-12.4-12.3-19.5-27.4-20.8-44l-0.6-7.5-32.1-11.7c-17.6-6.4-32.3-11.4-32.5-11.2s1.9 5.3 4.7 11.2c6.4 13.5 7 15.9 4.7 21.7-3.6 9.5-14.2 13.2-22.9 8.1-5-2.9-3.8-0.8-24.3-44.6-9.7-20.6-10.5-22.8-10.1-27.2 0.9-8.9 2.2-9.8 36.4-25.7 34.6-16.1 38.1-17.2 44.4-12.9 9.5 6.5 10.8 18.1 2.8 25.5-2 1.9-10.2 6-21.8 11-2.5 1.1-3 1.7-2 2.3 0.8 0.4 15 5.6 31.4 11.6 27.9 10 30 10.6 31 8.9 3.1-5.2 11.5-14.6 17.2-19.2 6.6-5.3 15.6-10.1 23.2-12.4l4.2-1.2v-33-33l-9.9 9.6c-10.3 10-15 12.5-21 11.2-4.2-0.9-8.9-4.2-11.1-7.7-2.4-3.9-2.7-11.6-0.6-15.6 0.8-1.5 12.4-13.6 25.8-26.9 27.9-27.7 29.8-28.8 39.3-24.4z" />
    <path
       id="path10"
       style="fill:#00ff00"
       inkscape:connector-curvature="0"
       d="m242.77 215.85c-11.1 1.9-21.7 9-27.8 18.6-7.3 11.5-8.3 27.6-2.4 39.5 12.7 25.9 46.8 31.6 66.9 11.2 15.4-15.8 15.8-40.3 0.7-56.5-10-10.6-23.3-15.2-37.4-12.8z" />
    <path
       id="path3004"
       sodipodi:rx="40.729801"
       sodipodi:ry="40.729801"
       style="color:#000000;fill:#00ff00"
       sodipodi:type="arc"
       d="m389.51 499.07c0 22.494-18.235 40.73-40.73 40.73-22.494 0-40.73-18.235-40.73-40.73 0-22.494 18.235-40.73 40.73-40.73 22.494 0 40.73 18.235 40.73 40.73z"
       transform="matrix(1.0207 0 0 1.0207 -105.99 -113.13)"
       sodipodi:cy="499.06534"
       sodipodi:cx="348.77817" />
  </g>
  <metadata
     id="metadata7">
    <rdf:RDF>
      <cc:Work>
        <dc:format>image/svg+xml</dc:format>
        <dc:type
           rdf:resource="http://purl.org/dc/dcmitype/StillImage" />
        <cc:license
           rdf:resource="http://creativecommons.org/licenses/publicdomain/" />
        <dc:publisher>
          <cc:Agent
             rdf:about="http://openclipart.org/">
            <dc:title>Openclipart</dc:title>
          </cc:Agent>
        </dc:publisher>
      </cc:Work>
      <cc:License
         rdf:about="http://creativecommons.org/licenses/publicdomain/">
        <cc:permits
           rdf:resource="http://creativecommons.org/ns#Reproduction" />
        <cc:permits
           rdf:resource="http://creativecommons.org/ns#Distribution" />
        <cc:permits
           rdf:resource="http://creativecommons.org/ns#DerivativeWorks" />
      </cc:License>
    </rdf:RDF>
  </metadata>
</svg>
