<?xml version="1.0" encoding="UTF-8" standalone="no"?>
<svg
   xmlns:dc="http://purl.org/dc/elements/1.1/"
   xmlns:cc="http://creativecommons.org/ns#"
   xmlns:rdf="http://www.w3.org/1999/02/22-rdf-syntax-ns#"
   xmlns:svg="http://www.w3.org/2000/svg"
   xmlns="http://www.w3.org/2000/svg"
   xmlns:sodipodi="http://sodipodi.sourceforge.net/DTD/sodipodi-0.dtd"
   xmlns:inkscape="http://www.inkscape.org/namespaces/inkscape"
   id="svg7146"
   sodipodi:docname="router-down.svg"
   viewBox="0 0 128.78 84.75"
   version="1.1"
   inkscape:version="1.0.1 (3bc2e813f5, 2020-09-07)">
  <defs
     id="defs13" />
  <sodipodi:namedview
     id="base"
     bordercolor="#666666"
     inkscape:pageshadow="2"
     inkscape:window-y="288"
     fit-margin-left="0"
     pagecolor="#ffffff"
     fit-margin-top="0"
     inkscape:window-maximized="1"
     inkscape:zoom="7.9195959"
     inkscape:window-x="-8"
     inkscape:window-height="1377"
     showgrid="false"
     borderopacity="1.0"
     inkscape:current-layer="layer1"
     inkscape:cx="62.970612"
     inkscape:cy="38.687209"
     fit-margin-right="0"
     fit-margin-bottom="0"
     inkscape:window-width="3440"
     inkscape:pageopacity="0.0"
     inkscape:document-units="px"
     inkscape:document-rotation="0" />
  <g
     id="layer1"
     inkscape:label="Calque 1"
     inkscape:groupmode="layer"
     transform="translate(-641.31 -627.12)">
    <path
       id="path1212"
       d="m643.39 655.28 124.68 0.46875 0.1225 29.272-0.0925 1.5138-0.55675 2.08-1.045 2.3975-1.6405 2.1092-2.7344 2.6367-3.5449 2.5293-4.458 2.3828-5.4199 2.2802-7.1924 2.3828-6.8896 1.7188-12.183 1.919-9.5508 0.86925-5.9766 0.1525-12.056-0.40525-12.539-1.4258-8.5107-1.9238-4.9414-1.2598-4.7607-1.4698-4.9121-2.08-4.0039-1.9728-4.6582-2.9394-2.8858-2.583-1.5235-1.8212-1.6162-2.6367-0.8155-1.87-0.49325-2.583z"
       style="fill-rule:evenodd;stroke:#7d7d7d;stroke-miterlimit:10;stroke-width:3.75;fill:#bdbdbd"
       inkscape:connector-curvature="0" />
    <path
       id="path1214"
       d="m768.23 654.01c0 13.809-27.983 25-62.5 25s-62.5-11.191-62.5-25c0-13.804 27.983-25 62.5-25s62.5 11.196 62.5 25"
       style="fill-rule:evenodd;stroke:#7d7d7d;stroke-miterlimit:10;stroke-width:3.75;fill:#bdbdbd"
       inkscape:connector-curvature="0" />
    <path
       id="path1216"
       d="m664.04 639.99 8.6182-3.2031 22.207 8.9502 9.3896-3.3154-4.1992 8.2862-24.194-0.1125 6.7383-2.539z"
       style="fill-rule:evenodd;stroke:#7d7d7d;stroke-miterlimit:10;stroke-width:1.25;fill:#ffffff"
       inkscape:connector-curvature="0" />
    <path
       id="path1218"
       d="m716.96 660.42-10.718 3.0908 4.1992-9.0576 26.626 0.332-10.054 3.0908 19.443 8.3984-8.2861 3.3154z"
       style="fill-rule:evenodd;stroke:#7d7d7d;stroke-miterlimit:10;stroke-width:1.25;fill:#ffffff"
       inkscape:connector-curvature="0" />
    <path
       id="path1220"
       d="m707.02 648.6 19.551-8.3984-10.273-2.9834 26.738-0.22 4.9707 8.5058-9.0625-2.7588-22.754 9.2773z"
       style="fill-rule:evenodd;stroke:#7d7d7d;stroke-miterlimit:10;stroke-width:1.25;fill:#ffffff"
       inkscape:connector-curvature="0" />
    <path
       id="path1222"
       d="m683.93 666.06 7.3975 2.7588-24.414-0.22-5.5224-9.0576 10.161 3.5352 22.432-9.502 9.0576 3.6475z"
       style="fill-rule:evenodd;stroke:#7d7d7d;stroke-miterlimit:10;stroke-width:1.25;fill:#ffffff"
       inkscape:connector-curvature="0" />
    <path
       style="fill:#ffffff;fill-rule:evenodd;stroke-width:0.126269"
       d="m 31.525777,40.865406 -5.496541,-0.03424 -2.123384,-3.479923 c -1.167861,-1.913958 -2.103092,-3.500215 -2.078291,-3.525016 0.0248,-0.0248 1.934857,0.611858 4.24457,1.414799 l 4.199476,1.459893 11.215714,-4.748235 11.215714,-4.748234 3.635932,1.472914 c 3.547908,1.437256 3.627104,1.477044 3.27132,1.643459 -0.200537,0.0938 -4.44778,2.057223 -9.438318,4.363165 -4.990538,2.305942 -9.081656,4.243433 -9.091372,4.305536 -0.0097,0.0621 1.090343,0.527718 2.444579,1.0347 l 2.462247,0.921785 -4.482552,-0.02319 c -2.465404,-0.01275 -6.955995,-0.03859 -9.979094,-0.05742 z"
       id="path15"
       transform="translate(641.31,627.12)" />
    <path
       style="fill:#ffffff;fill-rule:evenodd;stroke-width:0.126269"
       d="m 41.892057,22.780469 -3.337752,-0.0663 2.138196,-0.801736 c 1.176007,-0.440955 2.181937,-0.84267 2.235401,-0.892701 0.05346,-0.05003 -4.021889,-1.876861 -9.056338,-4.059623 -5.034448,-2.182762 -9.154406,-3.997069 -9.155462,-4.031793 -0.0011,-0.03472 1.491179,-0.614897 3.316078,-1.289273 l 3.317998,-1.226139 11.095575,4.474771 11.095576,4.474771 3.916565,-1.384536 c 2.15411,-0.761495 3.940591,-1.360509 3.969958,-1.331143 0.02937,0.02937 -0.666052,1.449161 -1.545375,3.1551 l -1.598767,3.101705 -6.526951,-0.0284 c -3.589822,-0.01562 -8.028939,-0.05824 -9.864702,-0.0947 z"
       id="path17"
       transform="translate(641.31,627.12)" />
    <path
       style="fill:#ffffff;fill-rule:evenodd;stroke-width:0.126269"
       d="m 71.21183,22.801284 -3.56494,-1.346536 0.408213,-0.204028 c 0.224518,-0.112215 4.62699,-2.01322 9.783271,-4.224455 5.156281,-2.211235 9.31772,-4.055865 9.24764,-4.099176 -0.07008,-0.04331 -1.687495,-0.529527 -3.594257,-1.080479 l -3.466839,-1.001731 1.921612,-0.08424 c 1.056887,-0.04633 5.851829,-0.105038 10.655426,-0.130457 l 8.733814,-0.04622 1.90894,3.27208 c 1.04991,1.799643 1.89267,3.283551 1.87279,3.297574 -0.0199,0.01402 -1.65555,-0.473394 -3.63482,-1.083146 -1.979269,-0.609752 -3.694394,-1.111612 -3.811389,-1.115245 -0.116996,-0.0036 -5.300592,2.067365 -11.519102,4.602217 -6.21851,2.534851 -11.321916,4.60467 -11.340901,4.599598 -0.01899,-0.0051 -1.638741,-0.615164 -3.599458,-1.355759 z"
       id="path19"
       transform="translate(641.31,627.12)" />
    <path
       style="fill:#ffffff;fill-rule:evenodd;stroke-width:0.126269"
       d="M 86.33039,37.164303 C 80.600931,34.674334 75.814091,32.634658 75.692967,32.63169 c -0.121123,-0.003 -2.278379,0.588434 -4.793903,1.314228 -2.515523,0.725793 -4.589614,1.303688 -4.609091,1.284212 -0.01948,-0.01948 0.701111,-1.621882 1.601305,-3.5609 l 1.636716,-3.525488 9.695456,0.04483 c 5.332501,0.02465 10.17375,0.08148 10.758332,0.126269 l 1.062876,0.08144 -3.461988,1.056353 c -1.904094,0.580995 -3.536212,1.096432 -3.626929,1.145417 -0.09656,0.05214 3.887831,1.838931 9.611131,4.310082 l 9.776068,4.221019 -3.23216,1.294258 c -1.777692,0.711841 -3.261646,1.288375 -3.297678,1.281184 -0.03603,-0.0072 -4.753253,-2.050321 -10.482712,-4.54029 z"
       id="path21"
       transform="translate(641.31,627.12)" />
    <path
       style="fill:#00ff00;fill-rule:evenodd;stroke-width:0.126269"
       d="M 58.551195,49.849339 C 51.279204,49.464885 47.597394,49.11341 42.199351,48.288348 25.110173,45.676358 11.36341,39.841967 6.1914714,33.005909 1.7957299,27.195797 3.7608978,21.114196 11.768505,15.746677 20.647195,9.7952686 35.486105,5.6314511 52.616549,4.2846626 60.487198,3.6658753 69.834435,3.7134043 77.744093,4.4124317 102.1587,6.570107 121.21216,14.608341 124.49625,24.136133 c 1.22961,3.567351 0.0478,7.179496 -3.50079,10.699869 -2.33826,2.319674 -5.02717,4.129544 -9.09558,6.122129 -9.58517,4.694519 -22.310537,7.60999 -38.070128,8.722135 -1.862431,0.13143 -13.545192,0.260713 -15.278557,0.169073 z m 43.403385,-8.67256 c 2.6555,-1.056747 4.82891,-1.954973 4.82979,-1.996056 8.9e-4,-0.04109 -4.25871,-1.914597 -9.465777,-4.163361 -5.207062,-2.248764 -9.426027,-4.127189 -9.375478,-4.174277 0.05055,-0.04709 2.620445,-0.858685 5.710881,-1.80355 3.090435,-0.944865 5.732616,-1.767031 5.871512,-1.827034 0.43955,-0.189886 -2.380297,-0.258757 -16.85109,-0.411567 -11.934133,-0.126022 -13.962277,-0.121757 -14.053447,0.02955 -0.261378,0.433804 -4.891339,10.511255 -4.848806,10.553787 0.04213,0.04213 2.371285,-0.615448 9.712254,-2.742013 l 2.116913,-0.613238 5.269827,2.27903 c 2.898406,1.253465 7.372207,3.18694 9.941783,4.29661 2.569575,1.10967 4.956061,2.150207 5.303301,2.312304 0.34724,0.162095 0.716577,0.269171 0.820749,0.237945 0.104172,-0.03123 2.362086,-0.921387 5.017588,-1.978135 z m -48.330892,1.2038 c -0.0017,-0.05209 -2.071629,-0.861048 -4.599939,-1.797693 -2.528311,-0.936645 -4.586719,-1.711288 -4.574242,-1.721428 0.01248,-0.01014 4.227447,-1.961018 9.366598,-4.335282 5.139151,-2.374264 9.389188,-4.360947 9.444528,-4.41485 0.112302,-0.109387 -10.329583,-4.36426 -10.637974,-4.334776 -0.107533,0.01028 -0.650083,0.213583 -1.205666,0.451781 -6.709509,2.876604 -21.080323,8.923344 -21.207413,8.923344 -0.09097,0 -2.706814,-0.884024 -5.812989,-1.964497 -3.106175,-1.080473 -5.676344,-1.935744 -5.711484,-1.900602 -0.03514,0.03514 1.417374,2.495949 3.227811,5.468464 l 3.291706,5.404568 14.053202,0.134782 c 7.729261,0.07413 14.124229,0.145157 14.211039,0.157837 0.08681,0.01268 0.15648,-0.01956 0.154823,-0.07165 z m 33.679334,-21.791804 10.379677,-4.230236 5.142451,1.566328 c 2.82835,0.861481 5.16849,1.540292 5.20031,1.508471 0.0318,-0.03182 -1.27995,-2.34658 -2.91506,-5.143907 l -2.97292,-5.0860497 h -0.73778 c -7.129075,0 -30.717971,0.2477271 -30.641449,0.321792 0.0573,0.055459 2.803179,0.8797137 6.101959,1.8316777 3.298779,0.951964 6.06291,1.76601 6.142513,1.808992 0.0796,0.04298 -4.166242,1.924834 -9.43521,4.181893 -5.268968,2.25706 -9.580782,4.132156 -9.581808,4.16688 -0.001,0.03472 2.450837,0.977956 5.448586,2.096072 l 5.450452,2.032937 1.019301,-0.412306 c 0.560615,-0.226769 5.690155,-2.315914 11.398978,-4.642544 z M 61.718894,19.258037 c 1.389242,-2.734249 2.49686,-5.000397 2.461375,-5.035883 -0.03549,-0.03549 -2.437757,0.77327 -5.33838,1.797236 l -5.273857,1.861755 -1.706865,-0.69285 C 47.768987,15.527197 31.579705,9.0228992 31.452076,8.9886227 31.282333,8.9430361 21.056158,12.706197 21.052116,12.815735 c -0.0016,0.04225 3.960436,1.797584 8.804433,3.900739 4.843997,2.103156 8.973266,3.907562 9.176154,4.009793 0.364899,0.183867 0.328052,0.201279 -3.409265,1.61117 -2.077983,0.783912 -3.948614,1.501884 -4.156958,1.595495 -0.323455,0.145329 0.977344,0.179713 8.901969,0.2353 5.104427,0.0358 11.428126,0.06422 14.052664,0.06313 L 59.193,24.2294 Z"
       id="path23"
       transform="translate(641.31,627.12)" />
    <path
       style="fill:#00ff00;fill-rule:evenodd;stroke-width:0.126269"
       d="M 59.245675,80.723496 C 53.430855,80.512291 52.941227,80.474933 47.186979,79.80344 41.263357,79.112182 41.134555,79.091064 36.769781,78.095533 28.52447,76.214914 24.89085,75.161674 21.053087,73.5399 14.405367,70.730685 9.5033548,67.613649 7.0495643,64.635502 6.1705365,63.568632 5.0194099,61.723001 4.5760849,60.669708 3.8775629,59.010094 3.8713437,58.901017 3.8995847,48.804659 c 0.014302,-5.113186 0.046795,-9.960966 0.072206,-10.772845 l 0.046202,-1.476144 0.9979061,0.997906 C 17.170095,49.707772 49.61902,56.297583 80.837685,52.951659 100.28878,50.866948 116.33067,45.11564 123.84119,37.534126 l 1.00127,-1.010729 0.0311,5.65916 c 0.0786,14.266318 0.0496,16.834568 -0.19957,17.717855 -0.68995,2.445573 -1.67064,3.957104 -3.97737,6.130324 -3.72833,3.512538 -8.95126,6.258042 -17.19369,9.038088 -5.67465,1.913974 -9.008002,2.707938 -16.162437,3.8497 -4.528086,0.722627 -6.940475,1.038044 -10.543468,1.378546 -4.264207,0.402992 -5.651984,0.486888 -10.038391,0.606856 -0.798651,0.02184 -4.179506,-0.05935 -7.513009,-0.18043 z"
       id="path25"
       transform="translate(641.31,627.12)" />
    <path
       style="fill:#ff0000;fill-rule:evenodd;stroke-width:0.126269"
       d="M 60.760903,80.724087 C 54.219643,80.50329 51.973551,80.324726 44.914135,79.464283 41.402941,79.036317 39.614615,78.696113 34.244399,77.434512 26.103489,75.522003 22.130726,74.161421 16.756133,71.44517 11.346552,68.711236 8.1725557,66.257444 6.170706,63.261659 5.1416786,61.72171 4.6462487,60.796282 4.303658,59.774143 4.0858565,59.124321 4.0684058,58.373808 4.0322777,48.102722 c -0.021236,-6.037318 -0.00649,-11.060655 0.032775,-11.16297 0.05109,-0.133139 0.4024307,0.136091 1.2357684,0.946961 4.2318071,4.117712 10.6425779,7.545065 19.4102629,10.377194 14.418976,4.657605 33.588647,6.552686 51.896587,5.13041 17.001334,-1.320771 32.004709,-5.420026 41.541379,-11.350028 2.11175,-1.313104 3.74012,-2.565347 5.33958,-4.106207 l 1.36744,-1.317339 -0.0417,11.418864 -0.0417,11.418864 -0.29531,0.883883 c -0.66937,2.003485 -1.54524,3.336862 -3.37708,5.1411 -2.35127,2.31585 -4.62367,3.886057 -8.25346,5.703062 -3.79923,1.90183 -9.75779,4.112058 -14.836611,5.503397 -4.962802,1.359554 -14.374344,2.904665 -21.907684,3.596624 -5.965798,0.547978 -9.274569,0.642345 -15.341692,0.43755 z"
       id="path20"
       transform="translate(641.31,627.12)" />
    <path
       style="fill:#ff0000;fill-rule:evenodd;stroke-width:0.126269"
       d="M 57.162235,49.715278 C 56.849719,49.693558 55.656476,49.616318 54.510584,49.543634 33.578931,48.215929 15.526026,42.464238 7.7910289,34.658692 5.2021555,32.046206 4.0029568,29.58402 4.0029568,26.881051 c 0,-1.46278 0.2592506,-2.494613 1.0152131,-4.04061 C 8.0270355,16.687098 18.142898,11.004847 32.206576,7.5682524 39.087554,5.8868199 45.193383,4.9464514 53.626701,4.269305 57.022652,3.9966299 67.408873,3.8861373 71.497499,4.0791886 82.06693,4.5782418 91.56959,6.0409083 100.09372,8.4807694 c 1.92999,0.5524224 2.03694,0.5981952 1.45209,0.6214923 -0.34724,0.013832 -7.364641,0.09012 -15.594227,0.1695283 -8.229587,0.079408 -15.037995,0.1862771 -15.129795,0.2374862 -0.09582,0.05345 2.39133,0.8417538 5.839317,1.8507768 3.303425,0.966718 6.006509,1.793775 6.006854,1.837904 8.84e-4,0.112606 -2.127677,1.060479 -10.605974,4.722969 -8.652152,3.737593 -8.08122,3.483144 -8.08122,3.601605 0,0.05151 0.156258,0.151538 0.347239,0.222291 0.190982,0.07075 2.619276,0.985449 5.396206,2.032658 2.776931,1.047207 5.096817,1.904015 5.155304,1.904015 0.05849,0 5.212398,-2.080052 11.453138,-4.622337 l 11.346803,-4.622336 5.129015,1.54225 c 2.82095,0.848236 5.15785,1.51341 5.19309,1.478165 0.10307,-0.103069 -0.40688,-1.032851 -3.16157,-5.764351 -1.43047,-2.457012 -2.58075,-4.4874074 -2.55617,-4.5119889 0.0815,-0.081502 3.14248,0.9782819 5.43262,1.8809019 8.35489,3.292948 14.24956,7.678185 16.30358,12.128757 0.68789,1.490485 0.85665,2.342799 0.79325,4.006168 -0.0434,1.139299 -0.12565,1.650821 -0.38171,2.374649 -1.14567,3.23864 -4.39003,6.642387 -8.93302,9.371872 -1.48268,0.890815 -5.79594,2.997303 -7.71298,3.766823 -2.98296,1.197391 -7.2081,2.549087 -10.722299,3.430247 -7.388011,1.852494 -17.488168,3.258692 -25.380083,3.533553 -3.057998,0.106505 -13.169389,0.135339 -14.520943,0.04141 z m 43.107415,-7.801724 c 4.70526,-1.854842 6.51633,-2.60848 6.51633,-2.711641 0,-0.130134 -0.24934,-0.242921 -8.396894,-3.798225 -8.998572,-3.926659 -10.16466,-4.44732 -10.16466,-4.538551 0,-0.0389 2.556948,-0.862625 5.682108,-1.830504 3.125159,-0.967879 5.682108,-1.800921 5.682108,-1.851205 0,-0.180527 -1.962359,-0.249555 -10.480333,-0.368652 -12.582757,-0.175932 -20.39361,-0.162738 -20.548424,0.03471 -0.133056,0.169694 -1.880387,3.910634 -3.719848,7.963989 -0.624704,1.376568 -1.100234,2.538442 -1.056736,2.581942 0.0435,0.0435 2.717389,-0.677719 5.941976,-1.602706 3.224587,-0.924988 5.936017,-1.653291 6.0254,-1.618452 0.277494,0.108159 16.715309,7.226116 18.850337,8.162636 1.111168,0.487407 2.088142,0.888402 2.171054,0.891099 0.08291,0.0027 1.656825,-0.5888 3.497582,-1.314438 z m -46.642949,0.451029 c 0,-0.107586 -1.312802,-0.625625 -6.469528,-2.552909 l -2.492052,-0.931384 0.408612,-0.209188 c 0.224737,-0.115054 3.903109,-1.830012 8.174161,-3.811021 10.893619,-5.052703 10.148387,-4.689647 9.953665,-4.849134 -0.450571,-0.369037 -10.13,-4.246738 -10.585011,-4.240489 -0.17362,0.0024 -3.156726,1.210564 -6.629126,2.684841 -10.226006,4.341661 -15.597312,6.570107 -15.836171,6.570107 -0.123038,0 -1.013867,-0.276649 -1.979619,-0.614775 -4.668856,-1.634643 -9.40894,-3.201642 -9.477474,-3.133107 -0.09402,0.09402 0.641569,1.363422 3.909572,6.746772 l 2.5487,4.198447 2.715083,0.01797 c 1.493296,0.0099 5.868653,0.05558 9.723016,0.101552 11.27382,0.134456 16.036172,0.141083 16.036172,0.02232 z m 8.137452,-23.057072 c 1.384045,-2.741764 2.47866,-5.022811 2.432477,-5.068994 -0.102252,-0.102253 -1.235256,0.267196 -6.465151,2.108156 -2.221768,0.782079 -4.096864,1.419787 -4.16688,1.417129 -0.07002,-0.0027 -5.013915,-1.978095 -10.986442,-4.389864 C 36.60563,10.96217 31.573776,8.9904327 31.39626,8.9922999 30.885614,8.9976716 21.049281,12.619972 21.049281,12.80265 c 0,0.120578 1.341869,0.725256 10.038391,4.523537 3.819639,1.668261 7.200159,3.148179 7.512265,3.288706 l 0.567467,0.255507 -0.504333,0.213104 c -0.277381,0.117207 -1.981679,0.776537 -3.787327,1.465177 -2.933759,1.118882 -3.654725,1.434205 -3.466086,1.515935 0.152607,0.06612 10.398187,0.176608 18.619391,0.200797 l 9.218658,0.02712 z"
       id="path22"
       transform="translate(641.31,627.12)" />
  </g>
  <metadata
     id="metadata10">
    <rdf:RDF>
      <cc:Work>
        <dc:format>image/svg+xml</dc:format>
        <dc:type
           rdf:resource="http://purl.org/dc/dcmitype/StillImage" />
        <cc:license
           rdf:resource="http://creativecommons.org/licenses/publicdomain/" />
        <dc:publisher>
          <cc:Agent
             rdf:about="http://openclipart.org/">
            <dc:title>Openclipart</dc:title>
          </cc:Agent>
        </dc:publisher>
        <dc:title>Router symbol</dc:title>
        <dc:date>2012-08-02T14:23:28</dc:date>
        <dc:description />
        <dc:source>https://openclipart.org/detail/171415/router-symbol-by-cyberscooty-171415</dc:source>
        <dc:creator>
          <cc:Agent>
            <dc:title>cyberscooty</dc:title>
          </cc:Agent>
        </dc:creator>
        <dc:subject>
          <rdf:Bag>
            <rdf:li>computer</rdf:li>
            <rdf:li>icon</rdf:li>
            <rdf:li>informatique</rdf:li>
            <rdf:li>it</rdf:li>
            <rdf:li>network</rdf:li>
            <rdf:li>ordinateur</rdf:li>
            <rdf:li>router</rdf:li>
            <rdf:li>réseau</rdf:li>
            <rdf:li>server</rdf:li>
            <rdf:li>serveur</rdf:li>
            <rdf:li>symbol</rdf:li>
          </rdf:Bag>
        </dc:subject>
      </cc:Work>
      <cc:License
         rdf:about="http://creativecommons.org/licenses/publicdomain/">
        <cc:permits
           rdf:resource="http://creativecommons.org/ns#Reproduction" />
        <cc:permits
           rdf:resource="http://creativecommons.org/ns#Distribution" />
        <cc:permits
           rdf:resource="http://creativecommons.org/ns#DerivativeWorks" />
      </cc:License>
    </rdf:RDF>
  </metadata>
</svg>
