<?xml version="1.0" encoding="UTF-8" standalone="no"?>
<svg
   xmlns:dc="http://purl.org/dc/elements/1.1/"
   xmlns:cc="http://creativecommons.org/ns#"
   xmlns:rdf="http://www.w3.org/1999/02/22-rdf-syntax-ns#"
   xmlns:svg="http://www.w3.org/2000/svg"
   xmlns="http://www.w3.org/2000/svg"
   xmlns:sodipodi="http://sodipodi.sourceforge.net/DTD/sodipodi-0.dtd"
   xmlns:inkscape="http://www.inkscape.org/namespaces/inkscape"
   id="svg7146"
   sodipodi:docname="router-up.svg"
   viewBox="0 0 128.78 84.75"
   version="1.1"
   inkscape:version="1.0.1 (3bc2e813f5, 2020-09-07)">
  <defs
     id="defs13" />
  <sodipodi:namedview
     id="base"
     bordercolor="#666666"
     inkscape:pageshadow="2"
     inkscape:window-y="288"
     fit-margin-left="0"
     pagecolor="#ffffff"
     fit-margin-top="0"
     inkscape:window-maximized="1"
     inkscape:zoom="5.6"
     inkscape:window-x="-8"
     inkscape:window-height="1377"
     showgrid="false"
     borderopacity="1.0"
     inkscape:current-layer="layer1"
     inkscape:cx="70.192384"
     inkscape:cy="52.345041"
     fit-margin-right="0"
     fit-margin-bottom="0"
     inkscape:window-width="3440"
     inkscape:pageopacity="0.0"
     inkscape:document-units="px"
     inkscape:document-rotation="0" />
  <g
     id="layer1"
     inkscape:label="Calque 1"
     inkscape:groupmode="layer"
     transform="translate(-641.31 -627.12)">
    <path
       id="path1212"
       d="m643.39 655.28 124.68 0.46875 0.1225 29.272-0.0925 1.5138-0.55675 2.08-1.045 2.3975-1.6405 2.1092-2.7344 2.6367-3.5449 2.5293-4.458 2.3828-5.4199 2.2802-7.1924 2.3828-6.8896 1.7188-12.183 1.919-9.5508 0.86925-5.9766 0.1525-12.056-0.40525-12.539-1.4258-8.5107-1.9238-4.9414-1.2598-4.7607-1.4698-4.9121-2.08-4.0039-1.9728-4.6582-2.9394-2.8858-2.583-1.5235-1.8212-1.6162-2.6367-0.8155-1.87-0.49325-2.583z"
       style="fill-rule:evenodd;stroke:#7d7d7d;stroke-miterlimit:10;stroke-width:3.75;fill:#bdbdbd"
       inkscape:connector-curvature="0" />
    <path
       id="path1214"
       d="m768.23 654.01c0 13.809-27.983 25-62.5 25s-62.5-11.191-62.5-25c0-13.804 27.983-25 62.5-25s62.5 11.196 62.5 25"
       style="fill-rule:evenodd;stroke:#7d7d7d;stroke-miterlimit:10;stroke-width:3.75;fill:#bdbdbd"
       inkscape:connector-curvature="0" />
    <path
       id="path1216"
       d="m664.04 639.99 8.6182-3.2031 22.207 8.9502 9.3896-3.3154-4.1992 8.2862-24.194-0.1125 6.7383-2.539z"
       style="fill-rule:evenodd;stroke:#7d7d7d;stroke-miterlimit:10;stroke-width:1.25;fill:#ffffff"
       inkscape:connector-curvature="0" />
    <path
       id="path1218"
       d="m716.96 660.42-10.718 3.0908 4.1992-9.0576 26.626 0.332-10.054 3.0908 19.443 8.3984-8.2861 3.3154z"
       style="fill-rule:evenodd;stroke:#7d7d7d;stroke-miterlimit:10;stroke-width:1.25;fill:#ffffff"
       inkscape:connector-curvature="0" />
    <path
       id="path1220"
       d="m707.02 648.6 19.551-8.3984-10.273-2.9834 26.738-0.22 4.9707 8.5058-9.0625-2.7588-22.754 9.2773z"
       style="fill-rule:evenodd;stroke:#7d7d7d;stroke-miterlimit:10;stroke-width:1.25;fill:#ffffff"
       inkscape:connector-curvature="0" />
    <path
       id="path1222"
       d="m683.93 666.06 7.3975 2.7588-24.414-0.22-5.5224-9.0576 10.161 3.5352 22.432-9.502 9.0576 3.6475z"
       style="fill-rule:evenodd;stroke:#7d7d7d;stroke-miterlimit:10;stroke-width:1.25;fill:#ffffff"
       inkscape:connector-curvature="0" />
    <path
       style="fill:#ffffff;fill-rule:evenodd;stroke-width:0.178571"
       d="m 29.031669,40.78236 -3.035714,-0.05383 -2.017901,-3.319676 c -1.109845,-1.825823 -1.976082,-3.361495 -1.924972,-3.412605 0.05111,-0.05111 1.859902,0.520745 4.019537,1.27079 2.159635,0.750045 4.040955,1.363718 4.180713,1.363718 0.139757,0 5.105092,-2.058872 11.034078,-4.575272 5.928986,-2.516399 10.962107,-4.615307 11.184716,-4.66424 0.444059,-0.09761 7.436974,2.642309 7.220679,2.82916 -0.06898,0.05959 -4.263814,2.015268 -9.32185,4.345947 -5.058036,2.330679 -9.26015,4.298511 -9.33803,4.372961 -0.07788,0.07445 0.906494,0.520936 2.1875,0.992193 1.281005,0.471257 2.329101,0.885661 2.329101,0.920898 0,0.06832 -11.454032,0.01975 -16.517857,-0.07004 z"
       id="path15"
       transform="translate(641.31,627.12)" />
    <path
       style="fill:#ffffff;fill-rule:evenodd;stroke-width:0.178571"
       d="m 39.390355,22.724212 c -0.473649,-0.101338 -0.295279,-0.202815 1.574304,-0.89564 1.159661,-0.429744 2.042896,-0.843209 1.962742,-0.918812 -0.08015,-0.0756 -4.182671,-1.887279 -9.116707,-4.025947 -4.934036,-2.138669 -8.925689,-3.934356 -8.870339,-3.990416 0.05535,-0.05606 1.520592,-0.630799 3.256093,-1.277197 l 3.155456,-1.175269 4.375597,1.76873 c 12.451743,5.033318 17.640793,7.099665 17.828806,7.099665 0.15733,0 6.176866,-2.067971 7.673844,-2.636297 0.128807,-0.0489 -0.472805,1.327831 -1.336918,3.059407 l -1.571114,3.148319 -9.198796,-0.02113 c -5.059338,-0.01162 -9.439174,-0.07256 -9.732968,-0.135415 z"
       id="path17"
       transform="translate(641.31,627.12)" />
    <path
       style="fill:#ffffff;fill-rule:evenodd;stroke-width:0.178571"
       d="m 71.310717,22.820864 c -1.889381,-0.703667 -3.436256,-1.325638 -3.4375,-1.382158 -0.0012,-0.05652 3.915149,-1.779404 8.703095,-3.828633 11.107795,-4.754107 10.642939,-4.547689 10.519475,-4.671152 -0.0579,-0.0579 -1.682459,-0.563577 -3.610128,-1.123723 l -3.504854,-1.018447 10.592391,-0.116805 c 8.319284,-0.09174 10.635294,-0.06931 10.792344,0.104502 0.21747,0.240695 3.64827,6.124732 3.64827,6.257014 0,0.04449 -1.66741,-0.428817 -3.70536,-1.051787 l -3.705352,-1.132672 -11.373563,4.636876 c -6.25546,2.550282 -11.398317,4.630014 -11.428571,4.621628 -0.03025,-0.0084 -1.600866,-0.590976 -3.490247,-1.294643 z"
       id="path19"
       transform="translate(641.31,627.12)" />
    <path
       style="fill:#ffffff;fill-rule:evenodd;stroke-width:0.178571"
       d="m 86.204721,37.075157 -10.505519,-4.549142 -4.646525,1.349731 c -2.555588,0.742351 -4.667092,1.3244 -4.692231,1.293441 -0.02514,-0.03096 0.686138,-1.651822 1.580616,-3.601917 l 1.626322,-3.545628 6.145248,0.108128 c 3.379887,0.05947 8.241494,0.115829 10.803571,0.125241 l 4.658323,0.01711 -2.142857,0.683813 c -1.178571,0.376097 -2.852302,0.902158 -3.719402,1.169025 -1.037866,0.319425 -1.495476,0.535642 -1.339285,0.632804 0.130493,0.08117 4.476098,1.974968 9.656902,4.208431 5.180803,2.233462 9.419146,4.104266 9.418546,4.157342 -10e-4,0.09268 -6.065866,2.528647 -6.248904,2.509903 -0.04911,-0.005 -4.816769,-2.056257 -10.594805,-4.558285 z"
       id="path21"
       transform="translate(641.31,627.12)" />
    <path
       style="fill:#00ff00;fill-rule:evenodd;stroke-width:0.178571"
       d="m 58.674526,80.72015 c -6.843723,-0.257386 -16.1601,-1.356159 -21.25,-2.506227 C 28.991892,76.308562 24.971119,75.163464 21.350167,73.636021 12.111884,69.738989 7.3024657,66.096103 4.8379705,61.128884 3.8934761,59.225244 3.8429384,58.459743 3.906086,47.013474 l 0.05749,-10.420852 1.1947606,1.140133 c 9.1660704,8.746977 27.8012444,14.572474 50.7876084,15.876589 4.221021,0.239477 16.775805,0.128948 20.317867,-0.178873 15.682958,-1.362919 28.295298,-4.422345 37.749508,-9.157051 4.1539,-2.080289 6.99125,-3.993462 9.43799,-6.363854 l 1.38393,-1.340745 -0.001,11.32561 c -10e-4,10.524795 -0.0248,11.401369 -0.33267,12.397038 -0.69703,2.254232 -1.60691,3.625354 -3.79776,5.72299 -3.58325,3.430792 -9.47107,6.481198 -17.73774,9.189701 -5.452342,1.786409 -9.348019,2.699033 -15.987612,3.745347 -10.418675,1.64185 -18.41949,2.142371 -28.303572,1.770643 z"
       id="path23"
       transform="translate(641.31,627.12)" />
    <path
       style="fill:#00ff00;fill-rule:evenodd;stroke-width:0.178571"
       d="M 56.442383,49.726093 C 51.389008,49.37045 49.854696,49.239921 47.245955,48.943726 26.282462,46.563537 9.1758578,39.341607 5.0264342,31.119823 2.7524892,26.614164 4.0938317,22.097107 8.9411464,17.936779 16.402012,11.533307 30.62108,6.7133265 47.781669,4.7706181 60.85408,3.2907225 76.14153,3.6883033 88.585241,5.8317969 113.65132,10.149559 128.63673,20.539339 124.13096,30.476592 119.66851,40.31831 99.165341,48.073075 73.406669,49.661668 c -2.630394,0.162223 -14.91193,0.208864 -16.964286,0.06442 z M 101.8434,41.255655 c 2.72502,-1.090609 4.91765,-2.042695 4.8725,-2.115746 -0.0452,-0.07305 -4.24346,-1.925481 -9.32959,-4.116508 -5.086123,-2.191026 -9.305562,-4.033319 -9.376532,-4.093985 -0.07097,-0.06067 2.478073,-0.905893 5.664536,-1.878286 3.186464,-0.972391 5.883771,-1.823732 5.994018,-1.89187 0.110246,-0.06813 -3.362902,-0.175223 -7.718107,-0.237975 -4.355206,-0.06275 -11.373913,-0.163566 -15.597127,-0.224035 l -7.678572,-0.109945 -2.391305,5.155654 c -1.31522,2.835608 -2.427536,5.288758 -2.471814,5.451442 -0.06425,0.236052 1.085884,-0.04262 5.694877,-1.379823 3.176462,-0.921586 5.880787,-1.677459 6.009612,-1.679718 0.224932,-0.0039 5.84482,2.391729 16.28363,6.941459 2.700893,1.177177 4.950893,2.145259 5,2.151291 0.04911,0.006 2.31885,-0.881346 5.043874,-1.971955 z m -48.258559,1.134029 c -1.79e-4,-0.07366 -2.044179,-0.892877 -4.542131,-1.820483 l -4.54173,-1.686553 1.551059,-0.731266 c 0.853082,-0.402198 5.1059,-2.372336 9.450707,-4.378086 4.344805,-2.005748 7.840341,-3.702779 7.767857,-3.771175 -0.161034,-0.151954 -10.39283,-4.264223 -10.609871,-4.264223 -0.08505,0 -2.78459,1.116102 -5.998988,2.480228 -3.214398,1.364125 -8.227394,3.490995 -11.139991,4.726379 l -5.29563,2.246152 -5.652024,-1.97002 c -3.108612,-1.083509 -5.727973,-1.944702 -5.820802,-1.913759 -0.145044,0.04835 5.97461,10.287972 6.406911,10.720273 0.08615,0.08615 6.416577,0.2199 14.067618,0.297227 7.651043,0.07732 14.011432,0.153788 14.1342,0.169913 0.122768,0.01613 0.223034,-0.03095 0.222815,-0.104607 z M 82.64713,22.513925 c 4.100782,-1.67497 9.164525,-3.738232 11.252762,-4.585025 l 3.796795,-1.539625 5.110333,1.555873 c 2.81069,0.85573 5.14919,1.517024 5.19667,1.469542 0.0475,-0.04748 -1.24308,-2.360702 -2.86791,-5.14049 l -2.95423,-5.0541594 -13.429333,0.071109 c -7.386133,0.03911 -14.483251,0.1194673 -15.771369,0.1785715 l -2.342036,0.1074621 6.116072,1.7787868 c 3.363839,0.978332 6.115848,1.822082 6.115575,1.875 -3.58e-4,0.05292 -4.198933,1.896393 -9.330358,4.096612 -5.131423,2.200219 -9.395212,4.057535 -9.475087,4.127369 -0.16497,0.144233 10.108223,4.058334 10.724973,4.086231 0.220647,0.01 3.756361,-1.352286 7.857143,-3.027257 z M 61.763001,19.205893 c 2.1769,-4.356994 2.490106,-5.08525 2.1414,-4.979117 -0.224646,0.06837 -2.639412,0.911963 -5.366148,1.874643 l -4.957703,1.750328 -9.417297,-3.80032 C 38.983739,11.961251 34.027214,9.9588489 33.148753,9.6016449 32.270294,9.2444412 31.466723,8.9526962 31.363039,8.9533226 c -0.245348,0.00148 -10.08391,3.6740194 -10.227676,3.8177854 -0.06031,0.06031 -0.07616,0.135314 -0.03524,0.166686 0.04092,0.03137 4.145802,1.819317 9.121952,3.973214 4.97615,2.153896 8.994007,3.963855 8.928571,4.02213 -0.06544,0.05827 -1.924657,0.781488 -4.131602,1.607142 l -4.012626,1.501189 5.709055,0.09306 c 3.13998,0.05118 9.486496,0.111451 14.10337,0.133928 l 8.394314,0.04086 z"
       id="path25"
       transform="translate(641.31,627.12)" />
  </g>
  <metadata
     id="metadata10">
    <rdf:RDF>
      <cc:Work>
        <dc:format>image/svg+xml</dc:format>
        <dc:type
           rdf:resource="http://purl.org/dc/dcmitype/StillImage" />
        <cc:license
           rdf:resource="http://creativecommons.org/licenses/publicdomain/" />
        <dc:publisher>
          <cc:Agent
             rdf:about="http://openclipart.org/">
            <dc:title>Openclipart</dc:title>
          </cc:Agent>
        </dc:publisher>
        <dc:title>Router symbol</dc:title>
        <dc:date>2012-08-02T14:23:28</dc:date>
        <dc:description />
        <dc:source>https://openclipart.org/detail/171415/router-symbol-by-cyberscooty-171415</dc:source>
        <dc:creator>
          <cc:Agent>
            <dc:title>cyberscooty</dc:title>
          </cc:Agent>
        </dc:creator>
        <dc:subject>
          <rdf:Bag>
            <rdf:li>computer</rdf:li>
            <rdf:li>icon</rdf:li>
            <rdf:li>informatique</rdf:li>
            <rdf:li>it</rdf:li>
            <rdf:li>network</rdf:li>
            <rdf:li>ordinateur</rdf:li>
            <rdf:li>router</rdf:li>
            <rdf:li>réseau</rdf:li>
            <rdf:li>server</rdf:li>
            <rdf:li>serveur</rdf:li>
            <rdf:li>symbol</rdf:li>
          </rdf:Bag>
        </dc:subject>
      </cc:Work>
      <cc:License
         rdf:about="http://creativecommons.org/licenses/publicdomain/">
        <cc:permits
           rdf:resource="http://creativecommons.org/ns#Reproduction" />
        <cc:permits
           rdf:resource="http://creativecommons.org/ns#Distribution" />
        <cc:permits
           rdf:resource="http://creativecommons.org/ns#DerivativeWorks" />
      </cc:License>
    </rdf:RDF>
  </metadata>
</svg>
