<?xml version="1.0" encoding="UTF-8" standalone="no"?>
<svg
   xmlns:dc="http://purl.org/dc/elements/1.1/"
   xmlns:cc="http://creativecommons.org/ns#"
   xmlns:rdf="http://www.w3.org/1999/02/22-rdf-syntax-ns#"
   xmlns:svg="http://www.w3.org/2000/svg"
   xmlns="http://www.w3.org/2000/svg"
   xmlns:sodipodi="http://sodipodi.sourceforge.net/DTD/sodipodi-0.dtd"
   xmlns:inkscape="http://www.inkscape.org/namespaces/inkscape"
   version="1.1"
   id="Layer_1"
   x="0px"
   y="0px"
   viewBox="0 0 376.1 180.6"
   style="enable-background:new 0 0 376.1 180.6;"
   xml:space="preserve"
   sodipodi:docname="switch-down.svg"
   inkscape:version="1.0.1 (3bc2e813f5, 2020-09-07)"><metadata
   id="metadata31"><rdf:RDF><cc:Work
       rdf:about=""><dc:format>image/svg+xml</dc:format><dc:type
         rdf:resource="http://purl.org/dc/dcmitype/StillImage" /></cc:Work></rdf:RDF></metadata><defs
   id="defs29" /><sodipodi:namedview
   pagecolor="#ffffff"
   bordercolor="#666666"
   borderopacity="1"
   objecttolerance="10"
   gridtolerance="10"
   guidetolerance="10"
   inkscape:pageopacity="0"
   inkscape:pageshadow="2"
   inkscape:window-width="3440"
   inkscape:window-height="1377"
   id="namedview27"
   showgrid="false"
   inkscape:zoom="2.7705397"
   inkscape:cx="188.05"
   inkscape:cy="90.300003"
   inkscape:window-x="-8"
   inkscape:window-y="288"
   inkscape:window-maximized="1"
   inkscape:current-layer="Layer_1" />
<style
   type="text/css"
   id="style2">
	.st0{fill:#666766;enable-background:new    ;}
	.st1{fill:none;stroke:#FFFFFF;stroke-width:21;}
	.st2{fill:#FFFFFF;}
</style>
<title
   id="title4">network_switch_generic_grey</title>
<g
   id="g4209">
	<path
   id="rect4136-3"
   class="st0"
   d="M70.5,0h303.6l-70.5,126.7H0L70.5,0z" />
	<rect
   id="rect4162"
   x="0.9"
   y="130.7"
   class="st0"
   width="301"
   height="48.6" />
	<polygon
   id="rect4162-7"
   class="st0"
   points="305.2,129.2 375.1,2.7 376.1,47.2 305.2,180.6  " />
</g>
<line
   class="st1"
   x1="121.4"
   y1="36.7"
   x2="178"
   y2="36.7"
   id="line10" />
<polygon
   class="st2"
   points="128.8,61.8 85.3,36.7 128.8,11.5 "
   id="polygon12" />
<line
   class="st1"
   x1="68"
   y1="92.1"
   x2="124.6"
   y2="92.1"
   id="line14" />
<polygon
   class="st2"
   points="75.4,117.2 31.9,92.1 75.4,66.9 "
   id="polygon16" />
<line
   class="st1"
   x1="234.5"
   y1="85.8"
   x2="177.9"
   y2="85.8"
   id="line18" />
<polygon
   class="st2"
   points="227.1,60.7 270.6,85.8 227.1,111 "
   id="polygon20" />
<line
   class="st1"
   x1="299.9"
   y1="32.9"
   x2="243.4"
   y2="32.9"
   id="line22" />
<polygon
   class="st2"
   points="292.6,7.8 336.1,32.9 292.6,58 "
   id="polygon24" />
<path
   style="fill:#ff0000;fill-rule:evenodd;stroke-width:0.360941"
   d="M 21.755484,88.044551 C 33.493192,66.951855 49.283715,38.568205 56.845538,24.969772 L 70.594303,0.24534708 222.08386,0.15468583 c 83.31926,-0.0498637 151.48447,0.0313479 151.47827,0.18047025 -0.006,0.14912232 -15.7444,28.53277292 -34.97373,63.07477892 l -34.96242,62.803645 -151.60589,0.0907 -151.60589247,0.0907 z m 78.412986,14.888369 h 24.71694 V 92.104706 81.27649 H 100.16099 75.436566 v -7.248887 c 0,-4.358255 -0.135014,-7.200911 -0.338577,-7.128575 -0.74326,0.264118 -43.32674,25.037548 -43.326481,25.205678 1.53e-4,0.09926 9.784247,5.819223 21.742434,12.711034 l 21.742153,12.53056 0.09771,-7.20669 0.09771,-7.20669 z m 150.46077,-5.304363 c 10.89428,-6.313654 19.7967,-11.641793 19.78316,-11.84031 -0.0232,-0.339999 -42.53106,-25.070134 -43.11012,-25.080514 -0.14888,-0.0027 -0.2707,3.243613 -0.2707,7.213959 v 7.21881 h -24.72443 -24.72442 v 10.647745 10.647745 h 24.72442 24.72443 v 7.425768 7.42577 l 1.89494,-1.0898 c 1.04221,-0.59939 10.80843,-6.25552 21.70272,-12.569173 z M 128.85576,54.566893 v -7.21881 h 24.72442 24.72443 V 36.700338 26.052593 h -24.7171 -24.7171 l -0.0976,-7.363097 -0.0976,-7.363098 -21.65643,12.554245 c -11.911037,6.904835 -21.634399,12.686764 -21.607469,12.848729 0.05008,0.301219 42.683129,25.037021 43.173659,25.049462 0.14889,0.0038 0.27071,-3.241595 0.27071,-7.211941 z M 314.11181,45.85946 c 11.76031,-6.774258 21.57149,-12.499678 21.80261,-12.723152 0.31461,-0.304196 -5.01598,-3.535991 -21.20951,-12.858763 -11.89635,-6.848846 -21.79024,-12.5065884 -21.98642,-12.5727607 -0.2271,-0.076606 -0.35668,2.5130837 -0.35668,7.1285747 v 7.248889 H 267.81785 243.2739 v 10.828215 10.828215 h 24.54395 24.54396 v 7.21881 c 0,3.970346 0.0827,7.21881 0.1838,7.21881 0.10109,0 9.80588,-5.542577 21.5662,-12.316838 z"
   id="path33" /><path
   style="fill:#ff0000;fill-rule:evenodd;stroke-width:0.360941"
   d="M 1.0828215,154.90835 V 130.72534 H 151.41454 301.74626 v 24.18301 24.18302 H 151.41454 1.0828215 Z"
   id="path35" /><path
   style="fill:#ff0000;fill-rule:evenodd;stroke-width:0.360941"
   d="m 305.36363,154.48997 -0.008,-25.14282 34.72074,-62.826135 c 19.09641,-34.554376 34.75848,-62.7883977 34.80461,-62.7422706 0.0461,0.046127 0.28843,9.8296556 0.53844,21.7411746 L 375.874,47.177225 341.65409,111.6003 c -18.82094,35.43269 -34.68399,65.23519 -35.25122,66.22778 l -1.03132,1.8047 z"
   id="path37" /><path
   style="fill:#ffffff;fill-rule:evenodd;stroke-width:0.360941"
   d="M 53.705511,104.46849 C 42.051207,97.767667 32.515878,92.203964 32.515892,92.104706 c 2.3e-5,-0.172589 41.481961,-24.234937 42.208487,-24.483798 0.219838,-0.0753 0.351246,2.524104 0.351246,6.948105 v 7.068418 H 99.80005 124.52447 V 92.104706 102.57198 H 99.80768 75.090886 l -0.09787,7.03991 -0.09786,7.03991 z"
   id="path41" /><path
   style="fill:#ffffff;fill-rule:evenodd;stroke-width:0.360941"
   d="M 227.39252,103.32035 V 96.075051 H 202.66809 177.94367 V 85.788247 75.501442 h 24.71695 24.71695 l 0.0977,-7.147392 0.0977,-7.147392 20.98698,12.110324 c 11.54284,6.660678 21.01864,12.257401 21.05733,12.437161 0.0543,0.252218 -23.88119,14.337387 -40.14937,23.626457 l -2.07541,1.18505 z"
   id="path43" /><path
   style="fill:#ffffff;fill-rule:evenodd;stroke-width:0.360941"
   d="m 292.72275,50.416077 v -7.03834 H 268.1788 243.63484 V 32.910463 22.443188 h 24.54396 24.54395 v -7.03834 c 0,-3.871087 0.10537,-7.0383396 0.23414,-7.0383396 0.39616,0 42.35684,24.3078326 42.35684,24.5373296 0,0.21772 -42.01204,24.550579 -42.38794,24.550579 -0.11168,0 -0.20304,-3.167253 -0.20304,-7.03834 z"
   id="path45" /><path
   style="fill:#ffffff;fill-rule:evenodd;stroke-width:0.360941"
   d="M 107.26189,49.121506 C 95.683031,42.441903 86.210207,36.853832 86.211165,36.703572 c 9.58e-4,-0.15026 9.474567,-5.76391 21.052465,-12.474777 l 21.05072,-12.201576 0.0977,7.193157 0.0977,7.193158 h 24.71695 24.71695 V 36.700338 46.987142 H 153.2267 128.50975 l -0.0977,7.139552 -0.0977,7.139547 z"
   id="path47" /><path
   style="fill:#ffffff;fill-rule:evenodd;stroke-width:0.360941"
   d=""
   id="path49" /></svg>
