<?xml version="1.0" encoding="UTF-8" standalone="no"?>
<!-- Created with Inkscape (http://www.inkscape.org/) -->

<svg
   xmlns:dc="http://purl.org/dc/elements/1.1/"
   xmlns:cc="http://creativecommons.org/ns#"
   xmlns:rdf="http://www.w3.org/1999/02/22-rdf-syntax-ns#"
   xmlns:svg="http://www.w3.org/2000/svg"
   xmlns="http://www.w3.org/2000/svg"
   xmlns:sodipodi="http://sodipodi.sourceforge.net/DTD/sodipodi-0.dtd"
   xmlns:inkscape="http://www.inkscape.org/namespaces/inkscape"
   id="svg3336"
   version="1.1"
   inkscape:version="0.91 r13725"
   width="722.8125"
   height="1185"
   viewBox="0 0 722.8125 1185"
   sodipodi:docname="UKSilhouette.svg">
  <metadata
     id="metadata3342">
    <rdf:RDF>
      <cc:Work
         rdf:about="">
        <dc:format>image/svg+xml</dc:format>
        <dc:type
           rdf:resource="http://purl.org/dc/dcmitype/StillImage" />
        <dc:title></dc:title>
      </cc:Work>
    </rdf:RDF>
  </metadata>
  <defs
     id="defs3340" />
  <sodipodi:namedview
     pagecolor="#ffffff"
     bordercolor="#666666"
     borderopacity="1"
     objecttolerance="10"
     gridtolerance="10"
     guidetolerance="10"
     inkscape:pageopacity="0"
     inkscape:pageshadow="2"
     inkscape:window-width="1600"
     inkscape:window-height="837"
     id="namedview3338"
     showgrid="false"
     inkscape:zoom="0.56540084"
     inkscape:cx="361.40625"
     inkscape:cy="592.5"
     inkscape:window-x="-8"
     inkscape:window-y="-8"
     inkscape:window-maximized="1"
     inkscape:current-layer="svg3336" />
  <path
     style="fill:#000000"
     d="m 95.423888,1183.3594 c -0.786076,-0.9024 -1.238175,-2.168 -1.004682,-2.8125 0.233503,-0.6446 -0.04734,-1.1719 -0.624065,-1.1719 -0.723667,0 -0.76554,-0.5289 -0.135131,-1.7068 0.602137,-1.1251 0.568303,-3.0668 -0.09925,-5.6967 -0.779569,-3.0714 -1.841377,-4.5131 -4.611865,-6.262 -1.979522,-1.2496 -4.010212,-2.272 -4.512647,-2.272 -0.502433,0 -1.995447,-1.082 -3.317807,-2.4043 -3.261859,-3.2619 -7.399945,-2.8938 -7.814712,0.6951 -0.399807,3.4594 -1.647236,4.2135 -8.19909,4.9569 -5.427511,0.6157 -5.72347,0.5411 -6.744339,-1.6994 -0.850787,-1.8673 -0.792681,-2.5717 0.285991,-3.4669 C 59.390828,1160.901 60,1159.0441 60,1157.3924 c 0,-3.2966 3.195703,-7.0799 5.980378,-7.0799 0.90243,0 3.713769,-0.8917 6.24742,-1.9817 5.004922,-2.153 8.846743,-1.8565 10.814721,0.8349 0.942253,1.2885 1.528267,1.3586 3.573531,0.4267 1.345547,-0.6131 2.44645,-1.7301 2.44645,-2.4821 0,-1.0231 0.77817,-1.2412 3.090364,-0.8659 2.160564,0.3506 3.464402,0.051 4.333539,-0.9965 0.683747,-0.8238 1.97775,-1.4979 2.875547,-1.4979 0.89781,0 2.73489,-1.1025 4.08242,-2.4501 1.34752,-1.3474 3.83084,-3.1849 5.51846,-4.0832 1.94799,-1.0368 3.45313,-2.7874 4.12199,-4.794 0.84396,-2.532 1.86985,-3.4469 5.15625,-4.5983 5.69858,-1.9966 6.2191,-2.4389 6.92194,-5.8821 1.20174,-5.8872 2.64915,-8.1923 5.14397,-8.1923 1.56394,0 3.22993,-1.1038 4.98373,-3.3018 1.44895,-1.8159 3.08171,-3.0253 3.62836,-2.6874 1.33979,0.828 9.64437,0.7833 11.00769,-0.059 0.59936,-0.3704 1.73395,-2.2835 2.52131,-4.2514 1.4061,-3.5142 3.22748,-4.6593 7.45507,-4.6873 1.32531,-0.01 2.32966,-1.0202 3.18969,-3.212 1.2293,-3.1331 2.69285,-4.298 7.64951,-6.0888 2.57812,-0.9314 2.90323,-1.8657 4.18949,-12.0401 0.34222,-2.7071 0.98975,-4.9219 1.43895,-4.9219 0.44919,0 0.81672,-0.445 0.81672,-0.989 0,-0.5438 0.78916,-2.7587 1.75369,-4.9219 0.96453,-2.163 1.94538,-4.5551 2.17968,-5.3157 0.6428,-2.0865 8.29886,-1.3143 9.92032,1.0007 0.87863,1.2544 2.37615,1.7884 5.01565,1.7884 3.05927,0 4.64433,-0.7432 8.47546,-3.9736 l 4.71244,-3.9736 -0.60715,-4.5769 c -0.53019,-3.9967 -0.35324,-4.7547 1.39579,-5.9798 1.24217,-0.87 1.83084,-2.0611 1.54983,-3.1357 -0.58405,-2.2334 2.06923,-3.1301 8.26054,-2.7918 2.57813,0.1409 7.64063,0.3856 11.25,0.5437 14.16829,0.6207 19.81506,1.3275 22.85479,2.8604 1.74199,0.8784 5.11699,1.8098 7.5,2.0697 2.38299,0.2599 4.68994,1.0811 5.12656,1.8251 0.49328,0.8406 1.59154,1.1525 2.90079,0.8239 1.59923,-0.4014 2.98933,0.3621 5.76865,3.1681 4.31099,4.3525 10.01869,6.0315 15.88169,4.6721 4.9571,-1.1493 11.43579,-1.1328 12.15502,0.031 0.76368,1.2356 4.79424,1.1972 7.15883,-0.068 1.35784,-0.7267 1.82431,-1.8323 1.6811,-3.9843 -0.10901,-1.6383 0.28318,-4.1663 0.87156,-5.6178 0.58836,-1.4515 1.06976,-3.1039 1.06976,-3.6719 0,-0.568 0.27,-0.7627 0.60001,-0.4327 0.33,0.33 1.27922,-0.6322 2.10937,-2.1383 1.50515,-2.7308 9.47177,-9.3992 11.22893,-9.3992 0.50918,0 1.90559,-1.2132 3.10312,-2.6961 2.82569,-3.499 5.80646,-4.9877 8.58865,-4.2893 3.39031,0.8509 7.00413,-2.8523 7.36381,-7.5459 l 0.28736,-3.75 -4.21875,0.092 c -4.53008,0.099 -7.46204,0.6935 -11.37083,2.3059 -1.78764,0.7374 -3.55324,0.7235 -6.42802,-0.051 -3.5768,-0.9631 -4.57099,-0.8115 -10.19167,1.5544 -3.42553,1.4419 -6.37539,2.9665 -6.55526,3.3879 -0.17986,0.4214 -1.55095,2.1062 -3.04687,3.744 -1.49592,1.6379 -2.71985,3.5087 -2.71985,4.1573 0,5.6581 -31.02435,-0.3401 -32.50664,-6.2848 -0.84595,-3.3926 -5.80403,-9.375 -7.76984,-9.375 -2.57452,0 -3.77404,-2.0912 -4.77898,-8.3313 -1.67298,-10.38822 -3.56181,-12.86341 -10.54687,-13.82078 C 242.4247,988.75434 240,989.92734 240,992.89856 c 0,1.38141 -0.67157,1.70644 -3.32072,1.60678 -1.8264,-0.0684 -3.53879,-0.47765 -3.80533,-0.9089 -0.67785,-1.09678 -4.82871,-0.98166 -5.5302,0.15337 -1.06267,1.71947 -6.33577,0.97547 -9.34291,-1.31822 -2.49036,-1.89946 -2.89909,-2.75522 -2.58816,-5.41856 0.2712,-2.32294 1.1174,-3.59212 3.18683,-4.77984 2.717,-1.55935 2.91787,-1.54566 5.62659,0.38315 2.60324,1.85363 2.9216,1.88757 4.34621,0.46294 1.4246,-1.42462 1.42352,-1.72528 -0.0148,-4.10522 -1.28977,-2.13412 -2.3114,-2.61769 -6.04657,-2.86237 -5.3801,-0.35232 -6.35916,-1.07213 -9.26943,-6.81535 -2.48054,-4.89506 -2.28797,-4.82953 -18.00713,-6.12768 -5.37294,-0.44372 -6.80217,-0.29429 -6.8221,0.71306 -0.0472,2.38416 -5.0814,7.14469 -8.14156,7.69894 -1.65578,0.2999 -3.26271,0.13715 -3.57094,-0.3616 -1.00482,-1.62581 -4.70496,-0.9569 -7.94978,1.437 -1.74723,1.28906 -3.49553,2.34375 -3.88514,2.34375 -0.3896,0 -2.58773,-1.26834 -4.88474,-2.81859 -3.25027,-2.19356 -4.0645,-3.24647 -3.67182,-4.74806 0.65449,-2.50285 -5.07817,-8.66607 -7.47707,-8.03869 -1.22189,0.3195 -1.64373,-0.135 -1.64373,-1.77085 0,-1.2104 -0.42187,-2.4614 -0.9375,-2.78006 -2.60246,-1.60837 1.06963,-5.39147 5.85303,-6.0299 l 3.99074,-0.53241 0,-5.625 c 0,-5.06372 -0.20367,-5.654 -2.04129,-5.91565 -1.12272,-0.15987 -2.54547,-0.89815 -3.16167,-1.64063 -0.63223,-0.76178 -2.74852,-1.34997 -4.85721,-1.34997 -3.48371,0 -3.69832,-0.15351 -3.16808,-2.26616 0.35185,-1.40185 0.12244,-2.44631 -0.60149,-2.73849 -1.1199,-0.45199 1.65863,-1.0128 3.41138,-0.68853 0.45739,0.0847 2.69313,-0.72116 4.96831,-1.79061 2.27517,-1.06946 4.5085,-1.71467 4.96295,-1.43379 0.45447,0.28086 1.09128,0.0819 1.41515,-0.44213 0.32387,-0.52403 1.78385,-0.95279 3.2444,-0.95279 2.03033,0 2.79016,-0.53636 3.22732,-2.27819 0.31449,-1.25301 1.22472,-2.93112 2.02275,-3.72915 1.48701,-1.48701 3.01905,-1.0688 6.98373,1.90637 2.13746,1.60399 11.22136,1.10658 12.21494,-0.66886 0.45008,-0.80425 2.49195,-2.01463 4.53747,-2.68972 2.28848,-0.75526 3.90746,-1.94755 4.20869,-3.09945 0.32584,-1.24602 0.9785,-1.67456 1.95172,-1.28151 0.8042,0.32478 2.16823,0.87469 3.03119,1.22202 1.18089,0.47529 1.42463,0.25527 0.98534,-0.88951 -0.84233,-2.19508 2.10035,-2.84224 9.53082,-2.09602 5.14725,0.51691 6.53353,0.36059 7.53827,-0.85005 0.67713,-0.81588 1.85123,-1.48343 2.60911,-1.48343 0.75788,0 2.48093,-0.8676 3.829,-1.92799 1.64983,-1.29776 3.18987,-1.74256 4.71124,-1.36072 1.30782,0.32824 2.90506,0.0373 3.79058,-0.6905 0.84171,-0.69177 3.21788,-1.82641 5.28038,-2.52141 4.04765,-1.36394 12.29503,-8.6799 13.25917,-11.76172 0.32588,-1.04165 1.34906,-2.86294 2.27372,-4.04731 0.92467,-1.18437 1.96687,-3.50468 2.316,-5.15625 0.34914,-1.65157 1.42206,-3.86215 2.38428,-4.91242 2.18744,-2.38757 2.44601,-9.351 0.59169,-15.93402 -1.60525,-5.69876 -0.98255,-7.6981 3.45072,-11.07951 4.15517,-3.16931 4.37861,-6.04658 1.03692,-13.35225 -2.83228,-6.19199 -2.81956,-5.84732 -0.31404,-8.51433 1.74147,-1.8537 1.8746,-2.50094 0.9375,-4.55766 -0.60072,-1.31842 -1.09221,-3.41214 -1.09221,-4.65271 0,-1.80786 -0.69781,-2.44936 -3.51563,-3.23191 -4.22853,-1.17432 -9.31657,-1.2815 -9.97866,-0.21021 -0.26398,0.42711 -2.66985,0.82646 -5.34638,0.88743 -4.43188,0.10095 -5.12645,0.42689 -7.7785,3.65021 -1.60164,1.94665 -2.80661,3.86762 -2.67771,4.26882 0.46314,1.44143 -2.03,0.69049 -4.06987,-1.22587 -1.56484,-1.47008 -2.51044,-1.73388 -3.81042,-1.06303 -2.79195,1.44079 -13.45263,2.09224 -13.42035,0.82008 0.0356,-1.40337 5.28211,-7.17672 6.5218,-7.17672 0.5229,0 0.95072,-0.39363 0.95072,-0.87473 0,-0.48111 1.90662,-2.43707 4.23695,-4.34659 3.42304,-2.80495 4.99881,-3.4677 8.20312,-3.45021 2.1814,0.0119 4.61221,-0.54528 5.40181,-1.23819 0.78959,-0.69292 3.74272,-2.47285 6.5625,-3.95543 5.92763,-3.11659 9.14205,-8.11248 8.97778,-13.9533 -0.0835,-2.96977 -0.46427,-3.63941 -2.21029,-3.88738 -1.16015,-0.16476 -2.10937,-0.67096 -2.10937,-1.12488 0,-0.45391 -1.26563,-2.7006 -2.8125,-4.99262 -1.54687,-2.29204 -2.8125,-4.87217 -2.8125,-5.73364 0,-2.82345 -1.89429,-5.19303 -4.15143,-5.19303 -2.23264,0 -3.34857,-1.55382 -3.34857,-4.66254 0,-1.02794 -0.92379,-1.92855 -2.34375,-2.28494 -4.6898,-1.17706 -1.80234,-5.64736 3.02422,-4.68205 2.19253,0.43851 3.27058,0.0853 4.82172,-1.57962 1.09879,-1.17942 1.99781,-2.86009 1.99781,-3.7348 0,-4.89861 11.24678,-6.59541 19.09506,-2.88087 4.37732,2.07177 4.54261,2.29057 4.04534,5.35496 -0.35023,2.15822 -0.10625,3.42712 0.75193,3.91052 0.69872,0.39358 1.40956,2.19215 1.57966,3.99684 l 0.30926,3.28125 5.5027,0.15895 c 7.35025,0.21233 8.1769,1.24049 4.4292,5.50888 -4.0251,4.58434 -3.59038,6.61001 1.3301,6.19791 2.0559,-0.17218 4.40403,-0.9085 5.21807,-1.63627 0.81404,-0.72778 2.54405,-1.32322 3.84448,-1.32322 4.20136,0 8.06567,-1.87395 8.64788,-4.19368 0.74023,-2.94926 3.48582,-2.19182 7.84069,2.16305 3.14779,3.14779 3.66877,3.32681 10.02293,3.44406 3.6864,0.0681 7.25432,0.4647 7.92869,0.88149 0.72324,0.44699 1.52467,0.27476 1.95401,-0.41992 0.40033,-0.64775 1.12165,-0.93434 1.60296,-0.63688 0.48129,0.29746 1.57902,-0.28131 2.43938,-1.28615 1.1237,-1.31238 2.7617,-1.82697 5.81543,-1.82697 3.77861,0 4.35842,0.28657 5.21637,2.57812 0.53088,1.41797 3.5354,5.18313 6.67673,8.36702 4.9372,5.00411 5.89222,5.6082 7.04441,4.45601 1.65101,-1.65102 0.7531,-5.27729 -3.17073,-12.80525 -1.59603,-3.06199 -0.32523,-6.3459 2.45571,-6.3459 0.97036,0 3.6713,-0.81743 6.00208,-1.81653 l 4.23779,-1.81653 -0.43066,-4.73912 c -0.23687,-2.60652 -0.85402,-5.85261 -1.37145,-7.21354 -0.51742,-1.36094 -0.65912,-3.36181 -0.31489,-4.4464 0.76798,-2.4197 5.68095,-8.81911 8.62319,-11.23217 2.96294,-2.43005 7.66403,-7.50078 7.66934,-8.27238 0.003,-0.34673 -1.45207,-1.11108 -3.23212,-1.69855 -1.92041,-0.63379 -3.50664,-1.90231 -3.9009,-3.11957 -0.92901,-2.8683 -0.46789,-9.95236 0.79979,-12.28718 0.58285,-1.07347 1.29802,-3.38287 1.58927,-5.13199 0.7159,-4.2993 4.12853,-6.68408 9.94297,-6.94825 l 4.64908,-0.21122 -0.30562,-5.61544 c -0.27252,-5.00741 -0.0479,-5.85752 2.07423,-7.85118 1.30892,-1.22967 3.34489,-2.71497 4.52437,-3.3007 2.64625,-1.31408 3.13473,-4.24462 1.61329,-9.67863 -1.4635,-5.22714 -3.24194,-5.99146 -5.97262,-2.56686 -2.60594,3.26814 -4.644,2.68987 -6.54368,-1.85672 -1.59362,-3.81405 -2.91841,-4.24884 -3.69495,-1.21266 -0.29672,1.16015 -2.43803,4.00781 -4.75845,6.32812 -2.32042,2.32031 -4.23276,4.74609 -4.24964,5.39063 -0.0169,0.64453 -0.66349,1.17187 -1.43693,1.17187 -0.77344,0 -1.40625,0.63281 -1.40625,1.40625 0,2.75426 -2.39659,1.3453 -3.99759,-2.35018 -1.80166,-4.15866 -2.13719,-8.94285 -0.68991,-9.83732 0.51562,-0.31867 0.9375,-1.42315 0.9375,-2.4544 0,-1.03125 0.42187,-1.61427 0.9375,-1.2956 0.51562,0.31868 0.9375,-0.0702 0.9375,-0.86431 0,-0.80066 -1.14834,-1.71804 -2.57813,-2.0596 -3.71263,-0.8869 -4.64657,-1.87717 -5.36074,-5.68406 -0.34926,-1.86169 -1.25066,-4.3245 -2.00313,-5.4729 -0.94409,-1.44087 -1.18023,-3.26299 -0.76191,-5.87904 0.41519,-2.59641 0.14785,-4.70985 -0.84836,-6.7068 -0.80001,-1.60367 -2.11591,-5.19066 -2.9242,-7.97109 -0.8083,-2.78044 -2.94426,-7.29446 -4.74657,-10.03114 -3.38865,-5.1454 -4.05365,-7.36231 -2.20843,-7.36231 1.55334,0 3.5546,-2.95926 3.58916,-5.30729 0.0164,-1.11431 1.24191,-3.04595 2.72337,-4.29251 3.14669,-2.64777 5.13185,-5.99022 4.32912,-7.28906 -0.82723,-1.33849 3.87389,-7.09241 7.58246,-9.28051 2.65483,-1.5664 3.20736,-2.44332 3.20736,-5.09047 0,-1.75894 0.63281,-3.72326 1.40625,-4.36516 0.77344,-0.6419 1.40625,-1.69818 1.40625,-2.3473 0,-1.77575 5.73791,-7.0277 7.67797,-7.0277 0.93337,0 1.69703,-0.53905 1.69703,-1.1979 0,-0.65885 0.84375,-1.92034 1.875,-2.80332 3.79402,-3.24854 1.96385,-6.31128 -3.77135,-6.31128 -1.47427,0 -2.95962,-0.45164 -3.30078,-1.00365 -0.3779,-0.61146 -2.02066,-0.76706 -4.2039,-0.3982 -2.15988,0.36491 -4.42003,0.15781 -5.68894,-0.5213 -1.77149,-0.94808 -2.30294,-0.85652 -3.35143,0.57739 -0.68536,0.93727 -1.2461,3.15902 -1.2461,4.93722 0,4.46031 -1.96205,5.70104 -7.40278,4.68126 -4.27824,-0.80188 -7.8521,0.22915 -12.28472,3.54403 -0.77344,0.5784 -3.51563,1.77959 -6.09375,2.66931 -2.57813,0.88972 -5.41292,1.99768 -6.29953,2.46215 -2.10833,1.10445 -10.70534,-0.79442 -14.07851,-3.1096 -1.41104,-0.96848 -2.91194,-3.10726 -3.33532,-4.75287 -0.46721,-1.81596 -1.71829,-3.45182 -3.18294,-4.16187 -1.32725,-0.64344 -3.9691,-2.89211 -5.87079,-4.99705 -4.05616,-4.48969 -6.13916,-4.32819 -6.13916,0.47599 0,2.13561 0.69583,3.92241 2.00104,5.1384 1.84013,1.71435 1.90902,2.18842 0.85677,5.8959 -0.62934,2.2174 -1.36301,5.16636 -1.6304,6.55325 -0.26737,1.38689 -1.22524,3.1905 -2.1286,4.00803 -1.46964,1.33001 -1.76734,1.33596 -2.82918,0.0565 -0.6527,-0.78647 -1.68004,-1.42992 -2.28298,-1.42992 -2.06681,0 -8.986,-7.95231 -9.00364,-10.34798 -0.0239,-3.24412 -13.6077,-16.83952 -16.82517,-16.83952 -2.29672,0 -8.03716,2.25873 -8.69165,3.41997 -0.73694,1.30753 1.05154,16.4149 2.09163,17.66815 0.66269,0.79848 0.56841,2.08554 -0.30491,4.16257 l -1.26422,3.00669 -2.9631,-2.49328 c -2.9289,-2.46451 -3.844,-5.42151 -2.02559,-6.54535 1.21553,-0.75124 1.21553,-4.87376 0,-5.625 -0.51563,-0.31867 -0.9375,-1.97942 -0.9375,-3.69053 0,-1.71113 -0.61647,-3.62277 -1.36994,-4.24809 -0.75347,-0.62532 -1.64572,-2.04807 -1.98276,-3.16167 -0.33704,-1.11359 -1.3383,-2.86846 -2.225,-3.89971 -2.35101,-2.73424 -3.95876,-12.83722 -2.65054,-16.65583 2.31743,-6.76449 5.55564,-9.06445 8.22824,-5.84417 1.71698,2.06885 2.8125,1.71638 2.8125,-0.90487 0,-1.27113 1.26563,-3.7526 2.8125,-5.5144 1.54687,-1.76179 2.8125,-4.09414 2.8125,-5.18299 0,-1.25416 1.46025,-3.03094 3.98437,-4.84801 C 266.36764,502.7659 270,499.36275 270,497.76045 c 0,-0.87635 0.63281,-2.11855 1.40625,-2.76045 0.77344,-0.6419 1.40625,-2.23544 1.40625,-3.5412 0,-1.55026 1.30132,-3.61203 3.75,-5.94141 2.0625,-1.96201 3.75,-4.39921 3.75,-5.416 0,-2.34509 4.13997,-5.28143 8.58959,-6.09231 2.7517,-0.50145 3.6358,-1.20645 4.45313,-3.55102 1.49627,-4.29223 1.25597,-6.72598 -0.89174,-9.03128 -1.65752,-1.77915 -1.70341,-2.05178 -0.34531,-2.05178 1.29105,0 1.47613,-0.67162 1.05347,-3.82277 -0.56302,-4.19766 -2.89334,-7.42723 -5.35914,-7.42723 -2.0981,0 -4.6875,-2.94875 -4.6875,-5.33801 0,-1.05002 -0.84375,-2.98179 -1.875,-4.29281 -1.03125,-1.31101 -1.875,-2.84447 -1.875,-3.40768 0,-0.5632 -0.58116,-1.024 -1.29146,-1.024 -0.7103,0 -1.83258,-0.65201 -2.49395,-1.44892 -0.66137,-0.7969 -1.73687,-1.24385 -2.39,-0.99322 -1.49491,0.57365 -2.86171,-1.04145 -3.69667,-4.36823 -0.35631,-1.41963 -1.86679,-3.3012 -3.35663,-4.18127 -3.02128,-1.78471 -3.39619,-3.20829 -1.30254,-4.94586 1.69329,-1.40531 1.82215,-3.8966 0.28125,-5.4375 -1.56426,-1.56426 -3.5625,-1.4065 -3.5625,0.28125 0,1.96908 -1.20886,1.75071 -2.59493,-0.46875 -0.64403,-1.03125 -1.77923,-1.875 -2.52268,-1.875 -0.74344,0 -1.74233,-0.69799 -2.21975,-1.55108 -0.55244,-0.98715 -1.46043,-1.32376 -2.4974,-0.92584 -1.24063,0.47607 -1.47844,1.23755 -0.99674,3.19171 2.0558,8.34009 1.42609,10.53521 -3.0222,10.53521 -5.15466,0 -11.43983,9.62599 -11.45357,17.5416 -0.003,1.8845 -0.77258,3.72526 -2.05701,4.92188 -1.12847,1.05134 -1.76964,1.91152 -1.42482,1.91152 0.70875,0 -2.93528,6.7508 -6.39983,11.8561 -1.9406,2.85963 -2.21986,4.13548 -1.7921,8.18757 0.59835,5.66811 0.26719,6.25567 -5.04353,8.9484 -3.11222,1.578 -4.35581,1.80747 -5.34522,0.98633 -0.97005,-0.80508 -2.1049,-0.77522 -4.58208,0.12054 -2.9208,1.05618 -3.51397,0.99041 -5.25185,-0.58236 -1.62587,-1.47139 -1.85135,-2.41839 -1.32541,-5.56667 0.34856,-2.08651 0.94709,-4.0046 1.33008,-4.26241 0.38298,-0.25781 0.9859,-1.39702 1.33984,-2.53158 0.35392,-1.13455 2.08397,-2.95308 3.84452,-4.04117 2.39491,-1.48013 3.35358,-2.84937 3.80683,-5.43717 0.33319,-1.90235 1.19126,-4.39321 1.90682,-5.53522 0.71557,-1.14202 1.30103,-3.5429 1.30103,-5.3353 0,-1.79239 0.42499,-3.52156 0.94442,-3.84258 1.48052,-0.91502 4.68058,-8.08302 4.68058,-10.48432 0,-1.37969 0.55614,-2.16766 1.52993,-2.16766 0.84146,0 2.95083,-1.5066 4.6875,-3.348 3.08313,-3.26908 4.09903,-6.027 2.22007,-6.027 -0.51563,0 -0.9375,-0.58116 -0.9375,-1.29146 0,-0.7103 -0.63281,-1.81664 -1.40625,-2.45854 -2.20914,-1.83342 -1.65698,-5.27419 1.40625,-8.76302 3.40216,-3.87485 3.55094,-5.29948 0.55346,-5.29948 -2.07801,0 -2.25447,-0.35685 -2.20194,-4.45313 0.0482,-3.76091 0.67679,-5.25464 4.04364,-9.60937 2.19259,-2.83594 5.68045,-6.79043 7.75078,-8.78778 3.80498,-3.67081 4.45087,-6.57864 1.82915,-8.23484 -0.93948,-0.59347 -0.83804,-1.38426 0.47605,-3.7115 1.9235,-3.40646 1.94146,-3.35598 -1.34407,-3.77776 -3.17961,-0.40819 -6.41957,2.45695 -6.41957,5.6769 0,1.71558 -2.45121,5.2792 -8.28104,12.03915 -4.55457,5.28122 -9.30067,11.58225 -10.54688,14.00227 -1.2462,2.42002 -3.47752,5.06255 -4.95849,5.87229 -1.60861,0.87953 -3.12503,2.78928 -3.76664,4.74363 -1.12722,3.43353 -2.22445,3.80557 -7.35281,2.49314 l -2.56211,-0.65568 0.16048,7.54568 c 0.17856,8.39648 -0.32726,9.33618 -7.00959,13.02225 -2.94581,1.62495 -3.84587,1.75678 -5.39386,0.79004 -1.26007,-0.78693 -2.26725,-0.86085 -3.12955,-0.22971 -6.33807,4.63906 -6.14598,4.57133 -8.0578,2.84115 -2.18723,-1.97941 -1.61006,-3.75542 2.35055,-7.23289 2.44154,-2.1437 2.9274,-3.18866 2.64252,-5.68337 -0.192,-1.68119 -0.98092,-3.5251 -1.75318,-4.09757 -0.77225,-0.57247 -1.4041,-1.73263 -1.4041,-2.57812 0,-2.54485 -3.14024,-1.74397 -6.83811,1.74397 -3.87001,3.6503 -4.6198,3.88373 -6.23268,1.94032 -0.89256,-1.07548 -0.37794,-2.4102 2.59943,-6.74192 2.04178,-2.97054 3.5303,-5.87533 3.30782,-6.45507 -0.22247,-0.57976 0.24102,-2.29201 1.02999,-3.80497 0.78897,-1.51298 1.4371,-3.2782 1.44028,-3.92274 0.004,-0.68977 1.25924,-1.18413 3.05265,-1.20168 1.67578,-0.0164 3.86579,-0.64922 4.86668,-1.40625 2.33503,-1.76613 3.42259,-1.75429 2.73797,0.0298 -0.91246,2.37783 2.95374,1.6514 7.4843,-1.40625 5.54673,-3.74344 8.11417,-3.74344 8.11417,0 0,3.47153 1.70624,3.64215 4.6875,0.46875 1.21102,-1.28906 2.75545,-2.34375 3.43208,-2.34375 0.67665,0 1.81037,-1.38842 2.51941,-3.08538 1.28558,-3.07681 9.76145,-10.97712 11.77684,-10.97712 0.58403,0 2.63485,-0.9618 4.5574,-2.13733 1.92254,-1.17553 4.33927,-2.59031 5.37052,-3.14396 1.03125,-0.55365 2.08594,-2.22857 2.34375,-3.72205 0.6238,-3.61359 2.90692,-6.93416 4.76771,-6.93416 1.57055,0 3.26808,-1.73511 5.39682,-5.51627 1.05008,-1.86518 1.05083,-2.36323 0.005,-3.00985 -0.98932,-0.61144 -0.85926,-1.07292 0.61672,-2.1883 1.02874,-0.7774 2.50324,-1.4402 3.27668,-1.47289 0.77344,-0.0327 2.57695,-1.08963 4.00781,-2.34876 2.23559,-1.96727 2.44135,-2.54586 1.46265,-4.113 -1.43338,-2.29521 0.0689,-4.40409 3.73495,-5.24312 4.2803,-0.9796 6.73209,-3.68556 6.73209,-7.42996 0,-3.80854 -1.45391,-4.30703 -5.85937,-2.00892 -2.53587,1.32283 -2.57813,1.29921 -2.57813,-1.44145 0,-3.56953 -2.05899,-4.37157 -6.17896,-2.4069 -3.50031,1.66918 -4.10762,3.95214 -1.55541,5.84709 1.37949,1.02425 1.4541,1.52364 0.46875,3.13751 -0.64453,1.05566 -1.17188,2.4873 -1.17188,3.18145 0,0.69413 -1.66276,2.59829 -3.69502,4.23147 -2.88054,2.31486 -4.59575,2.9694 -7.78125,2.9694 -2.24742,0 -4.6063,0.52007 -5.24193,1.1557 -0.91595,0.91595 -1.26164,0.75062 -1.66632,-0.79689 -0.36344,-1.38979 -1.30036,-1.97505 -3.25055,-2.0305 -1.50708,-0.0428 -2.74005,0.31576 -2.74005,0.79689 0,0.48114 -0.97031,0.8748 -2.15625,0.8748 -1.18594,0 -2.60813,0.45188 -3.16044,1.00419 -0.71393,0.71393 -3.12152,0.70971 -8.32915,-0.0146 -4.95823,-0.68964 -7.63257,-0.71118 -8.27704,-0.0667 -2.596,2.596 -6.11054,-1.78909 -5.46715,-6.82134 0.33447,-2.61608 0.33701,-2.61693 5.89357,-1.98828 5.40549,0.61156 5.55896,0.56735 5.55899,-1.60154 2e-5,-1.42539 1.18436,-3.17545 3.28125,-4.84856 1.80467,-1.43996 3.28122,-3.28107 3.28122,-4.09137 0,-0.81031 -1.79297,-3.07058 -3.98438,-5.02282 -3.83262,-3.41435 -4.1876,-4.60366 -1.49215,-4.99927 2.66532,-0.39119 2.01201,-2.09735 -1.50122,-3.92045 -4.08285,-2.1187 -5.18474,-3.90044 -2.94396,-4.76031 0.88068,-0.33798 1.48421,-1.67245 1.48421,-3.28177 0,-2.51687 0.25734,-2.7122 3.57322,-2.7122 2.27737,0 4.3031,-0.67999 5.58581,-1.875 1.10691,-1.03125 2.98374,-1.875 4.17072,-1.875 2.13067,0 6.63148,3.43635 7.60899,5.80943 0.37114,0.90103 0.94986,0.71756 2.20415,-0.69877 0.93548,-1.05633 2.48665,-2.22147 3.44707,-2.58922 1.42669,-0.54629 1.53435,-0.92391 0.58833,-2.06378 -0.63683,-0.76733 -1.68737,-1.39516 -2.33454,-1.39516 -0.64717,0 -1.70185,-0.63281 -2.34375,-1.40625 -0.6419,-0.77344 -2.53509,-1.40625 -4.20712,-1.40625 -5.74543,0 -10.72697,-6.50191 -6.10538,-7.96875 1.03125,-0.32731 1.875,-0.98855 1.875,-1.46943 0,-1.12685 5.7633,-1.13177 8.72053,-0.007 1.28769,0.48958 3.76255,0.53255 5.68603,0.0987 2.01736,-0.45499 3.40594,-0.41421 3.40594,0.10003 0,2.48394 3.00402,1.54026 6.13736,-1.92798 2.74708,-3.04069 4.10638,-3.82518 6.62798,-3.82518 1.74468,0 3.17216,-0.42187 3.17216,-0.9375 0,-0.51562 -0.50625,-0.9375 -1.125,-0.9375 -0.875,0 -0.875,-0.25 0,-1.125 1.90494,-1.90494 1.29231,-2.48585 -3.32813,-3.15575 -2.44921,-0.35511 -4.78368,-0.83648 -5.18771,-1.06972 -0.40402,-0.23324 0.5554,-1.89329 2.13204,-3.68898 1.57665,-1.79571 3.73908,-5.12098 4.80541,-7.38949 2.01905,-4.29535 4.206,-5.67566 7.39089,-4.66481 2.28662,0.72575 2.38085,-0.26685 0.3065,-3.2284 -1.53378,-2.18976 -1.48707,-2.30827 2.10937,-5.3509 2.02284,-1.71135 4.31069,-3.12429 5.08413,-3.13986 0.77344,-0.0156 2.01193,-0.41156 2.75222,-0.87999 1.11041,-0.70264 1.13311,-1.10817 0.12968,-2.31722 -0.71601,-0.86274 -0.97308,-2.43454 -0.62498,-3.82145 0.47214,-1.88108 0.24134,-2.35586 -1.14531,-2.35586 -0.95513,0 -2.05302,0.31641 -2.43974,0.70312 -0.38672,0.38672 -1.08984,0.75586 -1.56249,0.82032 -0.47266,0.0644 -1.23999,0.16992 -1.70516,0.23437 -0.46519,0.0644 -1.28095,1.36545 -1.81279,2.89111 -0.62507,1.79306 -2.08149,3.23959 -4.11883,4.09085 -1.73352,0.7243 -3.85179,2.38517 -4.70727,3.6908 -2.06011,3.14412 -9.76308,4.10052 -10.64505,1.32168 -0.3534,-1.11347 0.11288,-2.19539 1.30646,-3.0314 1.02079,-0.71499 2.12106,-2.71299 2.44505,-4.44 0.43979,-2.34421 1.34421,-3.47862 3.56862,-4.47606 3.51141,-1.57453 4.55154,-3.67979 1.81804,-3.67979 -1.04378,0 -2.15852,-0.42187 -2.4772,-0.9375 -1.06574,-1.7244 -4.15898,-0.96276 -5.71121,1.40625 -2.11702,3.23097 -3.19504,2.93333 -3.19504,-0.88217 0,-4.49319 -1.38956,-4.89454 -5.24032,-1.51354 -3.52674,3.09653 -5.76264,3.09384 -4.10423,-0.005 0.87526,-1.6357 0.64885,-1.81836 -2.25345,-1.81836 -2.63827,0 -3.14649,-0.30581 -2.78779,-1.67749 0.24841,-0.94994 -0.39957,-2.43608 -1.49402,-3.42655 -1.06298,-0.96199 -1.93269,-2.65399 -1.93269,-3.76001 0,-1.10602 -0.3658,-2.41173 -0.8129,-2.90158 -0.44708,-0.48984 -1.46517,-2.86227 -2.26241,-5.27205 -1.36945,-4.1394 -1.35044,-4.4711 0.34415,-6.00467 2.45366,-2.22054 2.29414,-4.25913 -0.31572,-4.03482 -5.20426,0.44727 -7.02303,-0.27359 -11.28029,-4.47083 -3.2264,-3.18094 -4.42283,-5.08641 -4.42283,-7.04397 0,-1.47591 -0.52104,-3.51779 -1.15787,-4.53751 -0.98901,-1.58367 -0.86165,-2.06151 0.87338,-3.27678 1.11719,-0.7825 2.16556,-2.36393 2.32974,-3.51428 0.34742,-2.43431 3.57975,-3.52594 3.57975,-1.20897 0,2.23272 2.81824,6.12951 4.43298,6.12951 1.02766,0 1.294,-0.75512 0.99204,-2.8125 -0.28577,-1.9471 -0.021,-2.8125 0.86052,-2.8125 2.06028,0 2.51064,-2.73727 0.76731,-4.66364 -1.37728,-1.52187 -1.45152,-2.26774 -0.50975,-5.12133 0.60627,-1.83702 1.47662,-3.34003 1.93412,-3.34003 1.22917,0 2.77278,3.29419 2.77278,5.91732 0,1.25983 0.67676,2.85226 1.50392,3.53874 0.82715,0.68647 1.87139,2.21469 2.32054,3.39603 1.29768,3.41317 7.42554,2.10949 7.42554,-1.57975 0,-0.98268 0.40942,-2.03972 0.90982,-2.34898 0.51397,-0.31765 0.6992,-2.95979 0.42573,-6.07284 l -0.48407,-5.51055 3.32426,-1.20207 c 1.82835,-0.66113 3.32426,-1.53919 3.32426,-1.95123 0,-0.41204 1.03843,-0.74917 2.30762,-0.74917 1.92651,0 2.47956,0.65801 3.34881,3.98437 0.57267,2.19141 1.58001,4.40625 2.23855,4.92188 0.65854,0.51562 1.23128,1.14844 1.27278,1.40625 0.0415,0.25781 0.55807,1.73437 1.14796,3.28125 1.03414,2.71181 0.93132,4.852 -0.47292,9.84375 -0.36263,1.28906 -0.96377,4.35769 -1.33585,6.81916 -0.37208,2.46147 -1.17274,4.97163 -1.77923,5.57812 -0.6065,0.6065 -1.10272,1.86209 -1.10272,2.79022 0,2.85727 3.98761,2.08185 5.81577,-1.13093 0.87836,-1.54362 2.14942,-2.80657 2.82457,-2.80657 0.67515,0 1.64399,-0.92193 2.15298,-2.04873 0.50898,-1.1268 1.45277,-2.21664 2.0973,-2.42187 2.0078,-0.63933 1.28684,2.31513 -1.32135,5.41477 -2.16696,2.57529 -2.528,3.93201 -2.75899,10.36778 -0.20882,5.8177 0.0366,7.57402 1.14531,8.19444 0.91754,0.51349 1.48852,2.47527 1.63247,5.60888 0.12177,2.65055 0.47783,5.07562 0.79125,5.38905 0.31343,0.31342 2.19146,0.11959 4.17341,-0.43075 1.98194,-0.55034 4.97462,-1.00297 6.65041,-1.00584 1.73519,-0.003 3.04687,-0.48764 3.04687,-1.12581 0,-2.23 4.99238,-6.37942 7.6754,-6.37942 3.00811,0 3.01627,-0.0171 1.54911,-3.23714 -1.22658,-2.69207 -3.31162,-3.04364 -5.99845,-1.01142 -2.47507,1.87203 -4.50558,1.77295 -6.39238,-0.31194 -1.39855,-1.54538 -1.44255,-2.26981 -0.37967,-6.24952 0.95915,-3.59131 0.96529,-4.5806 0.0304,-4.89263 -1.56618,-0.5227 -1.4859,-5.06855 0.15674,-8.87492 0.73072,-1.69327 1.8366,-4.44977 2.45748,-6.12556 1.4232,-3.84124 2.60245,-3.84297 5.7653,-0.008 1.89579,2.29839 2.78839,2.78983 3.6029,1.98367 1.73326,-1.71547 -0.5767,-11.33444 -2.8989,-12.07148 -2.16541,-0.68727 -2.37428,-2.17096 -0.41164,-2.92409 0.77344,-0.29681 1.40625,-1.06193 1.40625,-1.70028 0,-0.63835 0.84375,-1.92423 1.875,-2.8575 2.37247,-2.14705 2.39304,-3.86459 0.0536,-4.47637 -1.71785,-0.44923 -1.74804,-0.73513 -0.53126,-5.03121 0.70955,-2.50521 1.63464,-6.24242 2.05573,-8.30492 0.72418,-3.54685 0.94341,-3.74383 4.0469,-3.63618 1.80469,0.0626 4.22295,0.42625 5.37392,0.8081 1.67973,0.55728 2.26169,0.24972 2.94921,-1.5586 0.4711,-1.23908 1.50633,-2.79216 2.30053,-3.45128 2.24605,-1.86406 5.31384,0.21374 5.31384,3.59903 0,1.73206 0.73953,3.24435 2.02778,4.14667 2.48621,1.74141 3.88027,1.05473 3.06616,-1.51029 -0.39149,-1.2335 -0.25379,-1.69501 0.38751,-1.29867 1.82334,1.12689 5.76855,-0.48487 5.76855,-2.35666 0,-2.63391 3.54049,-2.33037 3.91917,0.336 0.24737,1.74179 0.97413,2.15864 4.17045,2.39211 3.73063,0.27249 3.88832,0.1706 4.35255,-2.8125 0.61466,-3.94977 -3.25506,-8.64289 -6.4627,-7.83782 -1.51305,0.37975 -1.98602,0.098 -1.88949,-1.12543 0.0945,-1.19753 -0.70239,-1.71168 -2.99346,-1.93137 -2.52972,-0.24258 -2.9887,-0.5984 -2.41866,-1.875 0.38697,-0.86659 0.88802,-3.47405 1.11345,-5.79436 0.57637,-5.93225 1.86357,-7.262 4.36208,-4.50625 1.07835,1.18937 2.97979,2.73994 4.22541,3.4457 1.99903,1.13262 2.41039,1.0841 3.50549,-0.41356 2.15842,-2.9518 0.84315,-13.82429 -2.407,-19.897262 -0.80045,-1.495651 -0.82868,-2.583854 -0.10229,-3.941138 1.27912,-2.390049 2.45913,-2.390049 3.08414,0 0.51756,1.979156 4.41586,2.705438 4.41586,0.822713 0,-0.71415 0.46471,-0.666629 1.44612,0.147881 1.44292,1.197515 9.4403,1.580494 10.51715,0.503644 0.31238,-0.312394 0.0687,-1.067204 -0.5414,-1.677363 C 333.19115,91.878651 333.36556,78.75 335.05595,78.75 c 0.71827,0 1.54878,-0.632813 1.84558,-1.40625 0.29679,-0.773438 1.18567,-1.40625 1.9753,-1.40625 0.78962,0 1.43567,-0.604384 1.43567,-1.343074 0,-0.738691 0.84375,-1.61087 1.875,-1.938176 2.26304,-0.718261 2.38494,-2.101378 0.38043,-4.316341 -2.20783,-2.439629 -0.95119,-7.402409 1.87439,-7.402409 2.34139,0 6.18268,-3.566635 6.18268,-5.740614 0,-0.77056 0.55832,-2.164561 1.24071,-3.097782 0.93754,-1.282175 1.68202,-1.47925 3.04687,-0.806557 0.99339,0.489613 3.21145,1.594399 4.92902,2.45508 1.71757,0.86068 3.898,1.564873 4.84541,1.564873 0.94741,0 2.5871,1.39885 3.64376,3.108557 1.05665,1.709705 2.77857,3.884466 3.82646,4.8328 1.0479,0.948335 1.90527,2.50261 1.90527,3.453944 0,3.025398 3.43912,2.112264 4.07812,-1.082801 0.86754,-4.337692 5.0115,-3.924577 9.40411,0.9375 3.75693,4.158488 4.79292,4.470338 7.30333,2.198449 1.37157,-1.241252 1.71444,-1.286352 1.71444,-0.225512 0,0.729321 0.78173,1.814237 1.73718,2.410925 2.16199,1.350191 10.45032,1.436105 10.45032,0.108326 0,-0.597026 1.1568,-0.745203 2.97649,-0.381266 2.30565,0.46113 3.46776,0.13377 5.15625,-1.452481 2.07828,-1.952444 2.17976,-1.963125 2.17976,-0.229409 0,1.329315 1.23152,2.255765 4.57895,3.444669 6.43719,2.286287 11.98949,2.086006 16.41371,-0.592071 2.89932,-1.755015 4.53635,-2.112004 7.96875,-1.737758 2.37592,0.259053 4.65721,1.04422 5.06955,1.744817 0.41234,0.700596 1.81356,1.273811 3.11384,1.273811 1.30027,0 2.99694,0.632812 3.77038,1.40625 1.67422,1.67422 5.02232,1.870746 5.02232,0.294798 0,-0.611299 -0.91313,-2.08344 -2.02919,-3.271427 -1.95941,-2.085698 -1.97123,-2.224029 -0.34345,-4.02269 1.91761,-2.118952 3.31014,-1.714718 3.31014,0.960897 0,1.611473 0.68574,1.819672 5.99345,1.819672 4.46268,0 6.13127,0.359167 6.53308,1.40625 0.34647,0.902896 1.80854,1.411388 4.08468,1.420606 3.99764,0.01619 6.71816,1.237411 5.05138,2.267535 -0.57068,0.352696 -1.03759,1.375905 -1.03759,2.273796 0,0.897892 -2.13796,4.031264 -4.75102,6.963048 -3.69073,4.140907 -4.68452,5.908751 -4.45312,7.921516 0.23573,2.050333 0.84466,2.653746 2.91814,2.891711 2.21888,0.254644 2.52133,0.61366 1.97447,2.34375 -0.35517,1.123669 -1.63974,3.348488 -2.85462,4.944028 -1.21487,1.59555 -2.20885,3.37437 -2.20885,3.95295 0,0.57858 -2.75516,3.13767 -6.12259,5.68688 -4.79599,3.63066 -7.18197,4.78062 -11.01191,5.30737 -4.42671,0.60883 -5.55495,1.31064 -11.92429,7.4174 -4.35031,4.17097 -9.36043,7.88986 -13.12871,9.7451 -3.35156,1.65009 -7.99219,4.00178 -10.3125,5.22597 -2.32031,1.22419 -4.99708,2.48248 -5.94838,2.79618 -0.9513,0.31371 -1.95078,1.41605 -2.22108,2.44966 -0.27029,1.03362 -2.02321,2.54324 -3.89537,3.35473 -1.87216,0.81149 -4.73343,2.0464 -6.35839,2.74424 -2.44136,1.04846 -3.07204,1.96479 -3.63153,5.27637 -0.96577,5.71632 -2.25528,7.36091 -5.77168,7.36091 -3.78284,0 -4.72405,1.44971 -2.5214,3.88361 1.39764,1.54438 2.42443,1.78346 5.60866,1.30596 2.86599,-0.42978 4.28097,-0.20135 5.34527,0.86296 2.2747,2.27469 5.4324,1.70997 8.94328,-1.59941 2.14804,-2.02475 3.02788,-2.47078 2.62276,-1.32957 -0.33531,0.94452 -0.60964,2.07234 -0.60964,2.50628 0,0.43394 -6.43359,6.80677 -14.29688,14.16185 -7.86328,7.35509 -14.43736,13.94774 -14.60909,14.65033 -0.23491,0.9612 0.75436,1.22223 3.9961,1.05443 2.37531,-0.12296 4.80779,0.27648 5.42158,0.89027 2.49567,2.49567 12.83085,0.82095 17.58512,-2.8495 1.92785,-1.48838 3.57606,-1.73795 9.84375,-1.49058 7.19719,0.28406 7.54134,0.20438 7.82775,-1.81225 0.2635,-1.85535 0.88446,-2.1264 5.15625,-2.25075 8.68983,-0.25296 10.23841,0.15187 13.27894,3.47136 1.59211,1.73818 4.43285,3.80299 6.31275,4.58846 1.87991,0.78548 3.6827,1.85641 4.0062,2.37985 0.71676,1.15973 6.32018,1.26516 7.55565,0.14215 2.42622,-2.20536 6.84448,-2.76943 10.88091,-1.38917 2.23972,0.76587 4.473,1.78483 4.96284,2.26435 0.48985,0.47954 1.81272,0.87187 2.93971,0.87187 1.127,0 3.25747,0.63022 4.73438,1.40048 1.47691,0.77025 3.39867,1.40307 4.27058,1.40625 0.87192,0.003 1.80198,0.35636 2.06681,0.78486 0.26482,0.42849 3.49536,1.34776 7.17897,2.04281 5.22765,0.98638 7.09083,1.01806 8.48987,0.14435 1.45791,-0.91048 2.48338,-0.76685 5.49526,0.76969 4.44716,2.26878 5.97212,2.35699 7.5651,0.43757 1.47856,-1.78155 5.1187,-1.41603 5.1187,0.51399 0,2.1183 2.49562,5.04533 5.39062,6.32246 1.58715,0.70017 2.57813,1.86578 2.57813,3.03244 0,1.0423 0.42187,1.8951 0.9375,1.8951 0.51562,0 0.9375,0.63281 0.9375,1.40625 0,0.77344 0.45201,1.40625 1.00447,1.40625 2.36003,0 3.68303,2.83844 3.68303,7.90178 0,4.19306 0.29999,5.22322 1.52104,5.22322 1.23995,0 1.3072,0.25767 0.36387,1.39432 -0.63645,0.76686 -0.90312,2.05635 -0.59262,2.86551 0.39264,1.02321 -2.57295,4.53175 -9.73887,11.5219 -5.66688,5.52789 -10.30342,10.48456 -10.30342,11.01485 0,0.53028 -1.08399,2.4172 -2.40888,4.19316 -3.64038,4.8798 -5.28702,9.39569 -4.80244,13.1706 0.46329,3.60903 -1.0368,6.44392 -7.89913,14.92777 -4.07397,5.03665 -5.51455,7.67696 -5.51455,10.10718 0,5.37347 -10.72569,17.32949 -18.95587,21.13025 -2.81116,1.29821 -3.69905,2.37682 -4.58042,5.56429 -0.60133,2.17466 -2.30302,5.04047 -3.78155,6.36848 -1.77144,1.5911 -2.62273,3.20595 -2.49618,4.73508 0.25473,3.07782 -4.62851,9.20821 -7.87243,9.88299 -1.39162,0.28948 -3.24997,1.32165 -4.12968,2.29373 -0.87971,0.97206 -2.13114,1.76739 -2.78095,1.76739 -0.64982,0 -2.3482,1.23613 -3.77417,2.74696 -2.35987,2.50028 -2.76458,2.62656 -4.50682,1.40625 -2.37281,-1.66198 -5.1996,-1.67275 -7.3667,-0.028 -1.76545,1.33985 -1.04973,2.45522 2.35414,3.66865 2.02305,0.72119 2.17038,4.66196 0.23438,6.26871 -0.77344,0.64189 -1.40625,2.18928 -1.40625,3.43865 0,2.71603 3.8754,6.87385 6.40695,6.87385 0.99662,0 3.32344,1.85344 5.19656,4.13934 l 3.39188,4.13934 -3.98207,2.93106 c -2.19014,1.61209 -5.03676,3.15116 -6.32582,3.42016 -1.28906,0.269 -3.93121,1.06332 -5.87144,1.76516 -3.31406,1.1988 -3.69128,1.13843 -6.22909,-0.99699 -4.03159,-3.39236 -7.78575,-2.99711 -13.04377,1.3733 -2.41283,2.00551 -5.348,3.93613 -6.52262,4.29028 -1.18991,0.35875 -2.85199,2.16909 -3.7532,4.08799 -1.49737,3.1883 -2.00025,3.49326 -6.77058,4.10586 -13.3901,1.71954 -14.18497,2.26296 -9.60618,6.56729 1.76699,1.66107 4.11183,2.62678 7.45284,3.06939 2.68109,0.35519 5.36946,1.24193 5.97417,1.97055 0.6047,0.72862 1.64545,1.32477 2.31279,1.32477 0.66733,0 1.38942,0.52734 1.60463,1.17187 0.27025,0.80935 2.50909,1.1367 7.23692,1.05819 6.2634,-0.10404 7.01416,-0.32954 8.82744,-2.65157 6.14822,-7.8732 6.47325,-8.164 8.45368,-7.56298 1.08111,0.32808 3.44222,0.81353 5.24691,1.07878 3.52881,0.51864 9.375,5.66291 9.375,8.24938 0,0.80785 0.56799,1.46883 1.26221,1.46883 2.62075,0 7.22347,3.05934 11.11558,7.3883 4.59147,5.10682 7.67144,7.04345 10.16479,6.39142 0.98661,-0.258 2.43567,0.33297 3.38291,1.37967 0.92202,1.01881 2.40224,1.63611 3.33706,1.39165 1.31934,-0.34501 1.59741,0.0163 1.29518,1.68298 -0.23573,1.29997 0.30816,2.71568 1.40371,3.65371 0.98371,0.84228 1.78856,2.40025 1.78856,3.46215 0,1.0619 0.63275,3.15433 1.4061,4.64983 0.77335,1.4955 1.88017,4.92961 2.45959,7.63134 0.57942,2.70173 1.8615,5.57048 2.84907,6.37497 0.98757,0.8045 2.31791,2.51524 2.95631,3.80165 0.72487,1.46062 2.20738,2.51834 3.94796,2.81671 2.48132,0.42535 2.81924,0.88889 3.07905,4.22358 0.23293,2.98975 1.16725,4.63984 4.62907,8.17537 4.83829,4.9413 4.63403,4.30754 5.45313,16.9198 0.48917,7.53203 0.32815,9.56916 -0.90513,11.45138 -1.91605,2.92427 -1.91628,6.96918 -5.4e-4,9.70428 1.37448,1.96234 1.37448,2.27926 0,3.79804 -1.80693,1.99665 -1.88128,5.38829 -0.18521,8.44891 0.68638,1.23859 1.05417,2.99309 0.8173,3.89888 -0.27469,1.05043 0.17077,1.76273 1.23,1.96676 1.5856,0.30541 1.58495,0.39558 -0.0144,1.99484 -1.75595,1.75595 -1.89704,3.25148 -0.92633,9.81958 0.39145,2.64872 1.36304,4.60235 2.88379,5.79856 1.93336,1.5208 2.28594,2.58626 2.24579,6.7867 -0.0707,7.3937 0.004,8.26398 0.71078,8.26341 0.35468,-2.8e-4 0.70599,4.113 0.78072,9.14063 0.0747,5.02763 0.41244,11.46146 0.75047,14.2974 0.72271,6.06316 4.02022,13.23524 6.36737,13.84903 1.87698,0.49084 2.18902,1.7534 0.56698,2.29407 -1.20927,0.4031 -0.3351,5.4194 0.94442,5.4194 0.41835,0 3.04703,2.12695 5.84152,4.72655 2.79449,2.59961 6.23158,4.97077 7.63798,5.26924 1.40641,0.29847 3.04009,1.12464 3.63042,1.83594 0.59032,0.7113 1.91048,1.29327 2.93368,1.29327 2.13491,0 10.45783,6.31414 13.68113,10.37912 1.19752,1.51023 2.77691,2.74588 3.50974,2.74588 1.86152,0 6.96918,7.31748 6.96918,9.98441 0,1.2117 0.41104,2.20309 0.91343,2.20309 1.38373,0 3.47202,4.64478 4.215,9.375 1.46043,9.29794 3.29589,13.8299 6.63161,16.37418 2.64688,2.01887 3.19259,3.0126 3.00295,5.4684 -0.12745,1.65064 -0.60525,3.27229 -1.06176,3.60367 -1.31244,0.95269 0.23729,5.49125 1.87503,5.49125 0.81293,0 2.71469,0.88057 4.22616,1.95683 l 2.74812,1.95683 -2.74799,3.12978 c -1.51139,1.72139 -3.03895,4.45455 -3.39457,6.07371 -1.14994,5.23564 1.27725,18.63223 4.67247,25.7891 1.71228,3.60937 3.36962,7.19531 3.68297,7.96875 0.31335,0.77343 1.378,2.67187 2.36588,4.21875 0.98789,1.54687 1.82699,3.35001 1.86468,4.00698 0.0377,0.65696 1.54508,3.34101 3.34977,5.96457 1.80469,2.62355 3.28125,5.51377 3.28125,6.42271 0,0.90894 0.24486,3.07644 0.54413,4.81667 0.52503,3.05296 0.50035,3.08442 -0.70312,0.89571 -0.686,-1.24759 -2.71003,-3.0832 -4.49786,-4.07914 -2.69598,-1.50183 -3.80016,-1.64213 -6.4715,-0.82227 -4.01946,1.2336 -5.20058,0.61236 -10.2732,-5.40347 -2.21241,-2.62378 -4.58512,-4.77051 -5.27271,-4.77051 -1.75155,0 -2.49175,2.43763 -1.49703,4.93001 1.36697,3.42516 8.5141,11.43579 10.68905,11.98052 1.21302,0.3038 2.88035,2.26052 4.19397,4.92187 1.19926,2.42968 2.57036,4.4176 3.04687,4.4176 0.47652,0 0.8664,0.77837 0.8664,1.72969 0,2.39043 2.73492,4.63308 6.09375,4.99691 3.79718,0.41131 5.40855,5.02954 3.59328,10.29842 -0.82767,2.40231 -0.9419,4.25403 -0.35102,5.69 0.48177,1.1708 1.54898,4.57451 2.37157,7.56378 1.46525,5.32468 3.71587,7.69486 5.13157,5.4042 1.24944,-2.02163 1.91085,1.479 1.91085,10.11354 0,7.17218 -0.28351,8.56042 -2.37755,11.64209 -1.30764,1.92434 -2.80735,3.49883 -3.33268,3.49883 -3.08938,0 -21.47726,14.95879 -21.47726,17.47204 0,0.70288 -0.66375,1.27796 -1.47499,1.27796 -2.52717,0 -1.05048,3.09781 1.84594,3.8724 3.51313,0.93952 8.05819,5.31112 8.09636,7.78737 0.0472,3.0604 2.25744,5.21523 5.34938,5.21523 1.5558,0 3.36684,0.64839 4.02453,1.44086 0.65771,0.79248 1.86952,1.33035 2.69293,1.19528 0.8234,-0.13508 2.02743,0.087 2.67559,0.49355 0.7227,0.45328 1.39523,0.17437 1.73887,-0.72113 0.30819,-0.80317 0.90888,-1.2449 1.33485,-0.98163 0.42596,0.26326 1.04131,0.0469 1.36743,-0.48076 0.32613,-0.52768 -0.0856,-1.2198 -0.91497,-1.53806 -1.30971,-0.50259 -1.25591,-0.75516 0.40933,-1.92154 1.05449,-0.73859 1.91725,-1.81356 1.91725,-2.38884 0,-0.57528 0.73828,-2.64985 1.64062,-4.61016 1.18133,-2.56639 2.23115,-3.57097 3.75,-3.58838 1.30767,-0.015 2.10938,-0.60023 2.10938,-1.53978 0,-1.12513 0.54344,-1.36047 2.10937,-0.91349 1.16016,0.33115 4.11329,0.861 6.5625,1.17742 3.36936,0.43531 4.45313,0.27178 4.45313,-0.67194 0,-0.91768 0.30967,-0.85805 1.17187,0.22565 1.66425,2.09177 11.01563,3.0617 11.01563,1.14255 0,-1.05493 0.75845,-1.28892 3.04687,-0.94 1.67579,0.25552 5.30612,0.71693 8.06742,1.02537 2.76129,0.30843 7.16447,1.59505 9.78483,2.85915 2.62035,1.26411 5.50923,2.29838 6.41972,2.29838 2.9738,0 6.53618,2.12408 5.98245,3.56707 -0.61025,1.5903 1.21812,4.14748 2.42994,3.39853 0.4572,-0.28257 0.84469,0.24942 0.86108,1.18219 0.0446,2.54005 2.26121,4.97721 4.52666,4.97721 1.15814,0 2.00603,0.59438 2.00603,1.40625 0,0.77344 0.41384,1.40625 0.91964,1.40625 0.5058,0 1.18434,1.05469 1.50789,2.34375 0.36546,1.45614 1.25307,2.34375 2.34375,2.34375 1.09066,0 1.97827,0.88761 2.34375,2.34375 0.32353,1.28906 1.17531,2.34375 1.89285,2.34375 0.71754,0 1.30462,0.60409 1.30462,1.34242 0,0.73831 1.26562,2.24361 2.8125,3.34508 1.54687,1.10147 2.8125,2.62 2.8125,3.37451 0,0.75451 0.63281,1.61467 1.40625,1.91146 1.00074,0.38403 1.40625,1.9466 1.40625,5.41881 0,3.42013 0.50956,5.42612 1.70403,6.70823 2.51704,2.70172 2.54749,19.13702 0.0437,23.59474 -0.96127,1.7115 -1.74776,4.31288 -1.74776,5.781 0,1.46803 -0.58743,3.15666 -1.30538,3.75253 -0.71797,0.59588 -1.85505,2.4405 -2.52685,4.09922 -0.67182,1.65862 -2.4224,4.53197 -3.89021,6.38503 -1.92882,2.43525 -2.94627,5.15213 -3.66979,9.7995 -0.5506,3.53653 -1.53739,7.29375 -2.19289,8.34938 -0.6555,1.05562 -1.4701,3.11587 -1.81022,4.57818 -0.80078,3.44297 -4.56981,7.18491 -7.23696,7.18491 -1.38549,0 -4.54625,2.5342 -9.35453,7.5 -5.12731,5.2954 -7.92679,7.5 -9.52354,7.5 -2.25918,0 -5.36463,2.5541 -5.36463,4.4122 0,0.5407 0.63282,1.5084 1.40625,2.1503 1.98402,1.6466 1.83552,2.0704 -2.10937,6.0188 -6.51294,6.519 -17.58015,9.5622 -18.73363,5.1513 -0.44047,-1.6844 -0.97528,-1.8678 -3.86421,-1.3259 -4.41061,0.8275 -8.77842,3.1291 -8.08061,4.2582 0.3051,0.4937 1.13171,0.8976 1.83691,0.8976 1.73929,0 2.13896,2.5268 1.11216,7.0313 -0.47014,2.0625 -0.9097,5.5181 -0.97678,7.6792 -0.13644,4.3955 -1.64242,6.2108 -7.62197,9.1877 -2.0625,1.0267 -4.44216,2.4215 -5.28814,3.0995 -1.28121,1.0265 -2.35546,0.9651 -6.43079,-0.3679 -4.55727,-1.4905 -5.07224,-1.4942 -7.51275,-0.053 -1.44106,0.8512 -3.50424,1.5477 -4.58484,1.5477 -1.30031,0 -1.96473,0.598 -1.96473,1.7686 0,1.3683 0.92294,1.9069 4.07819,2.38 2.80523,0.4208 4.92681,1.4985 6.79688,3.4529 2.71591,2.8384 5.44264,4.3639 11.62493,6.5038 3.25593,1.1269 7.5,6.196 7.5,8.9579 0,1.9616 2.59055,2.685 4.9991,1.3959 2.55427,-1.367 33.17496,-0.7225 34.62626,0.7287 1.28003,1.2801 -0.86362,6.4477 -3.19144,7.6935 -1.51352,0.81 -1.74642,2.1106 -1.74642,9.7526 0,4.8674 -0.42002,9.0776 -0.9375,9.3974 -0.51562,0.3186 -0.9375,1.3193 -0.9375,2.2236 0,0.9044 -1.18323,2.7779 -2.62942,4.1634 -2.20264,2.1104 -3.46697,2.5192 -7.78957,2.5192 -3.08579,0 -5.8917,0.5533 -6.97995,1.3764 -1.00089,0.7571 -3.41865,1.3899 -5.37278,1.4063 -4.63574,0.039 -10.26431,2.9689 -13.26772,6.9066 -1.85577,2.433 -2.39806,4.2369 -2.39806,7.9773 0,3.2524 -0.38332,4.8268 -1.17187,4.8134 -0.64453,-0.011 -4.73478,-1.2254 -9.08945,-2.6987 l -7.91756,-2.6787 -3.33244,3.2484 c -4.67559,4.5575 -7.63126,5.5847 -18.30868,6.3621 -11.34709,0.8263 -11.94278,1.0416 -17.83625,6.4466 -5.13462,4.709 -7.72215,5.3276 -10.3125,2.4653 -0.93327,-1.0312 -2.63449,-1.875 -3.7805,-1.875 -1.14602,0 -2.62392,-0.651 -3.28423,-1.4466 -1.73147,-2.0863 -10.82073,-6.0534 -13.8693,-6.0534 -1.42847,0 -3.05818,0.461 -3.62157,1.0243 -1.49938,1.4995 -4.54459,-0.4055 -6.03661,-3.7762 l -1.22864,-2.7757 -22.3961,0.1856 -22.3961,0.1858 -2.64171,3.165 -2.64171,3.1651 -4.88215,-4.8057 c -3.04305,-2.9954 -5.70047,-4.8057 -7.05452,-4.8057 -1.19481,0 -3.14145,-0.3973 -4.32587,-0.8828 -1.18442,-0.4857 -4.55024,-1.1452 -7.4796,-1.4657 -4.43424,-0.4852 -6.02821,-1.2008 -9.51886,-4.2734 -2.30601,-2.0298 -4.99286,-3.6906 -5.97076,-3.6906 -2.30505,0 -4.02802,1.7626 -4.02802,4.1206 0,1.9022 4.32717,7.1294 5.90186,7.1294 0.47495,0 2.8218,0.904 5.21522,2.009 6.97033,3.2178 9.27629,10.1785 3.37198,10.1785 -2.28882,0 -4.57896,2.2548 -5.5623,5.4763 -0.5141,1.6843 -1.13985,2.0691 -2.68901,1.6535 -1.11045,-0.298 -3.91744,-0.5552 -6.23775,-0.5717 -3.88042,-0.027 -4.74061,-0.5173 -10.72604,-6.1065 -5.42789,-5.0686 -7.04897,-6.0766 -9.7728,-6.0766 l -3.2655,0 2.13237,-2.2698 2.13238,-2.2699 -3.98461,-2.8863 c -2.19154,-1.5876 -4.95111,-2.8865 -6.13238,-2.8865 -1.18127,0 -2.42266,-0.4448 -2.75865,-0.9884 -0.4049,-0.6552 -1.38085,-0.4839 -2.89431,0.5077 -1.25588,0.8229 -2.62926,1.2824 -3.05195,1.0212 -0.4227,-0.2613 -3.435,-0.555 -6.69401,-0.6528 -5.41171,-0.1624 -6.11815,0.046 -8.14758,2.4055 -1.7588,2.0447 -1.99209,2.8605 -1.11887,3.9127 0.86502,1.0423 0.74029,1.7303 -0.57772,3.1867 -0.92451,1.0215 -2.24836,1.8574 -2.94188,1.8574 -0.69352,0 -1.26095,0.6328 -1.26095,1.4063 0,1.6921 -5.62165,1.9721 -7.23358,0.3601 -2.60222,-2.6022 -9.37554,-5.7481 -13.08045,-6.0753 -1.63365,-0.1443 -4.72032,-1.1551 -6.85927,-2.2464 -2.13897,-1.0911 -5.33749,-2.1694 -7.10786,-2.3961 -2.67513,-0.3425 -3.21884,-0.1133 -3.21884,1.3568 0,0.9729 -0.59212,1.9962 -1.31583,2.2739 -1.86798,0.7168 -5.24667,-0.3193 -5.24667,-1.609 0,-1.5256 -12.7933,-13.7824 -17.50226,-16.7682 -2.14968,-1.3631 -5.00133,-2.7525 -6.33698,-3.0878 -1.33566,-0.3352 -2.66032,-0.9846 -2.9437,-1.4432 -0.66869,-1.0819 -4.82806,-1.0818 -5.49679,3e-4 -0.7663,1.2399 -7.23571,1.8234 -9.78743,0.8829 -1.38723,-0.5114 -2.66527,-0.4529 -3.39833,0.1555 -0.72224,0.5994 -3.65828,0.7507 -7.62034,0.3928 -6.31252,-0.5704 -6.50219,-0.5224 -9.19894,2.3262 -1.51444,1.5999 -3.49344,2.9087 -4.39779,2.9087 -0.90435,0 -1.92028,0.4465 -2.25761,0.9923 -0.35871,0.5805 -1.78402,0.7353 -3.4333,0.3731 -2.51872,-0.5532 -3.30328,-0.1046 -7.34407,4.1994 -4.64352,4.946 -6.60728,9.7354 -4.7523,11.5903 1.73474,1.7348 1.16673,2.5324 -1.80336,2.5324 -2.18668,0 -3.0465,0.5544 -3.7567,2.4224 -1.07866,2.8371 -0.5109,4.1401 1.80398,4.1401 2.37818,0 3.07465,1.0198 1.77002,2.5918 -0.61993,0.747 -1.56822,2.2429 -2.10731,3.3242 -0.59523,1.1939 -2.52301,2.3513 -4.90862,2.9468 -4.77354,1.192 -9.65317,5.6237 -9.65317,8.7673 l 0,2.2792 -8.20312,-0.6774 c -4.51172,-0.3725 -8.55372,-0.8903 -8.98222,-1.1506 -0.42849,-0.2604 -0.52174,-1.4987 -0.2072,-2.752 1.09629,-4.3679 -4.20844,-8.7581 -10.60525,-8.7767 -2.61007,-0.01 -4.092,-0.7214 -6.32663,-3.0469 -1.60499,-1.6704 -2.79865,-3.8013 -2.65257,-4.7356 0.40598,-2.5963 -2.02125,-2.9276 -5.67135,-0.774 -2.47926,1.4628 -3.28916,1.6227 -3.28916,0.6494 0,-0.7102 -1.23579,-2.3312 -2.74621,-3.6021 -3.01029,-2.533 -12.41559,-4.3208 -14.41273,-2.7397 -1.54562,1.2237 -9.9408,2.0343 -10.56745,1.0203 -0.2801,-0.4532 -1.71484,-0.824 -3.18831,-0.824 -1.47348,0 -2.85653,-0.5273 -3.07347,-1.1719 -0.30749,-0.9136 -0.73794,-0.8883 -1.95312,0.1148 -1.01329,0.8364 -1.55871,0.9184 -1.55871,0.2344 0,-0.6027 -1.60228,-1.0523 -3.75,-1.0523 -2.78409,0 -3.75,0.3795 -3.75,1.4732 0,0.8103 -0.64713,2.1203 -1.43807,2.9113 -0.79094,0.791 -1.20685,2.1666 -0.92425,3.057 0.29684,0.9353 -0.24564,2.3063 -1.28462,3.2465 -1.53745,1.3913 -2.08671,1.4482 -3.78479,0.3917 -1.6888,-1.0508 -2.41578,-0.9902 -4.85328,0.4047 -1.57682,0.9023 -3.90067,1.6406 -5.16413,1.6406 -1.34117,0 -2.53934,0.6828 -2.87903,1.6406 -1.24292,3.5048 -3.16836,4.7944 -6.38001,4.2732 -3.91292,-0.6349 -5.34945,1.602 -5.02717,7.828 0.19398,3.7474 -0.1261,4.6114 -2.3714,6.4017 -1.60319,1.2784 -3.43338,1.9096 -4.78661,1.6509 -1.59804,-0.3055 -2.62309,0.2407 -3.78786,2.0184 -1.867296,2.8499 -3.350656,3.0714 -5.33239,0.7966 z M 143.625,636.375 c -0.61875,-0.61875 -1.125,-1.85707 -1.125,-2.75182 0,-0.99355 -1.21956,-2.06781 -3.13296,-2.7597 -1.94762,-0.70427 -4.16447,-2.68157 -5.85937,-5.22622 -2.1535,-3.23317 -3.21893,-4.04212 -5.07017,-3.84967 -1.82179,0.1894 -2.44814,0.89173 -2.8125,3.15367 -0.40642,2.52307 -5.59622,9.74624 -7.00261,9.74624 -1.08538,0 -0.41053,-3.22959 1.0007,-4.78898 1.74152,-1.92435 1.03357,-3.64852 -1.49809,-3.64852 -0.97039,0 -1.99132,-0.36725 -2.26873,-0.81611 -0.52187,-0.84441 -10.70167,-0.58849 -11.5813,0.29115 -0.27313,0.27312 -1.06995,-0.60857 -1.77073,-1.95931 -0.9318,-1.79605 -0.99876,-2.7877 -0.24923,-3.69083 0.56369,-0.67921 0.74819,-2.10675 0.41,-3.17231 -0.42439,-1.33714 0.12039,-2.81124 1.75838,-4.75788 2.33442,-2.77429 2.39886,-4.53675 0.26627,-7.28311 -0.58514,-0.75353 -1.85064,-1.00779 -3.25799,-0.65457 -3.780583,0.94886 -6.74417,-2.59519 -6.74417,-8.06512 0,-2.45781 -0.439031,-4.74009 -0.975635,-5.07173 -0.536599,-0.33164 -0.701598,-1.46639 -0.366663,-2.52168 0.334934,-1.05528 0.08171,-4.40327 -0.562725,-7.43997 -0.913241,-4.30339 -1.873532,-6.1375 -4.353457,-8.3149 C 86.679051,571.25713 84.616236,570 83.844986,570 c -0.771248,0 -2.698709,1.47656 -4.283246,3.28125 -1.584536,1.80469 -3.587003,3.28125 -4.449925,3.28125 -0.862923,0 -2.957972,1.26867 -4.655665,2.81928 -2.968662,2.71145 -3.034791,2.92336 -1.729078,5.54073 1.563551,3.13421 1.046144,7.57749 -0.882378,7.57749 -0.721448,0 -2.992579,0.5246 -5.046959,1.16576 -2.948354,0.92018 -3.735235,1.62441 -3.735235,3.34288 0,3.03227 -1.652355,5.80386 -3.460118,5.80386 -0.835532,0 -2.910654,-1.06135 -4.611382,-2.35856 -3.545908,-2.7046 -8.8035,-4.12773 -8.8035,-2.38295 0,0.71292 -0.721194,0.88897 -1.990917,0.48597 -1.095005,-0.34754 -2.529008,-0.71087 -3.186673,-0.80739 -2.191572,-0.32166 -4.070077,-2.53456 -4.710237,-5.54873 -0.348342,-1.64014 -1.316113,-3.7552 -2.150603,-4.70011 -1.83289,-2.07542 -7.085929,-4.37573 -9.992519,-4.37573 -3.425624,0 -4.540701,-2.23763 -3.952947,-7.93241 l 0.524802,-5.08484 -3.442329,-1.79168 c -2.019216,-1.05097 -3.481837,-2.52665 -3.5378958,-3.5695 -0.052566,-0.9778 -0.1580315,-2.76654 -0.234375,-3.97496 C 9.4293966,559.4355 8.6402098,558.38231 7.5,558.08414 6.273115,557.7633 5.625,556.80537 5.625,555.31285 c 0,-2.66347 -2.0533374,-6.95322 -4.1684949,-8.70864 -1.92928085,-1.60117 -0.2671579,-3.79171 2.8770368,-3.79171 1.2259269,0 2.2289581,-0.47353 2.2289581,-1.05229 0,-0.74111 0.4037146,-0.71724 1.3651829,0.0807 1.6374262,1.35894 3.3103851,0.52989 3.3535071,-1.66188 0.01716,-0.87191 0.87323,-2.59647 1.902392,-3.83236 l 1.871201,-2.24705 2.142407,2.01268 c 1.486789,1.39676 3.34321,2.01268 6.066358,2.01268 3.859517,0 3.923952,-0.0539 3.923952,-3.28125 0,-3.78556 1.281757,-4.16542 4.345001,-1.28765 2.523944,2.37113 4.615422,1.84418 5.219341,-1.31502 0.485228,-2.53831 -2.646751,-6.30358 -5.243355,-6.30358 C 30.642533,525.9375 30,525.16576 30,524.12568 c 0,-0.99651 -0.84375,-2.07962 -1.875,-2.40693 -3.478715,-1.1041 -1.496638,-5.61606 2.890386,-6.57961 2.362707,-0.51893 3.381848,-0.18234 5.451406,1.80041 2.307818,2.21104 2.715504,2.31004 4.367442,1.06063 1.002108,-0.75793 2.746337,-1.39146 3.876063,-1.40787 1.129726,-0.0164 2.331764,-0.47916 2.671197,-1.02838 0.406069,-0.65704 1.203641,-0.46781 2.331894,0.55325 3.081334,2.78856 6.658696,0.64218 9.841071,-5.90456 0.820415,-1.68776 1.900776,-2.81579 2.400802,-2.50677 1.644751,1.01652 6.203492,-4.96129 6.845542,-8.97645 0.500135,-3.12767 1.111566,-4.01427 3.29281,-4.77465 2.306818,-0.80417 2.762059,-1.56271 3.279683,-5.46474 0.65853,-4.96424 1.82688,-5.81471 8.064204,-5.87015 1.804687,-0.016 3.496892,-0.36845 3.760454,-0.78315 0.904451,-1.42308 6.996412,0.50723 7.883408,2.49796 0.610819,1.37092 1.805166,1.97145 4.091804,2.05741 4.351234,0.16359 6.493004,-1.14753 7.210434,-4.41395 0.34688,-1.57936 1.35951,-2.92396 2.40866,-3.19832 0.99559,-0.26036 2.19317,-1.48075 2.66128,-2.71199 1.46136,-3.84366 3.24477,-4.7435 6.32426,-3.191 1.48002,0.74615 4.48218,1.87731 6.67147,2.51369 3.52078,1.02342 4.19608,0.96199 5.84681,-0.5319 1.3516,-1.22318 3.35639,-1.68264 7.26948,-1.66605 3.38824,0.0143 6.92644,-0.66068 9.48786,-1.81019 l 4.08467,-1.83311 1.86296,1.99965 c 1.02462,1.09981 2.77246,1.92796 3.88408,1.84035 3.48718,-0.27486 4.06922,-0.0266 7.0246,2.99625 2.70269,2.76437 3.18471,2.91217 7.73838,2.37286 2.67089,-0.31634 4.58415,-0.30314 4.25171,0.0293 -0.33246,0.33245 0.31974,1.58824 1.44933,2.79063 2.46912,2.62825 4.87779,9.06369 3.56146,9.51543 -0.50084,0.17188 -0.92403,1.01563 -0.94042,1.875 -0.0164,0.85937 -0.64922,2.38141 -1.40625,3.38231 -2.1114,2.79151 -1.70482,5.69835 0.96731,6.91586 2.57965,1.17536 2.88542,2.64352 1.28301,6.16044 -1.11518,2.44754 -0.95697,3.06762 1.94004,7.60389 0.98789,1.54687 1.82699,3.98589 1.86468,5.42004 0.0377,1.43416 0.65399,2.83222 1.36957,3.10681 0.71558,0.2746 1.55077,1.74788 1.85599,3.27396 0.30521,1.52608 1.30178,3.03854 2.21457,3.36102 3.98527,1.40792 5.87839,4.26295 5.87839,8.86523 0,3.55156 -0.49517,4.97663 -2.38636,6.86783 -1.3125,1.3125 -3.4276,2.38636 -4.70022,2.38636 -1.27263,0 -3.04642,0.35345 -3.94177,0.78544 -0.89535,0.43199 -2.88317,1.39157 -4.41738,2.1324 -3.55691,1.71753 -6.09048,5.92095 -4.51712,7.49431 0.84623,0.84623 1.86354,0.74272 4.36454,-0.44409 4.53648,-2.1527 8.67957,-2.86543 9.44619,-1.625 0.35078,0.56757 2.69164,1.03194 5.20191,1.03194 3.83538,0 4.8802,0.40182 6.54369,2.51661 1.42338,1.80954 1.81718,3.25598 1.40158,5.14815 -0.33754,1.53682 -0.0231,3.74383 0.75591,5.30536 0.88191,1.76786 1.18491,4.4702 0.89423,7.97544 -0.27747,3.34599 -0.0271,5.79874 0.67888,6.64934 1.23402,1.48689 0.31612,3.98987 -2.24164,6.11262 -0.80159,0.66526 -1.45744,2.63447 -1.45744,4.37602 0,1.74155 -0.42188,3.16646 -0.9375,3.16646 -0.51563,0 -0.9375,0.58986 -0.9375,1.31082 0,0.72095 -2.79802,4.05439 -6.21782,7.40763 -6.65644,6.52687 -10.96671,8.43622 -12.94303,5.73344 -1.38008,-1.88736 -10.81745,-2.84371 -13.56285,-1.37441 -1.19881,0.64156 -1.9638,1.97472 -1.9638,3.42231 0,4.47783 -3.71206,11.01773 -8.06183,14.20331 -2.2882,1.67579 -4.6799,3.0603 -5.31489,3.07669 -0.635,0.0164 -1.97345,0.64922 -2.97434,1.40625 -2.20886,1.6707 -3.53815,1.73723 -5.02394,0.25144 z M 245.68046,463.65098 c -3.01541,-3.11113 -3.13689,-3.5297 -3.46901,-11.95313 -0.18929,-4.801 -0.40209,-9.90669 -0.4729,-11.34596 -0.25788,-5.24225 8.91731,-13.5393 12.25031,-11.07787 0.81394,0.60111 2.12633,1.3168 2.91644,1.59042 3.35999,1.16364 5.25696,11.93491 2.6542,15.07103 -0.81918,0.98706 -0.68067,1.71549 0.59402,3.12401 0.91426,1.01025 1.77759,2.79531 1.91849,3.9668 0.14092,1.17148 0.53004,2.81381 0.86472,3.64962 0.37581,0.93849 0.0502,1.73392 -0.8516,2.07995 -0.80307,0.30816 -1.46013,1.59373 -1.46013,2.8568 0,4.61808 -0.79321,5.26235 -6.47889,5.26235 -4.85494,0 -5.62507,-0.2933 -8.46565,-3.22402 z M 152.96932,215.34521 c -0.63862,-0.76949 -2.58027,-1.66531 -4.31477,-1.9907 -1.7345,-0.32539 -3.65961,-1.20127 -4.278,-1.94639 -1.70929,-2.05957 -0.7772,-17.32753 1.23303,-20.19753 0.86786,-1.23904 1.57792,-2.61093 1.57792,-3.04865 0,-0.43773 0.63281,-1.42868 1.40625,-2.20212 0.91046,-0.91046 1.40625,-3.23148 1.40625,-6.5833 0,-4.35886 0.29131,-5.25324 1.84322,-5.65907 1.58806,-0.41529 1.76691,-1.03868 1.29204,-4.50328 -0.49382,-3.60279 -0.29539,-4.18889 1.90678,-5.6318 1.50016,-0.98294 2.45796,-2.47055 2.45796,-3.81758 0,-2.44238 -3.51082,-9.76479 -4.68186,-9.76479 -2.11118,0 -1.57044,-3.15416 1.00227,-5.84625 2.45062,-2.56434 3.09689,-2.82069 4.65612,-1.84694 2.19805,1.37271 4.64847,1.47455 4.64847,0.19319 0,-0.51563 1.63584,-0.9375 3.63521,-0.9375 2.08759,0 4.13207,-0.59868 4.80229,-1.40625 0.6419,-0.77344 1.74824,-1.40625 2.45854,-1.40625 0.7103,0 1.29146,-0.42188 1.29146,-0.9375 0,-0.51563 -0.51563,-0.9375 -1.14583,-0.9375 -0.63491,0 -0.2517,-0.89414 0.85942,-2.00527 1.27155,-1.27155 2.59506,-1.77893 3.6172,-1.3867 1.49467,0.57356 1.50035,0.74185 0.0781,2.31346 -1.82053,2.01166 -2.08069,7.64101 -0.35313,7.64101 0.64941,0 1.73292,0.88417 2.40778,1.9648 1.03403,1.65574 0.99577,2.22037 -0.24323,3.58945 -0.80866,0.89355 -1.47028,2.26431 -1.47028,3.04614 0,0.78183 -0.81984,2.16345 -1.82186,3.07027 -1.00203,0.90682 -2.084,2.84224 -2.40438,4.30094 -0.32038,1.45869 -2.21281,4.50428 -4.20539,6.76798 -2.63709,2.99588 -3.70476,5.11761 -3.92376,7.79749 -0.27753,3.39616 -0.50614,3.66726 -2.94792,3.49575 l -2.64705,-0.18594 0.4636,7.4119 c 0.41975,6.71076 0.29324,7.46596 -1.33731,7.98348 -0.99052,0.31437 -1.80093,1.33526 -1.80093,2.26862 0,0.93338 -0.63281,2.22222 -1.40625,2.86412 -1.01274,0.84049 -1.42469,3.16814 -1.47215,8.31791 -0.0362,3.93296 -0.3725,7.93002 -0.74727,8.88236 -0.596,1.51453 -0.82688,1.55619 -1.84251,0.33244 z m 36.64338,-81.10682 c -2.05663,-2.46052 -2.13912,-2.47695 -3.51562,-0.69983 -1.35835,1.75366 -1.40958,1.73012 -1.40958,-0.64779 0,-1.35719 0.42188,-2.72835 0.9375,-3.04702 1.40054,-0.86558 1.13119,-3.82841 -0.46875,-5.15625 -1.55286,-1.28875 -1.90447,-3.75 -0.53572,-3.75 0.4788,0 1.50409,0.63354 2.27843,1.40788 1.65508,1.65509 5.91585,0.49131 6.81911,-1.86256 0.29977,-0.78118 1.33041,-1.42032 2.29031,-1.42032 1.14391,0 1.56452,-0.47102 1.2207,-1.367 -0.63044,-1.6429 3.2296,-2.85969 6.14076,-1.93573 1.52203,0.48308 1.94266,0.21166 1.94266,-1.25355 0,-2.17598 -3.92045,-5.54324 -7.41795,-6.37126 -2.8889,-0.68392 -5.70705,-2.95956 -5.70705,-4.60838 0,-0.65056 -0.49657,-1.34835 -1.10348,-1.55066 -1.56159,-0.52052 -0.0821,-2.552976 2.6008,-3.573042 2.3223,-0.882937 3.10758,-4.332956 1.38983,-6.106003 -1.86867,-1.928824 -1.04519,-12.609375 0.97219,-12.609375 0.45549,0 0.82816,-0.84375 0.82816,-1.875 0,-1.03125 0.62198,-1.875 1.38218,-1.875 0.7602,0 2.03665,-1.265625 2.83657,-2.8125 1.52214,-2.9435 2.73702,-3.514036 3.80456,-1.786716 0.34869,0.564181 1.67246,0.827264 2.94172,0.58463 1.42896,-0.273163 2.49631,0.05022 2.80292,0.849216 0.61843,1.611606 2.91419,1.706883 2.85519,0.118495 -0.14303,-3.851543 0.24696,-4.686777 1.64618,-3.525533 1.37506,1.14121 5.06825,0.53498 3.89407,-0.639205 -0.89713,-0.89713 2.25769,-4.038387 4.05582,-4.038387 0.85449,0 3.29997,-0.84375 5.43441,-1.875 2.13444,-1.03125 5.75449,-1.875 8.04455,-1.875 2.77559,0 4.33792,-0.453945 4.68623,-1.361612 0.28737,-0.748886 2.33641,-2.232899 4.55342,-3.297806 2.21701,-1.064907 4.66374,-2.315779 5.43718,-2.779715 0.77344,-0.463936 2.8334,-1.374634 4.57768,-2.023773 1.74429,-0.649139 4.37002,-2.188801 5.83496,-3.421471 l 2.66354,-2.241219 1.8959,3.109673 c 2.59448,4.255459 2.43516,8.797386 -0.44083,12.568005 -2.55772,3.353343 -2.96853,5.948135 -1.21875,7.697918 0.875,0.875 0.79699,1.125 -0.35105,1.125 -1.83484,0 -13.89895,11.132118 -13.89895,12.825223 0,0.680502 0.42187,1.237277 0.9375,1.237277 2.03518,0 0.7661,1.742695 -2.34375,3.218415 -2.57839,1.223527 -3.28125,2.109921 -3.28125,4.13807 0,1.419558 -0.50953,3.090546 -1.1323,3.713318 -0.62277,0.622763 -1.19693,3.572072 -1.27591,6.554007 -0.16105,6.07984 -1.65162,9.20289 -4.76536,9.98439 -1.15596,0.29013 -2.82716,1.75554 -3.7138,3.25647 -1.72479,2.91986 -9.31942,5.91964 -10.5292,4.15891 -0.33807,-0.49203 -1.98577,-0.98658 -3.66156,-1.09899 -2.96562,-0.19893 -3.04687,-0.10398 -3.04687,3.56052 0,3.89398 -1.3335,5.07291 -2.29859,2.03216 -0.30248,-0.953 -1.65637,-2.23684 -3.00866,-2.85299 l -2.45871,-1.12026 0.5838,4.25924 c 0.51797,3.77902 0.38064,4.25924 -1.21794,4.25924 -0.99096,0 -2.07308,0.43903 -2.40472,0.97564 -0.33164,0.53659 -1.33222,0.74418 -2.22352,0.46128 -1.01457,-0.322 -2.38503,0.36488 -3.66491,1.83687 -1.1244,1.29317 -2.84575,2.35121 -3.82525,2.35121 -0.97949,0 -2.02373,0.63281 -2.32053,1.40625 -0.7959,2.07411 -2.66749,1.61797 -5.04827,-1.23036 z M 493.88864,56.484375 c -0.8097,-1.933594 -1.7214,-4.253906 -2.02599,-5.15625 -0.3046,-0.902344 -1.01666,-1.640625 -1.58236,-1.640625 -1.55148,0 -4.99086,2.000649 -6.15615,3.58097 -0.78868,1.069577 -2.09305,1.254284 -5.53042,0.783139 -5.49529,-0.753212 -7.03122,-1.92431 -7.03122,-5.361073 0,-1.453309 -0.42188,-2.903112 -0.9375,-3.221786 -0.51563,-0.318674 -0.9375,-1.622437 -0.9375,-2.897252 0,-1.274814 -0.63281,-2.560677 -1.40625,-2.857474 -3.49912,-1.342738 -0.004,-6.901524 4.33944,-6.901524 1.27424,0 2.83405,-0.517239 3.46623,-1.149421 0.90757,-0.907562 0.71301,-1.478614 -0.92463,-2.713882 -2.23159,-1.683293 -2.16448,-2.670167 1.09146,-16.048572 1.87801,-7.7166309 7.70068,-10.2418293 14.44306,-6.2637273 3.85055,2.2718815 5.77179,1.7322171 4.21162,-1.1830129 -0.84683,-1.5823001 -0.66767,-2.2937304 0.98902,-3.9274797 1.90693,-1.88050961 2.09335,-1.9008816 3.24434,-0.3545301 0.67164,0.9023437 2.26943,1.640625 3.55064,1.640625 3.16818,0 5.67629,2.9212809 4.95963,5.776658 -0.57128,2.276185 -5.31338,5.126209 -6.89891,4.14629 -0.46926,-0.290016 -1.38647,0.115245 -2.03824,0.900582 -0.95854,1.154972 -0.93785,1.889761 0.10824,3.844415 1.20079,2.243687 1.10903,2.563459 -1.28298,4.470779 l -2.57628,2.054251 2.43589,2.11798 c 1.84575,1.604851 3.09933,1.972263 5.17431,1.516523 2.34112,-0.514196 2.73841,-0.318619 2.73841,1.348033 0,1.649404 0.57724,1.949489 3.75,1.949489 3.05436,0 3.75,0.329217 3.75,1.774698 0,1.844206 2.34945,3.309636 3.8346,2.391765 1.25503,-0.775651 0.98132,2.617885 -0.35239,4.368991 -0.63011,0.827312 -2.17659,1.831408 -3.43661,2.231325 -3.31616,1.052507 -10.3581,7.964522 -10.3581,10.166987 0,1.033304 -0.28217,1.596564 -0.62705,1.251689 -1.07409,-1.074092 -4.06045,2.366898 -4.06045,4.678596 0,3.375469 -2.27916,2.610392 -3.92386,-1.317176 z"
     id="path3346"
     inkscape:connector-curvature="0" />
</svg>
